G04 #@! TF.GenerationSoftware,KiCad,Pcbnew,(5.1.0)*
G04 #@! TF.CreationDate,2019-04-19T11:09:27+02:00*
G04 #@! TF.ProjectId,kicon19-badge,6b69636f-6e31-4392-9d62-616467652e6b,rev?*
G04 #@! TF.SameCoordinates,Original*
G04 #@! TF.FileFunction,Soldermask,Bot*
G04 #@! TF.FilePolarity,Negative*
%FSLAX46Y46*%
G04 Gerber Fmt 4.6, Leading zero omitted, Abs format (unit mm)*
G04 Created by KiCad (PCBNEW (5.1.0)) date 2019-04-19 11:09:27*
%MOMM*%
%LPD*%
G04 APERTURE LIST*
%ADD10C,0.100000*%
G04 APERTURE END LIST*
D10*
G36*
X140819294Y-121288633D02*
G01*
X140991695Y-121340931D01*
X141150583Y-121425858D01*
X141289849Y-121540151D01*
X141404142Y-121679417D01*
X141489069Y-121838305D01*
X141541367Y-122010706D01*
X141559025Y-122190000D01*
X141541367Y-122369294D01*
X141489069Y-122541695D01*
X141404142Y-122700583D01*
X141289849Y-122839849D01*
X141150583Y-122954142D01*
X140991695Y-123039069D01*
X140819294Y-123091367D01*
X140684931Y-123104600D01*
X140595069Y-123104600D01*
X140460706Y-123091367D01*
X140288305Y-123039069D01*
X140129417Y-122954142D01*
X139990151Y-122839849D01*
X139875858Y-122700583D01*
X139790931Y-122541695D01*
X139738633Y-122369294D01*
X139720975Y-122190000D01*
X139738633Y-122010706D01*
X139790931Y-121838305D01*
X139875858Y-121679417D01*
X139990151Y-121540151D01*
X140129417Y-121425858D01*
X140288305Y-121340931D01*
X140460706Y-121288633D01*
X140595069Y-121275400D01*
X140684931Y-121275400D01*
X140819294Y-121288633D01*
X140819294Y-121288633D01*
G37*
G36*
X161139294Y-121288633D02*
G01*
X161311695Y-121340931D01*
X161470583Y-121425858D01*
X161609849Y-121540151D01*
X161724142Y-121679417D01*
X161809069Y-121838305D01*
X161861367Y-122010706D01*
X161879025Y-122190000D01*
X161861367Y-122369294D01*
X161809069Y-122541695D01*
X161724142Y-122700583D01*
X161609849Y-122839849D01*
X161470583Y-122954142D01*
X161311695Y-123039069D01*
X161139294Y-123091367D01*
X161004931Y-123104600D01*
X160915069Y-123104600D01*
X160780706Y-123091367D01*
X160608305Y-123039069D01*
X160449417Y-122954142D01*
X160310151Y-122839849D01*
X160195858Y-122700583D01*
X160110931Y-122541695D01*
X160058633Y-122369294D01*
X160040975Y-122190000D01*
X160058633Y-122010706D01*
X160110931Y-121838305D01*
X160195858Y-121679417D01*
X160310151Y-121540151D01*
X160449417Y-121425858D01*
X160608305Y-121340931D01*
X160780706Y-121288633D01*
X160915069Y-121275400D01*
X161004931Y-121275400D01*
X161139294Y-121288633D01*
X161139294Y-121288633D01*
G37*
G36*
X163679294Y-121288633D02*
G01*
X163851695Y-121340931D01*
X164010583Y-121425858D01*
X164149849Y-121540151D01*
X164264142Y-121679417D01*
X164349069Y-121838305D01*
X164401367Y-122010706D01*
X164419025Y-122190000D01*
X164401367Y-122369294D01*
X164349069Y-122541695D01*
X164264142Y-122700583D01*
X164149849Y-122839849D01*
X164010583Y-122954142D01*
X163851695Y-123039069D01*
X163679294Y-123091367D01*
X163544931Y-123104600D01*
X163455069Y-123104600D01*
X163320706Y-123091367D01*
X163148305Y-123039069D01*
X162989417Y-122954142D01*
X162850151Y-122839849D01*
X162735858Y-122700583D01*
X162650931Y-122541695D01*
X162598633Y-122369294D01*
X162580975Y-122190000D01*
X162598633Y-122010706D01*
X162650931Y-121838305D01*
X162735858Y-121679417D01*
X162850151Y-121540151D01*
X162989417Y-121425858D01*
X163148305Y-121340931D01*
X163320706Y-121288633D01*
X163455069Y-121275400D01*
X163544931Y-121275400D01*
X163679294Y-121288633D01*
X163679294Y-121288633D01*
G37*
G36*
X158599294Y-121288633D02*
G01*
X158771695Y-121340931D01*
X158930583Y-121425858D01*
X159069849Y-121540151D01*
X159184142Y-121679417D01*
X159269069Y-121838305D01*
X159321367Y-122010706D01*
X159339025Y-122190000D01*
X159321367Y-122369294D01*
X159269069Y-122541695D01*
X159184142Y-122700583D01*
X159069849Y-122839849D01*
X158930583Y-122954142D01*
X158771695Y-123039069D01*
X158599294Y-123091367D01*
X158464931Y-123104600D01*
X158375069Y-123104600D01*
X158240706Y-123091367D01*
X158068305Y-123039069D01*
X157909417Y-122954142D01*
X157770151Y-122839849D01*
X157655858Y-122700583D01*
X157570931Y-122541695D01*
X157518633Y-122369294D01*
X157500975Y-122190000D01*
X157518633Y-122010706D01*
X157570931Y-121838305D01*
X157655858Y-121679417D01*
X157770151Y-121540151D01*
X157909417Y-121425858D01*
X158068305Y-121340931D01*
X158240706Y-121288633D01*
X158375069Y-121275400D01*
X158464931Y-121275400D01*
X158599294Y-121288633D01*
X158599294Y-121288633D01*
G37*
G36*
X156059294Y-121288633D02*
G01*
X156231695Y-121340931D01*
X156390583Y-121425858D01*
X156529849Y-121540151D01*
X156644142Y-121679417D01*
X156729069Y-121838305D01*
X156781367Y-122010706D01*
X156799025Y-122190000D01*
X156781367Y-122369294D01*
X156729069Y-122541695D01*
X156644142Y-122700583D01*
X156529849Y-122839849D01*
X156390583Y-122954142D01*
X156231695Y-123039069D01*
X156059294Y-123091367D01*
X155924931Y-123104600D01*
X155835069Y-123104600D01*
X155700706Y-123091367D01*
X155528305Y-123039069D01*
X155369417Y-122954142D01*
X155230151Y-122839849D01*
X155115858Y-122700583D01*
X155030931Y-122541695D01*
X154978633Y-122369294D01*
X154960975Y-122190000D01*
X154978633Y-122010706D01*
X155030931Y-121838305D01*
X155115858Y-121679417D01*
X155230151Y-121540151D01*
X155369417Y-121425858D01*
X155528305Y-121340931D01*
X155700706Y-121288633D01*
X155835069Y-121275400D01*
X155924931Y-121275400D01*
X156059294Y-121288633D01*
X156059294Y-121288633D01*
G37*
G36*
X153519294Y-121288633D02*
G01*
X153691695Y-121340931D01*
X153850583Y-121425858D01*
X153989849Y-121540151D01*
X154104142Y-121679417D01*
X154189069Y-121838305D01*
X154241367Y-122010706D01*
X154259025Y-122190000D01*
X154241367Y-122369294D01*
X154189069Y-122541695D01*
X154104142Y-122700583D01*
X153989849Y-122839849D01*
X153850583Y-122954142D01*
X153691695Y-123039069D01*
X153519294Y-123091367D01*
X153384931Y-123104600D01*
X153295069Y-123104600D01*
X153160706Y-123091367D01*
X152988305Y-123039069D01*
X152829417Y-122954142D01*
X152690151Y-122839849D01*
X152575858Y-122700583D01*
X152490931Y-122541695D01*
X152438633Y-122369294D01*
X152420975Y-122190000D01*
X152438633Y-122010706D01*
X152490931Y-121838305D01*
X152575858Y-121679417D01*
X152690151Y-121540151D01*
X152829417Y-121425858D01*
X152988305Y-121340931D01*
X153160706Y-121288633D01*
X153295069Y-121275400D01*
X153384931Y-121275400D01*
X153519294Y-121288633D01*
X153519294Y-121288633D01*
G37*
G36*
X148439294Y-121288633D02*
G01*
X148611695Y-121340931D01*
X148770583Y-121425858D01*
X148909849Y-121540151D01*
X149024142Y-121679417D01*
X149109069Y-121838305D01*
X149161367Y-122010706D01*
X149179025Y-122190000D01*
X149161367Y-122369294D01*
X149109069Y-122541695D01*
X149024142Y-122700583D01*
X148909849Y-122839849D01*
X148770583Y-122954142D01*
X148611695Y-123039069D01*
X148439294Y-123091367D01*
X148304931Y-123104600D01*
X148215069Y-123104600D01*
X148080706Y-123091367D01*
X147908305Y-123039069D01*
X147749417Y-122954142D01*
X147610151Y-122839849D01*
X147495858Y-122700583D01*
X147410931Y-122541695D01*
X147358633Y-122369294D01*
X147340975Y-122190000D01*
X147358633Y-122010706D01*
X147410931Y-121838305D01*
X147495858Y-121679417D01*
X147610151Y-121540151D01*
X147749417Y-121425858D01*
X147908305Y-121340931D01*
X148080706Y-121288633D01*
X148215069Y-121275400D01*
X148304931Y-121275400D01*
X148439294Y-121288633D01*
X148439294Y-121288633D01*
G37*
G36*
X145899294Y-121288633D02*
G01*
X146071695Y-121340931D01*
X146230583Y-121425858D01*
X146369849Y-121540151D01*
X146484142Y-121679417D01*
X146569069Y-121838305D01*
X146621367Y-122010706D01*
X146639025Y-122190000D01*
X146621367Y-122369294D01*
X146569069Y-122541695D01*
X146484142Y-122700583D01*
X146369849Y-122839849D01*
X146230583Y-122954142D01*
X146071695Y-123039069D01*
X145899294Y-123091367D01*
X145764931Y-123104600D01*
X145675069Y-123104600D01*
X145540706Y-123091367D01*
X145368305Y-123039069D01*
X145209417Y-122954142D01*
X145070151Y-122839849D01*
X144955858Y-122700583D01*
X144870931Y-122541695D01*
X144818633Y-122369294D01*
X144800975Y-122190000D01*
X144818633Y-122010706D01*
X144870931Y-121838305D01*
X144955858Y-121679417D01*
X145070151Y-121540151D01*
X145209417Y-121425858D01*
X145368305Y-121340931D01*
X145540706Y-121288633D01*
X145675069Y-121275400D01*
X145764931Y-121275400D01*
X145899294Y-121288633D01*
X145899294Y-121288633D01*
G37*
G36*
X143359294Y-121288633D02*
G01*
X143531695Y-121340931D01*
X143690583Y-121425858D01*
X143829849Y-121540151D01*
X143944142Y-121679417D01*
X144029069Y-121838305D01*
X144081367Y-122010706D01*
X144099025Y-122190000D01*
X144081367Y-122369294D01*
X144029069Y-122541695D01*
X143944142Y-122700583D01*
X143829849Y-122839849D01*
X143690583Y-122954142D01*
X143531695Y-123039069D01*
X143359294Y-123091367D01*
X143224931Y-123104600D01*
X143135069Y-123104600D01*
X143000706Y-123091367D01*
X142828305Y-123039069D01*
X142669417Y-122954142D01*
X142530151Y-122839849D01*
X142415858Y-122700583D01*
X142330931Y-122541695D01*
X142278633Y-122369294D01*
X142260975Y-122190000D01*
X142278633Y-122010706D01*
X142330931Y-121838305D01*
X142415858Y-121679417D01*
X142530151Y-121540151D01*
X142669417Y-121425858D01*
X142828305Y-121340931D01*
X143000706Y-121288633D01*
X143135069Y-121275400D01*
X143224931Y-121275400D01*
X143359294Y-121288633D01*
X143359294Y-121288633D01*
G37*
G36*
X150979294Y-121288633D02*
G01*
X151151695Y-121340931D01*
X151310583Y-121425858D01*
X151449849Y-121540151D01*
X151564142Y-121679417D01*
X151649069Y-121838305D01*
X151701367Y-122010706D01*
X151719025Y-122190000D01*
X151701367Y-122369294D01*
X151649069Y-122541695D01*
X151564142Y-122700583D01*
X151449849Y-122839849D01*
X151310583Y-122954142D01*
X151151695Y-123039069D01*
X150979294Y-123091367D01*
X150844931Y-123104600D01*
X150755069Y-123104600D01*
X150620706Y-123091367D01*
X150448305Y-123039069D01*
X150289417Y-122954142D01*
X150150151Y-122839849D01*
X150035858Y-122700583D01*
X149950931Y-122541695D01*
X149898633Y-122369294D01*
X149880975Y-122190000D01*
X149898633Y-122010706D01*
X149950931Y-121838305D01*
X150035858Y-121679417D01*
X150150151Y-121540151D01*
X150289417Y-121425858D01*
X150448305Y-121340931D01*
X150620706Y-121288633D01*
X150755069Y-121275400D01*
X150844931Y-121275400D01*
X150979294Y-121288633D01*
X150979294Y-121288633D01*
G37*
G36*
X107997615Y-121010173D02*
G01*
X108101479Y-121041679D01*
X108128655Y-121056205D01*
X108197200Y-121092843D01*
X108281101Y-121161699D01*
X108349957Y-121245600D01*
X108365885Y-121275400D01*
X108401121Y-121341321D01*
X108432627Y-121445185D01*
X108443266Y-121553200D01*
X108432627Y-121661215D01*
X108401121Y-121765079D01*
X108401119Y-121765082D01*
X108349957Y-121860800D01*
X108281101Y-121944701D01*
X108197200Y-122013557D01*
X108128655Y-122050195D01*
X108101479Y-122064721D01*
X107997615Y-122096227D01*
X107916667Y-122104200D01*
X107162533Y-122104200D01*
X107081585Y-122096227D01*
X106977721Y-122064721D01*
X106950545Y-122050195D01*
X106882000Y-122013557D01*
X106798099Y-121944701D01*
X106729243Y-121860800D01*
X106678081Y-121765082D01*
X106678079Y-121765079D01*
X106646573Y-121661215D01*
X106635934Y-121553200D01*
X106646573Y-121445185D01*
X106678079Y-121341321D01*
X106713315Y-121275400D01*
X106729243Y-121245600D01*
X106798099Y-121161699D01*
X106882000Y-121092843D01*
X106950545Y-121056205D01*
X106977721Y-121041679D01*
X107081585Y-121010173D01*
X107162533Y-121002200D01*
X107916667Y-121002200D01*
X107997615Y-121010173D01*
X107997615Y-121010173D01*
G37*
G36*
X158599294Y-118748633D02*
G01*
X158771695Y-118800931D01*
X158930583Y-118885858D01*
X159069849Y-119000151D01*
X159184142Y-119139417D01*
X159269069Y-119298305D01*
X159321367Y-119470706D01*
X159339025Y-119650000D01*
X159321367Y-119829294D01*
X159269069Y-120001695D01*
X159184142Y-120160583D01*
X159069849Y-120299849D01*
X158930583Y-120414142D01*
X158771695Y-120499069D01*
X158599294Y-120551367D01*
X158464931Y-120564600D01*
X158375069Y-120564600D01*
X158240706Y-120551367D01*
X158068305Y-120499069D01*
X157909417Y-120414142D01*
X157770151Y-120299849D01*
X157655858Y-120160583D01*
X157570931Y-120001695D01*
X157518633Y-119829294D01*
X157500975Y-119650000D01*
X157518633Y-119470706D01*
X157570931Y-119298305D01*
X157655858Y-119139417D01*
X157770151Y-119000151D01*
X157909417Y-118885858D01*
X158068305Y-118800931D01*
X158240706Y-118748633D01*
X158375069Y-118735400D01*
X158464931Y-118735400D01*
X158599294Y-118748633D01*
X158599294Y-118748633D01*
G37*
G36*
X161139294Y-118748633D02*
G01*
X161311695Y-118800931D01*
X161470583Y-118885858D01*
X161609849Y-119000151D01*
X161724142Y-119139417D01*
X161809069Y-119298305D01*
X161861367Y-119470706D01*
X161879025Y-119650000D01*
X161861367Y-119829294D01*
X161809069Y-120001695D01*
X161724142Y-120160583D01*
X161609849Y-120299849D01*
X161470583Y-120414142D01*
X161311695Y-120499069D01*
X161139294Y-120551367D01*
X161004931Y-120564600D01*
X160915069Y-120564600D01*
X160780706Y-120551367D01*
X160608305Y-120499069D01*
X160449417Y-120414142D01*
X160310151Y-120299849D01*
X160195858Y-120160583D01*
X160110931Y-120001695D01*
X160058633Y-119829294D01*
X160040975Y-119650000D01*
X160058633Y-119470706D01*
X160110931Y-119298305D01*
X160195858Y-119139417D01*
X160310151Y-119000151D01*
X160449417Y-118885858D01*
X160608305Y-118800931D01*
X160780706Y-118748633D01*
X160915069Y-118735400D01*
X161004931Y-118735400D01*
X161139294Y-118748633D01*
X161139294Y-118748633D01*
G37*
G36*
X164414600Y-120564600D02*
G01*
X162585400Y-120564600D01*
X162585400Y-118735400D01*
X164414600Y-118735400D01*
X164414600Y-120564600D01*
X164414600Y-120564600D01*
G37*
G36*
X140819294Y-118748633D02*
G01*
X140991695Y-118800931D01*
X141150583Y-118885858D01*
X141289849Y-119000151D01*
X141404142Y-119139417D01*
X141489069Y-119298305D01*
X141541367Y-119470706D01*
X141559025Y-119650000D01*
X141541367Y-119829294D01*
X141489069Y-120001695D01*
X141404142Y-120160583D01*
X141289849Y-120299849D01*
X141150583Y-120414142D01*
X140991695Y-120499069D01*
X140819294Y-120551367D01*
X140684931Y-120564600D01*
X140595069Y-120564600D01*
X140460706Y-120551367D01*
X140288305Y-120499069D01*
X140129417Y-120414142D01*
X139990151Y-120299849D01*
X139875858Y-120160583D01*
X139790931Y-120001695D01*
X139738633Y-119829294D01*
X139720975Y-119650000D01*
X139738633Y-119470706D01*
X139790931Y-119298305D01*
X139875858Y-119139417D01*
X139990151Y-119000151D01*
X140129417Y-118885858D01*
X140288305Y-118800931D01*
X140460706Y-118748633D01*
X140595069Y-118735400D01*
X140684931Y-118735400D01*
X140819294Y-118748633D01*
X140819294Y-118748633D01*
G37*
G36*
X143359294Y-118748633D02*
G01*
X143531695Y-118800931D01*
X143690583Y-118885858D01*
X143829849Y-119000151D01*
X143944142Y-119139417D01*
X144029069Y-119298305D01*
X144081367Y-119470706D01*
X144099025Y-119650000D01*
X144081367Y-119829294D01*
X144029069Y-120001695D01*
X143944142Y-120160583D01*
X143829849Y-120299849D01*
X143690583Y-120414142D01*
X143531695Y-120499069D01*
X143359294Y-120551367D01*
X143224931Y-120564600D01*
X143135069Y-120564600D01*
X143000706Y-120551367D01*
X142828305Y-120499069D01*
X142669417Y-120414142D01*
X142530151Y-120299849D01*
X142415858Y-120160583D01*
X142330931Y-120001695D01*
X142278633Y-119829294D01*
X142260975Y-119650000D01*
X142278633Y-119470706D01*
X142330931Y-119298305D01*
X142415858Y-119139417D01*
X142530151Y-119000151D01*
X142669417Y-118885858D01*
X142828305Y-118800931D01*
X143000706Y-118748633D01*
X143135069Y-118735400D01*
X143224931Y-118735400D01*
X143359294Y-118748633D01*
X143359294Y-118748633D01*
G37*
G36*
X156059294Y-118748633D02*
G01*
X156231695Y-118800931D01*
X156390583Y-118885858D01*
X156529849Y-119000151D01*
X156644142Y-119139417D01*
X156729069Y-119298305D01*
X156781367Y-119470706D01*
X156799025Y-119650000D01*
X156781367Y-119829294D01*
X156729069Y-120001695D01*
X156644142Y-120160583D01*
X156529849Y-120299849D01*
X156390583Y-120414142D01*
X156231695Y-120499069D01*
X156059294Y-120551367D01*
X155924931Y-120564600D01*
X155835069Y-120564600D01*
X155700706Y-120551367D01*
X155528305Y-120499069D01*
X155369417Y-120414142D01*
X155230151Y-120299849D01*
X155115858Y-120160583D01*
X155030931Y-120001695D01*
X154978633Y-119829294D01*
X154960975Y-119650000D01*
X154978633Y-119470706D01*
X155030931Y-119298305D01*
X155115858Y-119139417D01*
X155230151Y-119000151D01*
X155369417Y-118885858D01*
X155528305Y-118800931D01*
X155700706Y-118748633D01*
X155835069Y-118735400D01*
X155924931Y-118735400D01*
X156059294Y-118748633D01*
X156059294Y-118748633D01*
G37*
G36*
X145899294Y-118748633D02*
G01*
X146071695Y-118800931D01*
X146230583Y-118885858D01*
X146369849Y-119000151D01*
X146484142Y-119139417D01*
X146569069Y-119298305D01*
X146621367Y-119470706D01*
X146639025Y-119650000D01*
X146621367Y-119829294D01*
X146569069Y-120001695D01*
X146484142Y-120160583D01*
X146369849Y-120299849D01*
X146230583Y-120414142D01*
X146071695Y-120499069D01*
X145899294Y-120551367D01*
X145764931Y-120564600D01*
X145675069Y-120564600D01*
X145540706Y-120551367D01*
X145368305Y-120499069D01*
X145209417Y-120414142D01*
X145070151Y-120299849D01*
X144955858Y-120160583D01*
X144870931Y-120001695D01*
X144818633Y-119829294D01*
X144800975Y-119650000D01*
X144818633Y-119470706D01*
X144870931Y-119298305D01*
X144955858Y-119139417D01*
X145070151Y-119000151D01*
X145209417Y-118885858D01*
X145368305Y-118800931D01*
X145540706Y-118748633D01*
X145675069Y-118735400D01*
X145764931Y-118735400D01*
X145899294Y-118748633D01*
X145899294Y-118748633D01*
G37*
G36*
X153519294Y-118748633D02*
G01*
X153691695Y-118800931D01*
X153850583Y-118885858D01*
X153989849Y-119000151D01*
X154104142Y-119139417D01*
X154189069Y-119298305D01*
X154241367Y-119470706D01*
X154259025Y-119650000D01*
X154241367Y-119829294D01*
X154189069Y-120001695D01*
X154104142Y-120160583D01*
X153989849Y-120299849D01*
X153850583Y-120414142D01*
X153691695Y-120499069D01*
X153519294Y-120551367D01*
X153384931Y-120564600D01*
X153295069Y-120564600D01*
X153160706Y-120551367D01*
X152988305Y-120499069D01*
X152829417Y-120414142D01*
X152690151Y-120299849D01*
X152575858Y-120160583D01*
X152490931Y-120001695D01*
X152438633Y-119829294D01*
X152420975Y-119650000D01*
X152438633Y-119470706D01*
X152490931Y-119298305D01*
X152575858Y-119139417D01*
X152690151Y-119000151D01*
X152829417Y-118885858D01*
X152988305Y-118800931D01*
X153160706Y-118748633D01*
X153295069Y-118735400D01*
X153384931Y-118735400D01*
X153519294Y-118748633D01*
X153519294Y-118748633D01*
G37*
G36*
X148439294Y-118748633D02*
G01*
X148611695Y-118800931D01*
X148770583Y-118885858D01*
X148909849Y-119000151D01*
X149024142Y-119139417D01*
X149109069Y-119298305D01*
X149161367Y-119470706D01*
X149179025Y-119650000D01*
X149161367Y-119829294D01*
X149109069Y-120001695D01*
X149024142Y-120160583D01*
X148909849Y-120299849D01*
X148770583Y-120414142D01*
X148611695Y-120499069D01*
X148439294Y-120551367D01*
X148304931Y-120564600D01*
X148215069Y-120564600D01*
X148080706Y-120551367D01*
X147908305Y-120499069D01*
X147749417Y-120414142D01*
X147610151Y-120299849D01*
X147495858Y-120160583D01*
X147410931Y-120001695D01*
X147358633Y-119829294D01*
X147340975Y-119650000D01*
X147358633Y-119470706D01*
X147410931Y-119298305D01*
X147495858Y-119139417D01*
X147610151Y-119000151D01*
X147749417Y-118885858D01*
X147908305Y-118800931D01*
X148080706Y-118748633D01*
X148215069Y-118735400D01*
X148304931Y-118735400D01*
X148439294Y-118748633D01*
X148439294Y-118748633D01*
G37*
G36*
X150979294Y-118748633D02*
G01*
X151151695Y-118800931D01*
X151310583Y-118885858D01*
X151449849Y-119000151D01*
X151564142Y-119139417D01*
X151649069Y-119298305D01*
X151701367Y-119470706D01*
X151719025Y-119650000D01*
X151701367Y-119829294D01*
X151649069Y-120001695D01*
X151564142Y-120160583D01*
X151449849Y-120299849D01*
X151310583Y-120414142D01*
X151151695Y-120499069D01*
X150979294Y-120551367D01*
X150844931Y-120564600D01*
X150755069Y-120564600D01*
X150620706Y-120551367D01*
X150448305Y-120499069D01*
X150289417Y-120414142D01*
X150150151Y-120299849D01*
X150035858Y-120160583D01*
X149950931Y-120001695D01*
X149898633Y-119829294D01*
X149880975Y-119650000D01*
X149898633Y-119470706D01*
X149950931Y-119298305D01*
X150035858Y-119139417D01*
X150150151Y-119000151D01*
X150289417Y-118885858D01*
X150448305Y-118800931D01*
X150620706Y-118748633D01*
X150755069Y-118735400D01*
X150844931Y-118735400D01*
X150979294Y-118748633D01*
X150979294Y-118748633D01*
G37*
G36*
X107997615Y-114410173D02*
G01*
X108101479Y-114441679D01*
X108128655Y-114456205D01*
X108197200Y-114492843D01*
X108281101Y-114561699D01*
X108349957Y-114645600D01*
X108382998Y-114707416D01*
X108401121Y-114741321D01*
X108432627Y-114845185D01*
X108443266Y-114953200D01*
X108432627Y-115061215D01*
X108401121Y-115165079D01*
X108401119Y-115165082D01*
X108349957Y-115260800D01*
X108281101Y-115344701D01*
X108197200Y-115413557D01*
X108128655Y-115450195D01*
X108101479Y-115464721D01*
X107997615Y-115496227D01*
X107916667Y-115504200D01*
X107162533Y-115504200D01*
X107081585Y-115496227D01*
X106977721Y-115464721D01*
X106950545Y-115450195D01*
X106882000Y-115413557D01*
X106798099Y-115344701D01*
X106729243Y-115260800D01*
X106678081Y-115165082D01*
X106678079Y-115165079D01*
X106646573Y-115061215D01*
X106635934Y-114953200D01*
X106646573Y-114845185D01*
X106678079Y-114741321D01*
X106696202Y-114707416D01*
X106729243Y-114645600D01*
X106798099Y-114561699D01*
X106882000Y-114492843D01*
X106950545Y-114456205D01*
X106977721Y-114441679D01*
X107081585Y-114410173D01*
X107162533Y-114402200D01*
X107916667Y-114402200D01*
X107997615Y-114410173D01*
X107997615Y-114410173D01*
G37*
G36*
X167975256Y-111816298D02*
G01*
X168081579Y-111837447D01*
X168382042Y-111961903D01*
X168652451Y-112142585D01*
X168882415Y-112372549D01*
X169063097Y-112642958D01*
X169187553Y-112943421D01*
X169251000Y-113262391D01*
X169251000Y-113587609D01*
X169187553Y-113906579D01*
X169063097Y-114207042D01*
X168882415Y-114477451D01*
X168652451Y-114707415D01*
X168382042Y-114888097D01*
X168081579Y-115012553D01*
X167975256Y-115033702D01*
X167762611Y-115076000D01*
X167437389Y-115076000D01*
X167224744Y-115033702D01*
X167118421Y-115012553D01*
X166817958Y-114888097D01*
X166547549Y-114707415D01*
X166317585Y-114477451D01*
X166136903Y-114207042D01*
X166012447Y-113906579D01*
X165949000Y-113587609D01*
X165949000Y-113262391D01*
X166012447Y-112943421D01*
X166136903Y-112642958D01*
X166317585Y-112372549D01*
X166547549Y-112142585D01*
X166817958Y-111961903D01*
X167118421Y-111837447D01*
X167224744Y-111816298D01*
X167437389Y-111774000D01*
X167762611Y-111774000D01*
X167975256Y-111816298D01*
X167975256Y-111816298D01*
G37*
G36*
X139025256Y-111816298D02*
G01*
X139131579Y-111837447D01*
X139432042Y-111961903D01*
X139702451Y-112142585D01*
X139932415Y-112372549D01*
X140113097Y-112642958D01*
X140237553Y-112943421D01*
X140301000Y-113262391D01*
X140301000Y-113587609D01*
X140237553Y-113906579D01*
X140113097Y-114207042D01*
X139932415Y-114477451D01*
X139702451Y-114707415D01*
X139432042Y-114888097D01*
X139131579Y-115012553D01*
X139025256Y-115033702D01*
X138812611Y-115076000D01*
X138487389Y-115076000D01*
X138274744Y-115033702D01*
X138168421Y-115012553D01*
X137867958Y-114888097D01*
X137597549Y-114707415D01*
X137367585Y-114477451D01*
X137186903Y-114207042D01*
X137062447Y-113906579D01*
X136999000Y-113587609D01*
X136999000Y-113262391D01*
X137062447Y-112943421D01*
X137186903Y-112642958D01*
X137367585Y-112372549D01*
X137597549Y-112142585D01*
X137867958Y-111961903D01*
X138168421Y-111837447D01*
X138274744Y-111816298D01*
X138487389Y-111774000D01*
X138812611Y-111774000D01*
X139025256Y-111816298D01*
X139025256Y-111816298D01*
G37*
G36*
X175110443Y-109645519D02*
G01*
X175176627Y-109652037D01*
X175346466Y-109703557D01*
X175502991Y-109787222D01*
X175538729Y-109816552D01*
X175640186Y-109899814D01*
X175723448Y-110001271D01*
X175752778Y-110037009D01*
X175836443Y-110193534D01*
X175887963Y-110363373D01*
X175905359Y-110540000D01*
X175887963Y-110716627D01*
X175836443Y-110886466D01*
X175752778Y-111042991D01*
X175723448Y-111078729D01*
X175640186Y-111180186D01*
X175538729Y-111263448D01*
X175502991Y-111292778D01*
X175346466Y-111376443D01*
X175176627Y-111427963D01*
X175110443Y-111434481D01*
X175044260Y-111441000D01*
X174955740Y-111441000D01*
X174889557Y-111434481D01*
X174823373Y-111427963D01*
X174653534Y-111376443D01*
X174497009Y-111292778D01*
X174461271Y-111263448D01*
X174359814Y-111180186D01*
X174276552Y-111078729D01*
X174247222Y-111042991D01*
X174163557Y-110886466D01*
X174112037Y-110716627D01*
X174094641Y-110540000D01*
X174112037Y-110363373D01*
X174163557Y-110193534D01*
X174247222Y-110037009D01*
X174276552Y-110001271D01*
X174359814Y-109899814D01*
X174461271Y-109816552D01*
X174497009Y-109787222D01*
X174653534Y-109703557D01*
X174823373Y-109652037D01*
X174889557Y-109645519D01*
X174955740Y-109639000D01*
X175044260Y-109639000D01*
X175110443Y-109645519D01*
X175110443Y-109645519D01*
G37*
G36*
X175110443Y-107105519D02*
G01*
X175176627Y-107112037D01*
X175346466Y-107163557D01*
X175502991Y-107247222D01*
X175538729Y-107276552D01*
X175640186Y-107359814D01*
X175723448Y-107461271D01*
X175752778Y-107497009D01*
X175836443Y-107653534D01*
X175887963Y-107823373D01*
X175905359Y-108000000D01*
X175887963Y-108176627D01*
X175836443Y-108346466D01*
X175752778Y-108502991D01*
X175723448Y-108538729D01*
X175640186Y-108640186D01*
X175538729Y-108723448D01*
X175502991Y-108752778D01*
X175346466Y-108836443D01*
X175176627Y-108887963D01*
X175110442Y-108894482D01*
X175044260Y-108901000D01*
X174955740Y-108901000D01*
X174889558Y-108894482D01*
X174823373Y-108887963D01*
X174653534Y-108836443D01*
X174497009Y-108752778D01*
X174461271Y-108723448D01*
X174359814Y-108640186D01*
X174276552Y-108538729D01*
X174247222Y-108502991D01*
X174163557Y-108346466D01*
X174112037Y-108176627D01*
X174094641Y-108000000D01*
X174112037Y-107823373D01*
X174163557Y-107653534D01*
X174247222Y-107497009D01*
X174276552Y-107461271D01*
X174359814Y-107359814D01*
X174461271Y-107276552D01*
X174497009Y-107247222D01*
X174653534Y-107163557D01*
X174823373Y-107112037D01*
X174889557Y-107105519D01*
X174955740Y-107099000D01*
X175044260Y-107099000D01*
X175110443Y-107105519D01*
X175110443Y-107105519D01*
G37*
G36*
X175110442Y-104565518D02*
G01*
X175176627Y-104572037D01*
X175346466Y-104623557D01*
X175502991Y-104707222D01*
X175538729Y-104736552D01*
X175640186Y-104819814D01*
X175723448Y-104921271D01*
X175752778Y-104957009D01*
X175836443Y-105113534D01*
X175887963Y-105283373D01*
X175905359Y-105460000D01*
X175887963Y-105636627D01*
X175836443Y-105806466D01*
X175752778Y-105962991D01*
X175723448Y-105998729D01*
X175640186Y-106100186D01*
X175538729Y-106183448D01*
X175502991Y-106212778D01*
X175346466Y-106296443D01*
X175176627Y-106347963D01*
X175110443Y-106354481D01*
X175044260Y-106361000D01*
X174955740Y-106361000D01*
X174889557Y-106354481D01*
X174823373Y-106347963D01*
X174653534Y-106296443D01*
X174497009Y-106212778D01*
X174461271Y-106183448D01*
X174359814Y-106100186D01*
X174276552Y-105998729D01*
X174247222Y-105962991D01*
X174163557Y-105806466D01*
X174112037Y-105636627D01*
X174094641Y-105460000D01*
X174112037Y-105283373D01*
X174163557Y-105113534D01*
X174247222Y-104957009D01*
X174276552Y-104921271D01*
X174359814Y-104819814D01*
X174461271Y-104736552D01*
X174497009Y-104707222D01*
X174653534Y-104623557D01*
X174823373Y-104572037D01*
X174889558Y-104565518D01*
X174955740Y-104559000D01*
X175044260Y-104559000D01*
X175110442Y-104565518D01*
X175110442Y-104565518D01*
G37*
G36*
X110803057Y-91675059D02*
G01*
X111142547Y-91778042D01*
X111142549Y-91778043D01*
X111455423Y-91945277D01*
X111729661Y-92170339D01*
X111954723Y-92444578D01*
X112121957Y-92757450D01*
X112121958Y-92757452D01*
X112224941Y-93096942D01*
X112251000Y-93361525D01*
X112251000Y-102538475D01*
X112224941Y-102803058D01*
X112135888Y-103096627D01*
X112121957Y-103142550D01*
X111954723Y-103455422D01*
X111729661Y-103729661D01*
X111455422Y-103954723D01*
X111142550Y-104121957D01*
X111142548Y-104121958D01*
X110803058Y-104224941D01*
X110450000Y-104259714D01*
X110096943Y-104224941D01*
X109757453Y-104121958D01*
X109757451Y-104121957D01*
X109444579Y-103954723D01*
X109170340Y-103729661D01*
X108945278Y-103455422D01*
X108778044Y-103142550D01*
X108764113Y-103096627D01*
X108675060Y-102803058D01*
X108649001Y-102538475D01*
X108649000Y-93361526D01*
X108675059Y-93096943D01*
X108778042Y-92757453D01*
X108778044Y-92757450D01*
X108945277Y-92444577D01*
X109170339Y-92170339D01*
X109444578Y-91945277D01*
X109757450Y-91778043D01*
X109757452Y-91778042D01*
X110096942Y-91675059D01*
X110450000Y-91640286D01*
X110803057Y-91675059D01*
X110803057Y-91675059D01*
G37*
G36*
X175082963Y-102022812D02*
G01*
X175176627Y-102032037D01*
X175346466Y-102083557D01*
X175502991Y-102167222D01*
X175526825Y-102186782D01*
X175640186Y-102279814D01*
X175723448Y-102381271D01*
X175752778Y-102417009D01*
X175836443Y-102573534D01*
X175887963Y-102743373D01*
X175905359Y-102920000D01*
X175887963Y-103096627D01*
X175836443Y-103266466D01*
X175752778Y-103422991D01*
X175723448Y-103458729D01*
X175640186Y-103560186D01*
X175538729Y-103643448D01*
X175502991Y-103672778D01*
X175346466Y-103756443D01*
X175176627Y-103807963D01*
X175110443Y-103814481D01*
X175044260Y-103821000D01*
X174955740Y-103821000D01*
X174889557Y-103814481D01*
X174823373Y-103807963D01*
X174653534Y-103756443D01*
X174497009Y-103672778D01*
X174461271Y-103643448D01*
X174359814Y-103560186D01*
X174276552Y-103458729D01*
X174247222Y-103422991D01*
X174163557Y-103266466D01*
X174112037Y-103096627D01*
X174094641Y-102920000D01*
X174112037Y-102743373D01*
X174163557Y-102573534D01*
X174247222Y-102417009D01*
X174276552Y-102381271D01*
X174359814Y-102279814D01*
X174473175Y-102186782D01*
X174497009Y-102167222D01*
X174653534Y-102083557D01*
X174823373Y-102032037D01*
X174917037Y-102022812D01*
X174955740Y-102019000D01*
X175044260Y-102019000D01*
X175082963Y-102022812D01*
X175082963Y-102022812D01*
G37*
G36*
X168613512Y-100863927D02*
G01*
X168762812Y-100893624D01*
X168926784Y-100961544D01*
X169074354Y-101060147D01*
X169199853Y-101185646D01*
X169298456Y-101333216D01*
X169366376Y-101497188D01*
X169401000Y-101671259D01*
X169401000Y-101848741D01*
X169366376Y-102022812D01*
X169298456Y-102186784D01*
X169199853Y-102334354D01*
X169074354Y-102459853D01*
X168926784Y-102558456D01*
X168762812Y-102626376D01*
X168613512Y-102656073D01*
X168588742Y-102661000D01*
X168411258Y-102661000D01*
X168386488Y-102656073D01*
X168237188Y-102626376D01*
X168073216Y-102558456D01*
X167925646Y-102459853D01*
X167800147Y-102334354D01*
X167701544Y-102186784D01*
X167633624Y-102022812D01*
X167599000Y-101848741D01*
X167599000Y-101671259D01*
X167633624Y-101497188D01*
X167701544Y-101333216D01*
X167800147Y-101185646D01*
X167925646Y-101060147D01*
X168073216Y-100961544D01*
X168237188Y-100893624D01*
X168386488Y-100863927D01*
X168411258Y-100859000D01*
X168588742Y-100859000D01*
X168613512Y-100863927D01*
X168613512Y-100863927D01*
G37*
G36*
X175082963Y-99482812D02*
G01*
X175176627Y-99492037D01*
X175346466Y-99543557D01*
X175502991Y-99627222D01*
X175526825Y-99646782D01*
X175640186Y-99739814D01*
X175723448Y-99841271D01*
X175752778Y-99877009D01*
X175836443Y-100033534D01*
X175887963Y-100203373D01*
X175905359Y-100380000D01*
X175887963Y-100556627D01*
X175836443Y-100726466D01*
X175752778Y-100882991D01*
X175723448Y-100918729D01*
X175640186Y-101020186D01*
X175538729Y-101103448D01*
X175502991Y-101132778D01*
X175346466Y-101216443D01*
X175176627Y-101267963D01*
X175110442Y-101274482D01*
X175044260Y-101281000D01*
X174955740Y-101281000D01*
X174889558Y-101274482D01*
X174823373Y-101267963D01*
X174653534Y-101216443D01*
X174497009Y-101132778D01*
X174461271Y-101103448D01*
X174359814Y-101020186D01*
X174276552Y-100918729D01*
X174247222Y-100882991D01*
X174163557Y-100726466D01*
X174112037Y-100556627D01*
X174094641Y-100380000D01*
X174112037Y-100203373D01*
X174163557Y-100033534D01*
X174247222Y-99877009D01*
X174276552Y-99841271D01*
X174359814Y-99739814D01*
X174473175Y-99646782D01*
X174497009Y-99627222D01*
X174653534Y-99543557D01*
X174823373Y-99492037D01*
X174917037Y-99482812D01*
X174955740Y-99479000D01*
X175044260Y-99479000D01*
X175082963Y-99482812D01*
X175082963Y-99482812D01*
G37*
G36*
X168613512Y-98323927D02*
G01*
X168762812Y-98353624D01*
X168926784Y-98421544D01*
X169074354Y-98520147D01*
X169199853Y-98645646D01*
X169298456Y-98793216D01*
X169366376Y-98957188D01*
X169401000Y-99131259D01*
X169401000Y-99308741D01*
X169366376Y-99482812D01*
X169298456Y-99646784D01*
X169199853Y-99794354D01*
X169074354Y-99919853D01*
X168926784Y-100018456D01*
X168762812Y-100086376D01*
X168613512Y-100116073D01*
X168588742Y-100121000D01*
X168411258Y-100121000D01*
X168386488Y-100116073D01*
X168237188Y-100086376D01*
X168073216Y-100018456D01*
X167925646Y-99919853D01*
X167800147Y-99794354D01*
X167701544Y-99646784D01*
X167633624Y-99482812D01*
X167599000Y-99308741D01*
X167599000Y-99131259D01*
X167633624Y-98957188D01*
X167701544Y-98793216D01*
X167800147Y-98645646D01*
X167925646Y-98520147D01*
X168073216Y-98421544D01*
X168237188Y-98353624D01*
X168386488Y-98323927D01*
X168411258Y-98319000D01*
X168588742Y-98319000D01*
X168613512Y-98323927D01*
X168613512Y-98323927D01*
G37*
G36*
X175082963Y-96942812D02*
G01*
X175176627Y-96952037D01*
X175346466Y-97003557D01*
X175502991Y-97087222D01*
X175526825Y-97106782D01*
X175640186Y-97199814D01*
X175723448Y-97301271D01*
X175752778Y-97337009D01*
X175836443Y-97493534D01*
X175887963Y-97663373D01*
X175905359Y-97840000D01*
X175887963Y-98016627D01*
X175836443Y-98186466D01*
X175752778Y-98342991D01*
X175723448Y-98378729D01*
X175640186Y-98480186D01*
X175538729Y-98563448D01*
X175502991Y-98592778D01*
X175346466Y-98676443D01*
X175176627Y-98727963D01*
X175110442Y-98734482D01*
X175044260Y-98741000D01*
X174955740Y-98741000D01*
X174889557Y-98734481D01*
X174823373Y-98727963D01*
X174653534Y-98676443D01*
X174497009Y-98592778D01*
X174461271Y-98563448D01*
X174359814Y-98480186D01*
X174276552Y-98378729D01*
X174247222Y-98342991D01*
X174163557Y-98186466D01*
X174112037Y-98016627D01*
X174094641Y-97840000D01*
X174112037Y-97663373D01*
X174163557Y-97493534D01*
X174247222Y-97337009D01*
X174276552Y-97301271D01*
X174359814Y-97199814D01*
X174473175Y-97106782D01*
X174497009Y-97087222D01*
X174653534Y-97003557D01*
X174823373Y-96952037D01*
X174917037Y-96942812D01*
X174955740Y-96939000D01*
X175044260Y-96939000D01*
X175082963Y-96942812D01*
X175082963Y-96942812D01*
G37*
G36*
X168613512Y-95783927D02*
G01*
X168762812Y-95813624D01*
X168926784Y-95881544D01*
X169074354Y-95980147D01*
X169199853Y-96105646D01*
X169298456Y-96253216D01*
X169366376Y-96417188D01*
X169401000Y-96591259D01*
X169401000Y-96768741D01*
X169366376Y-96942812D01*
X169298456Y-97106784D01*
X169199853Y-97254354D01*
X169074354Y-97379853D01*
X168926784Y-97478456D01*
X168762812Y-97546376D01*
X168613512Y-97576073D01*
X168588742Y-97581000D01*
X168411258Y-97581000D01*
X168386488Y-97576073D01*
X168237188Y-97546376D01*
X168073216Y-97478456D01*
X167925646Y-97379853D01*
X167800147Y-97254354D01*
X167701544Y-97106784D01*
X167633624Y-96942812D01*
X167599000Y-96768741D01*
X167599000Y-96591259D01*
X167633624Y-96417188D01*
X167701544Y-96253216D01*
X167800147Y-96105646D01*
X167925646Y-95980147D01*
X168073216Y-95881544D01*
X168237188Y-95813624D01*
X168386488Y-95783927D01*
X168411258Y-95779000D01*
X168588742Y-95779000D01*
X168613512Y-95783927D01*
X168613512Y-95783927D01*
G37*
G36*
X175082963Y-94402812D02*
G01*
X175176627Y-94412037D01*
X175346466Y-94463557D01*
X175502991Y-94547222D01*
X175526825Y-94566782D01*
X175640186Y-94659814D01*
X175723448Y-94761271D01*
X175752778Y-94797009D01*
X175836443Y-94953534D01*
X175887963Y-95123373D01*
X175905359Y-95300000D01*
X175887963Y-95476627D01*
X175836443Y-95646466D01*
X175752778Y-95802991D01*
X175723448Y-95838729D01*
X175640186Y-95940186D01*
X175538729Y-96023448D01*
X175502991Y-96052778D01*
X175346466Y-96136443D01*
X175176627Y-96187963D01*
X175110442Y-96194482D01*
X175044260Y-96201000D01*
X174955740Y-96201000D01*
X174889558Y-96194482D01*
X174823373Y-96187963D01*
X174653534Y-96136443D01*
X174497009Y-96052778D01*
X174461271Y-96023448D01*
X174359814Y-95940186D01*
X174276552Y-95838729D01*
X174247222Y-95802991D01*
X174163557Y-95646466D01*
X174112037Y-95476627D01*
X174094641Y-95300000D01*
X174112037Y-95123373D01*
X174163557Y-94953534D01*
X174247222Y-94797009D01*
X174276552Y-94761271D01*
X174359814Y-94659814D01*
X174473175Y-94566782D01*
X174497009Y-94547222D01*
X174653534Y-94463557D01*
X174823373Y-94412037D01*
X174917037Y-94402812D01*
X174955740Y-94399000D01*
X175044260Y-94399000D01*
X175082963Y-94402812D01*
X175082963Y-94402812D01*
G37*
G36*
X168613512Y-93243927D02*
G01*
X168762812Y-93273624D01*
X168926784Y-93341544D01*
X169074354Y-93440147D01*
X169199853Y-93565646D01*
X169298456Y-93713216D01*
X169366376Y-93877188D01*
X169401000Y-94051259D01*
X169401000Y-94228741D01*
X169366376Y-94402812D01*
X169298456Y-94566784D01*
X169199853Y-94714354D01*
X169074354Y-94839853D01*
X168926784Y-94938456D01*
X168762812Y-95006376D01*
X168613512Y-95036073D01*
X168588742Y-95041000D01*
X168411258Y-95041000D01*
X168386488Y-95036073D01*
X168237188Y-95006376D01*
X168073216Y-94938456D01*
X167925646Y-94839853D01*
X167800147Y-94714354D01*
X167701544Y-94566784D01*
X167633624Y-94402812D01*
X167599000Y-94228741D01*
X167599000Y-94051259D01*
X167633624Y-93877188D01*
X167701544Y-93713216D01*
X167800147Y-93565646D01*
X167925646Y-93440147D01*
X168073216Y-93341544D01*
X168237188Y-93273624D01*
X168386488Y-93243927D01*
X168411258Y-93239000D01*
X168588742Y-93239000D01*
X168613512Y-93243927D01*
X168613512Y-93243927D01*
G37*
G36*
X175110443Y-91865519D02*
G01*
X175176627Y-91872037D01*
X175346466Y-91923557D01*
X175502991Y-92007222D01*
X175538729Y-92036552D01*
X175640186Y-92119814D01*
X175723448Y-92221271D01*
X175752778Y-92257009D01*
X175836443Y-92413534D01*
X175887963Y-92583373D01*
X175905359Y-92760000D01*
X175887963Y-92936627D01*
X175836443Y-93106466D01*
X175752778Y-93262991D01*
X175723448Y-93298729D01*
X175640186Y-93400186D01*
X175538729Y-93483448D01*
X175502991Y-93512778D01*
X175346466Y-93596443D01*
X175176627Y-93647963D01*
X175110443Y-93654481D01*
X175044260Y-93661000D01*
X174955740Y-93661000D01*
X174889557Y-93654481D01*
X174823373Y-93647963D01*
X174653534Y-93596443D01*
X174497009Y-93512778D01*
X174461271Y-93483448D01*
X174359814Y-93400186D01*
X174276552Y-93298729D01*
X174247222Y-93262991D01*
X174163557Y-93106466D01*
X174112037Y-92936627D01*
X174094641Y-92760000D01*
X174112037Y-92583373D01*
X174163557Y-92413534D01*
X174247222Y-92257009D01*
X174276552Y-92221271D01*
X174359814Y-92119814D01*
X174461271Y-92036552D01*
X174497009Y-92007222D01*
X174653534Y-91923557D01*
X174823373Y-91872037D01*
X174889557Y-91865519D01*
X174955740Y-91859000D01*
X175044260Y-91859000D01*
X175110443Y-91865519D01*
X175110443Y-91865519D01*
G37*
G36*
X175110443Y-89325519D02*
G01*
X175176627Y-89332037D01*
X175346466Y-89383557D01*
X175502991Y-89467222D01*
X175538729Y-89496552D01*
X175640186Y-89579814D01*
X175723448Y-89681271D01*
X175752778Y-89717009D01*
X175836443Y-89873534D01*
X175887963Y-90043373D01*
X175905359Y-90220000D01*
X175887963Y-90396627D01*
X175836443Y-90566466D01*
X175752778Y-90722991D01*
X175723448Y-90758729D01*
X175640186Y-90860186D01*
X175538729Y-90943448D01*
X175502991Y-90972778D01*
X175346466Y-91056443D01*
X175176627Y-91107963D01*
X175110442Y-91114482D01*
X175044260Y-91121000D01*
X174955740Y-91121000D01*
X174889557Y-91114481D01*
X174823373Y-91107963D01*
X174653534Y-91056443D01*
X174497009Y-90972778D01*
X174461271Y-90943448D01*
X174359814Y-90860186D01*
X174276552Y-90758729D01*
X174247222Y-90722991D01*
X174163557Y-90566466D01*
X174112037Y-90396627D01*
X174094641Y-90220000D01*
X174112037Y-90043373D01*
X174163557Y-89873534D01*
X174247222Y-89717009D01*
X174276552Y-89681271D01*
X174359814Y-89579814D01*
X174461271Y-89496552D01*
X174497009Y-89467222D01*
X174653534Y-89383557D01*
X174823373Y-89332037D01*
X174889557Y-89325519D01*
X174955740Y-89319000D01*
X175044260Y-89319000D01*
X175110443Y-89325519D01*
X175110443Y-89325519D01*
G37*
G36*
X175110443Y-86785519D02*
G01*
X175176627Y-86792037D01*
X175346466Y-86843557D01*
X175502991Y-86927222D01*
X175538729Y-86956552D01*
X175640186Y-87039814D01*
X175723448Y-87141271D01*
X175752778Y-87177009D01*
X175836443Y-87333534D01*
X175887963Y-87503373D01*
X175905359Y-87680000D01*
X175887963Y-87856627D01*
X175836443Y-88026466D01*
X175752778Y-88182991D01*
X175723448Y-88218729D01*
X175640186Y-88320186D01*
X175538729Y-88403448D01*
X175502991Y-88432778D01*
X175346466Y-88516443D01*
X175176627Y-88567963D01*
X175110443Y-88574481D01*
X175044260Y-88581000D01*
X174955740Y-88581000D01*
X174889557Y-88574481D01*
X174823373Y-88567963D01*
X174653534Y-88516443D01*
X174497009Y-88432778D01*
X174461271Y-88403448D01*
X174359814Y-88320186D01*
X174276552Y-88218729D01*
X174247222Y-88182991D01*
X174163557Y-88026466D01*
X174112037Y-87856627D01*
X174094641Y-87680000D01*
X174112037Y-87503373D01*
X174163557Y-87333534D01*
X174247222Y-87177009D01*
X174276552Y-87141271D01*
X174359814Y-87039814D01*
X174461271Y-86956552D01*
X174497009Y-86927222D01*
X174653534Y-86843557D01*
X174823373Y-86792037D01*
X174889557Y-86785519D01*
X174955740Y-86779000D01*
X175044260Y-86779000D01*
X175110443Y-86785519D01*
X175110443Y-86785519D01*
G37*
G36*
X175901000Y-86041000D02*
G01*
X174099000Y-86041000D01*
X174099000Y-84239000D01*
X175901000Y-84239000D01*
X175901000Y-86041000D01*
X175901000Y-86041000D01*
G37*
G36*
X167975256Y-80866298D02*
G01*
X168081579Y-80887447D01*
X168382042Y-81011903D01*
X168652451Y-81192585D01*
X168882415Y-81422549D01*
X169063097Y-81692958D01*
X169187553Y-81993421D01*
X169251000Y-82312391D01*
X169251000Y-82637609D01*
X169187553Y-82956579D01*
X169063097Y-83257042D01*
X168882415Y-83527451D01*
X168652451Y-83757415D01*
X168382042Y-83938097D01*
X168081579Y-84062553D01*
X167975256Y-84083702D01*
X167762611Y-84126000D01*
X167437389Y-84126000D01*
X167224744Y-84083702D01*
X167118421Y-84062553D01*
X166817958Y-83938097D01*
X166547549Y-83757415D01*
X166317585Y-83527451D01*
X166136903Y-83257042D01*
X166012447Y-82956579D01*
X165949000Y-82637609D01*
X165949000Y-82312391D01*
X166012447Y-81993421D01*
X166136903Y-81692958D01*
X166317585Y-81422549D01*
X166547549Y-81192585D01*
X166817958Y-81011903D01*
X167118421Y-80887447D01*
X167224744Y-80866298D01*
X167437389Y-80824000D01*
X167762611Y-80824000D01*
X167975256Y-80866298D01*
X167975256Y-80866298D01*
G37*
G36*
X139025256Y-80866298D02*
G01*
X139131579Y-80887447D01*
X139432042Y-81011903D01*
X139702451Y-81192585D01*
X139932415Y-81422549D01*
X140113097Y-81692958D01*
X140237553Y-81993421D01*
X140301000Y-82312391D01*
X140301000Y-82637609D01*
X140237553Y-82956579D01*
X140113097Y-83257042D01*
X139932415Y-83527451D01*
X139702451Y-83757415D01*
X139432042Y-83938097D01*
X139131579Y-84062553D01*
X139025256Y-84083702D01*
X138812611Y-84126000D01*
X138487389Y-84126000D01*
X138274744Y-84083702D01*
X138168421Y-84062553D01*
X137867958Y-83938097D01*
X137597549Y-83757415D01*
X137367585Y-83527451D01*
X137186903Y-83257042D01*
X137062447Y-82956579D01*
X136999000Y-82637609D01*
X136999000Y-82312391D01*
X137062447Y-81993421D01*
X137186903Y-81692958D01*
X137367585Y-81422549D01*
X137597549Y-81192585D01*
X137867958Y-81011903D01*
X138168421Y-80887447D01*
X138274744Y-80866298D01*
X138487389Y-80824000D01*
X138812611Y-80824000D01*
X139025256Y-80866298D01*
X139025256Y-80866298D01*
G37*
G36*
X110901000Y-78401000D02*
G01*
X109099000Y-78401000D01*
X109099000Y-76599000D01*
X110901000Y-76599000D01*
X110901000Y-78401000D01*
X110901000Y-78401000D01*
G37*
G36*
X120270442Y-76605518D02*
G01*
X120336627Y-76612037D01*
X120506466Y-76663557D01*
X120662991Y-76747222D01*
X120698729Y-76776552D01*
X120800186Y-76859814D01*
X120883448Y-76961271D01*
X120912778Y-76997009D01*
X120996443Y-77153534D01*
X121047963Y-77323373D01*
X121065359Y-77500000D01*
X121047963Y-77676627D01*
X120996443Y-77846466D01*
X120912778Y-78002991D01*
X120883448Y-78038729D01*
X120800186Y-78140186D01*
X120698729Y-78223448D01*
X120662991Y-78252778D01*
X120506466Y-78336443D01*
X120336627Y-78387963D01*
X120270443Y-78394481D01*
X120204260Y-78401000D01*
X120115740Y-78401000D01*
X120049557Y-78394481D01*
X119983373Y-78387963D01*
X119813534Y-78336443D01*
X119657009Y-78252778D01*
X119621271Y-78223448D01*
X119519814Y-78140186D01*
X119436552Y-78038729D01*
X119407222Y-78002991D01*
X119323557Y-77846466D01*
X119272037Y-77676627D01*
X119254641Y-77500000D01*
X119272037Y-77323373D01*
X119323557Y-77153534D01*
X119407222Y-76997009D01*
X119436552Y-76961271D01*
X119519814Y-76859814D01*
X119621271Y-76776552D01*
X119657009Y-76747222D01*
X119813534Y-76663557D01*
X119983373Y-76612037D01*
X120049558Y-76605518D01*
X120115740Y-76599000D01*
X120204260Y-76599000D01*
X120270442Y-76605518D01*
X120270442Y-76605518D01*
G37*
G36*
X122810442Y-76605518D02*
G01*
X122876627Y-76612037D01*
X123046466Y-76663557D01*
X123202991Y-76747222D01*
X123238729Y-76776552D01*
X123340186Y-76859814D01*
X123423448Y-76961271D01*
X123452778Y-76997009D01*
X123536443Y-77153534D01*
X123587963Y-77323373D01*
X123605359Y-77500000D01*
X123587963Y-77676627D01*
X123536443Y-77846466D01*
X123452778Y-78002991D01*
X123423448Y-78038729D01*
X123340186Y-78140186D01*
X123238729Y-78223448D01*
X123202991Y-78252778D01*
X123046466Y-78336443D01*
X122876627Y-78387963D01*
X122810443Y-78394481D01*
X122744260Y-78401000D01*
X122655740Y-78401000D01*
X122589557Y-78394481D01*
X122523373Y-78387963D01*
X122353534Y-78336443D01*
X122197009Y-78252778D01*
X122161271Y-78223448D01*
X122059814Y-78140186D01*
X121976552Y-78038729D01*
X121947222Y-78002991D01*
X121863557Y-77846466D01*
X121812037Y-77676627D01*
X121794641Y-77500000D01*
X121812037Y-77323373D01*
X121863557Y-77153534D01*
X121947222Y-76997009D01*
X121976552Y-76961271D01*
X122059814Y-76859814D01*
X122161271Y-76776552D01*
X122197009Y-76747222D01*
X122353534Y-76663557D01*
X122523373Y-76612037D01*
X122589558Y-76605518D01*
X122655740Y-76599000D01*
X122744260Y-76599000D01*
X122810442Y-76605518D01*
X122810442Y-76605518D01*
G37*
G36*
X125350442Y-76605518D02*
G01*
X125416627Y-76612037D01*
X125586466Y-76663557D01*
X125742991Y-76747222D01*
X125778729Y-76776552D01*
X125880186Y-76859814D01*
X125963448Y-76961271D01*
X125992778Y-76997009D01*
X126076443Y-77153534D01*
X126127963Y-77323373D01*
X126145359Y-77500000D01*
X126127963Y-77676627D01*
X126076443Y-77846466D01*
X125992778Y-78002991D01*
X125963448Y-78038729D01*
X125880186Y-78140186D01*
X125778729Y-78223448D01*
X125742991Y-78252778D01*
X125586466Y-78336443D01*
X125416627Y-78387963D01*
X125350443Y-78394481D01*
X125284260Y-78401000D01*
X125195740Y-78401000D01*
X125129557Y-78394481D01*
X125063373Y-78387963D01*
X124893534Y-78336443D01*
X124737009Y-78252778D01*
X124701271Y-78223448D01*
X124599814Y-78140186D01*
X124516552Y-78038729D01*
X124487222Y-78002991D01*
X124403557Y-77846466D01*
X124352037Y-77676627D01*
X124334641Y-77500000D01*
X124352037Y-77323373D01*
X124403557Y-77153534D01*
X124487222Y-76997009D01*
X124516552Y-76961271D01*
X124599814Y-76859814D01*
X124701271Y-76776552D01*
X124737009Y-76747222D01*
X124893534Y-76663557D01*
X125063373Y-76612037D01*
X125129558Y-76605518D01*
X125195740Y-76599000D01*
X125284260Y-76599000D01*
X125350442Y-76605518D01*
X125350442Y-76605518D01*
G37*
G36*
X117730442Y-76605518D02*
G01*
X117796627Y-76612037D01*
X117966466Y-76663557D01*
X118122991Y-76747222D01*
X118158729Y-76776552D01*
X118260186Y-76859814D01*
X118343448Y-76961271D01*
X118372778Y-76997009D01*
X118456443Y-77153534D01*
X118507963Y-77323373D01*
X118525359Y-77500000D01*
X118507963Y-77676627D01*
X118456443Y-77846466D01*
X118372778Y-78002991D01*
X118343448Y-78038729D01*
X118260186Y-78140186D01*
X118158729Y-78223448D01*
X118122991Y-78252778D01*
X117966466Y-78336443D01*
X117796627Y-78387963D01*
X117730443Y-78394481D01*
X117664260Y-78401000D01*
X117575740Y-78401000D01*
X117509557Y-78394481D01*
X117443373Y-78387963D01*
X117273534Y-78336443D01*
X117117009Y-78252778D01*
X117081271Y-78223448D01*
X116979814Y-78140186D01*
X116896552Y-78038729D01*
X116867222Y-78002991D01*
X116783557Y-77846466D01*
X116732037Y-77676627D01*
X116714641Y-77500000D01*
X116732037Y-77323373D01*
X116783557Y-77153534D01*
X116867222Y-76997009D01*
X116896552Y-76961271D01*
X116979814Y-76859814D01*
X117081271Y-76776552D01*
X117117009Y-76747222D01*
X117273534Y-76663557D01*
X117443373Y-76612037D01*
X117509558Y-76605518D01*
X117575740Y-76599000D01*
X117664260Y-76599000D01*
X117730442Y-76605518D01*
X117730442Y-76605518D01*
G37*
G36*
X115190442Y-76605518D02*
G01*
X115256627Y-76612037D01*
X115426466Y-76663557D01*
X115582991Y-76747222D01*
X115618729Y-76776552D01*
X115720186Y-76859814D01*
X115803448Y-76961271D01*
X115832778Y-76997009D01*
X115916443Y-77153534D01*
X115967963Y-77323373D01*
X115985359Y-77500000D01*
X115967963Y-77676627D01*
X115916443Y-77846466D01*
X115832778Y-78002991D01*
X115803448Y-78038729D01*
X115720186Y-78140186D01*
X115618729Y-78223448D01*
X115582991Y-78252778D01*
X115426466Y-78336443D01*
X115256627Y-78387963D01*
X115190443Y-78394481D01*
X115124260Y-78401000D01*
X115035740Y-78401000D01*
X114969557Y-78394481D01*
X114903373Y-78387963D01*
X114733534Y-78336443D01*
X114577009Y-78252778D01*
X114541271Y-78223448D01*
X114439814Y-78140186D01*
X114356552Y-78038729D01*
X114327222Y-78002991D01*
X114243557Y-77846466D01*
X114192037Y-77676627D01*
X114174641Y-77500000D01*
X114192037Y-77323373D01*
X114243557Y-77153534D01*
X114327222Y-76997009D01*
X114356552Y-76961271D01*
X114439814Y-76859814D01*
X114541271Y-76776552D01*
X114577009Y-76747222D01*
X114733534Y-76663557D01*
X114903373Y-76612037D01*
X114969558Y-76605518D01*
X115035740Y-76599000D01*
X115124260Y-76599000D01*
X115190442Y-76605518D01*
X115190442Y-76605518D01*
G37*
G36*
X112650442Y-76605518D02*
G01*
X112716627Y-76612037D01*
X112886466Y-76663557D01*
X113042991Y-76747222D01*
X113078729Y-76776552D01*
X113180186Y-76859814D01*
X113263448Y-76961271D01*
X113292778Y-76997009D01*
X113376443Y-77153534D01*
X113427963Y-77323373D01*
X113445359Y-77500000D01*
X113427963Y-77676627D01*
X113376443Y-77846466D01*
X113292778Y-78002991D01*
X113263448Y-78038729D01*
X113180186Y-78140186D01*
X113078729Y-78223448D01*
X113042991Y-78252778D01*
X112886466Y-78336443D01*
X112716627Y-78387963D01*
X112650443Y-78394481D01*
X112584260Y-78401000D01*
X112495740Y-78401000D01*
X112429557Y-78394481D01*
X112363373Y-78387963D01*
X112193534Y-78336443D01*
X112037009Y-78252778D01*
X112001271Y-78223448D01*
X111899814Y-78140186D01*
X111816552Y-78038729D01*
X111787222Y-78002991D01*
X111703557Y-77846466D01*
X111652037Y-77676627D01*
X111634641Y-77500000D01*
X111652037Y-77323373D01*
X111703557Y-77153534D01*
X111787222Y-76997009D01*
X111816552Y-76961271D01*
X111899814Y-76859814D01*
X112001271Y-76776552D01*
X112037009Y-76747222D01*
X112193534Y-76663557D01*
X112363373Y-76612037D01*
X112429558Y-76605518D01*
X112495740Y-76599000D01*
X112584260Y-76599000D01*
X112650442Y-76605518D01*
X112650442Y-76605518D01*
G37*
G36*
X125350443Y-74065519D02*
G01*
X125416627Y-74072037D01*
X125586466Y-74123557D01*
X125742991Y-74207222D01*
X125778729Y-74236552D01*
X125880186Y-74319814D01*
X125963448Y-74421271D01*
X125992778Y-74457009D01*
X126076443Y-74613534D01*
X126127963Y-74783373D01*
X126145359Y-74960000D01*
X126127963Y-75136627D01*
X126076443Y-75306466D01*
X125992778Y-75462991D01*
X125963448Y-75498729D01*
X125880186Y-75600186D01*
X125778729Y-75683448D01*
X125742991Y-75712778D01*
X125586466Y-75796443D01*
X125416627Y-75847963D01*
X125350442Y-75854482D01*
X125284260Y-75861000D01*
X125195740Y-75861000D01*
X125129558Y-75854482D01*
X125063373Y-75847963D01*
X124893534Y-75796443D01*
X124737009Y-75712778D01*
X124701271Y-75683448D01*
X124599814Y-75600186D01*
X124516552Y-75498729D01*
X124487222Y-75462991D01*
X124403557Y-75306466D01*
X124352037Y-75136627D01*
X124334641Y-74960000D01*
X124352037Y-74783373D01*
X124403557Y-74613534D01*
X124487222Y-74457009D01*
X124516552Y-74421271D01*
X124599814Y-74319814D01*
X124701271Y-74236552D01*
X124737009Y-74207222D01*
X124893534Y-74123557D01*
X125063373Y-74072037D01*
X125129557Y-74065519D01*
X125195740Y-74059000D01*
X125284260Y-74059000D01*
X125350443Y-74065519D01*
X125350443Y-74065519D01*
G37*
G36*
X122810443Y-74065519D02*
G01*
X122876627Y-74072037D01*
X123046466Y-74123557D01*
X123202991Y-74207222D01*
X123238729Y-74236552D01*
X123340186Y-74319814D01*
X123423448Y-74421271D01*
X123452778Y-74457009D01*
X123536443Y-74613534D01*
X123587963Y-74783373D01*
X123605359Y-74960000D01*
X123587963Y-75136627D01*
X123536443Y-75306466D01*
X123452778Y-75462991D01*
X123423448Y-75498729D01*
X123340186Y-75600186D01*
X123238729Y-75683448D01*
X123202991Y-75712778D01*
X123046466Y-75796443D01*
X122876627Y-75847963D01*
X122810442Y-75854482D01*
X122744260Y-75861000D01*
X122655740Y-75861000D01*
X122589558Y-75854482D01*
X122523373Y-75847963D01*
X122353534Y-75796443D01*
X122197009Y-75712778D01*
X122161271Y-75683448D01*
X122059814Y-75600186D01*
X121976552Y-75498729D01*
X121947222Y-75462991D01*
X121863557Y-75306466D01*
X121812037Y-75136627D01*
X121794641Y-74960000D01*
X121812037Y-74783373D01*
X121863557Y-74613534D01*
X121947222Y-74457009D01*
X121976552Y-74421271D01*
X122059814Y-74319814D01*
X122161271Y-74236552D01*
X122197009Y-74207222D01*
X122353534Y-74123557D01*
X122523373Y-74072037D01*
X122589557Y-74065519D01*
X122655740Y-74059000D01*
X122744260Y-74059000D01*
X122810443Y-74065519D01*
X122810443Y-74065519D01*
G37*
G36*
X120270443Y-74065519D02*
G01*
X120336627Y-74072037D01*
X120506466Y-74123557D01*
X120662991Y-74207222D01*
X120698729Y-74236552D01*
X120800186Y-74319814D01*
X120883448Y-74421271D01*
X120912778Y-74457009D01*
X120996443Y-74613534D01*
X121047963Y-74783373D01*
X121065359Y-74960000D01*
X121047963Y-75136627D01*
X120996443Y-75306466D01*
X120912778Y-75462991D01*
X120883448Y-75498729D01*
X120800186Y-75600186D01*
X120698729Y-75683448D01*
X120662991Y-75712778D01*
X120506466Y-75796443D01*
X120336627Y-75847963D01*
X120270442Y-75854482D01*
X120204260Y-75861000D01*
X120115740Y-75861000D01*
X120049558Y-75854482D01*
X119983373Y-75847963D01*
X119813534Y-75796443D01*
X119657009Y-75712778D01*
X119621271Y-75683448D01*
X119519814Y-75600186D01*
X119436552Y-75498729D01*
X119407222Y-75462991D01*
X119323557Y-75306466D01*
X119272037Y-75136627D01*
X119254641Y-74960000D01*
X119272037Y-74783373D01*
X119323557Y-74613534D01*
X119407222Y-74457009D01*
X119436552Y-74421271D01*
X119519814Y-74319814D01*
X119621271Y-74236552D01*
X119657009Y-74207222D01*
X119813534Y-74123557D01*
X119983373Y-74072037D01*
X120049557Y-74065519D01*
X120115740Y-74059000D01*
X120204260Y-74059000D01*
X120270443Y-74065519D01*
X120270443Y-74065519D01*
G37*
G36*
X117730443Y-74065519D02*
G01*
X117796627Y-74072037D01*
X117966466Y-74123557D01*
X118122991Y-74207222D01*
X118158729Y-74236552D01*
X118260186Y-74319814D01*
X118343448Y-74421271D01*
X118372778Y-74457009D01*
X118456443Y-74613534D01*
X118507963Y-74783373D01*
X118525359Y-74960000D01*
X118507963Y-75136627D01*
X118456443Y-75306466D01*
X118372778Y-75462991D01*
X118343448Y-75498729D01*
X118260186Y-75600186D01*
X118158729Y-75683448D01*
X118122991Y-75712778D01*
X117966466Y-75796443D01*
X117796627Y-75847963D01*
X117730442Y-75854482D01*
X117664260Y-75861000D01*
X117575740Y-75861000D01*
X117509558Y-75854482D01*
X117443373Y-75847963D01*
X117273534Y-75796443D01*
X117117009Y-75712778D01*
X117081271Y-75683448D01*
X116979814Y-75600186D01*
X116896552Y-75498729D01*
X116867222Y-75462991D01*
X116783557Y-75306466D01*
X116732037Y-75136627D01*
X116714641Y-74960000D01*
X116732037Y-74783373D01*
X116783557Y-74613534D01*
X116867222Y-74457009D01*
X116896552Y-74421271D01*
X116979814Y-74319814D01*
X117081271Y-74236552D01*
X117117009Y-74207222D01*
X117273534Y-74123557D01*
X117443373Y-74072037D01*
X117509557Y-74065519D01*
X117575740Y-74059000D01*
X117664260Y-74059000D01*
X117730443Y-74065519D01*
X117730443Y-74065519D01*
G37*
G36*
X115190443Y-74065519D02*
G01*
X115256627Y-74072037D01*
X115426466Y-74123557D01*
X115582991Y-74207222D01*
X115618729Y-74236552D01*
X115720186Y-74319814D01*
X115803448Y-74421271D01*
X115832778Y-74457009D01*
X115916443Y-74613534D01*
X115967963Y-74783373D01*
X115985359Y-74960000D01*
X115967963Y-75136627D01*
X115916443Y-75306466D01*
X115832778Y-75462991D01*
X115803448Y-75498729D01*
X115720186Y-75600186D01*
X115618729Y-75683448D01*
X115582991Y-75712778D01*
X115426466Y-75796443D01*
X115256627Y-75847963D01*
X115190442Y-75854482D01*
X115124260Y-75861000D01*
X115035740Y-75861000D01*
X114969558Y-75854482D01*
X114903373Y-75847963D01*
X114733534Y-75796443D01*
X114577009Y-75712778D01*
X114541271Y-75683448D01*
X114439814Y-75600186D01*
X114356552Y-75498729D01*
X114327222Y-75462991D01*
X114243557Y-75306466D01*
X114192037Y-75136627D01*
X114174641Y-74960000D01*
X114192037Y-74783373D01*
X114243557Y-74613534D01*
X114327222Y-74457009D01*
X114356552Y-74421271D01*
X114439814Y-74319814D01*
X114541271Y-74236552D01*
X114577009Y-74207222D01*
X114733534Y-74123557D01*
X114903373Y-74072037D01*
X114969557Y-74065519D01*
X115035740Y-74059000D01*
X115124260Y-74059000D01*
X115190443Y-74065519D01*
X115190443Y-74065519D01*
G37*
G36*
X112650443Y-74065519D02*
G01*
X112716627Y-74072037D01*
X112886466Y-74123557D01*
X113042991Y-74207222D01*
X113078729Y-74236552D01*
X113180186Y-74319814D01*
X113263448Y-74421271D01*
X113292778Y-74457009D01*
X113376443Y-74613534D01*
X113427963Y-74783373D01*
X113445359Y-74960000D01*
X113427963Y-75136627D01*
X113376443Y-75306466D01*
X113292778Y-75462991D01*
X113263448Y-75498729D01*
X113180186Y-75600186D01*
X113078729Y-75683448D01*
X113042991Y-75712778D01*
X112886466Y-75796443D01*
X112716627Y-75847963D01*
X112650442Y-75854482D01*
X112584260Y-75861000D01*
X112495740Y-75861000D01*
X112429558Y-75854482D01*
X112363373Y-75847963D01*
X112193534Y-75796443D01*
X112037009Y-75712778D01*
X112001271Y-75683448D01*
X111899814Y-75600186D01*
X111816552Y-75498729D01*
X111787222Y-75462991D01*
X111703557Y-75306466D01*
X111652037Y-75136627D01*
X111634641Y-74960000D01*
X111652037Y-74783373D01*
X111703557Y-74613534D01*
X111787222Y-74457009D01*
X111816552Y-74421271D01*
X111899814Y-74319814D01*
X112001271Y-74236552D01*
X112037009Y-74207222D01*
X112193534Y-74123557D01*
X112363373Y-74072037D01*
X112429557Y-74065519D01*
X112495740Y-74059000D01*
X112584260Y-74059000D01*
X112650443Y-74065519D01*
X112650443Y-74065519D01*
G37*
G36*
X110110443Y-74065519D02*
G01*
X110176627Y-74072037D01*
X110346466Y-74123557D01*
X110502991Y-74207222D01*
X110538729Y-74236552D01*
X110640186Y-74319814D01*
X110723448Y-74421271D01*
X110752778Y-74457009D01*
X110836443Y-74613534D01*
X110887963Y-74783373D01*
X110905359Y-74960000D01*
X110887963Y-75136627D01*
X110836443Y-75306466D01*
X110752778Y-75462991D01*
X110723448Y-75498729D01*
X110640186Y-75600186D01*
X110538729Y-75683448D01*
X110502991Y-75712778D01*
X110346466Y-75796443D01*
X110176627Y-75847963D01*
X110110442Y-75854482D01*
X110044260Y-75861000D01*
X109955740Y-75861000D01*
X109889558Y-75854482D01*
X109823373Y-75847963D01*
X109653534Y-75796443D01*
X109497009Y-75712778D01*
X109461271Y-75683448D01*
X109359814Y-75600186D01*
X109276552Y-75498729D01*
X109247222Y-75462991D01*
X109163557Y-75306466D01*
X109112037Y-75136627D01*
X109094641Y-74960000D01*
X109112037Y-74783373D01*
X109163557Y-74613534D01*
X109247222Y-74457009D01*
X109276552Y-74421271D01*
X109359814Y-74319814D01*
X109461271Y-74236552D01*
X109497009Y-74207222D01*
X109653534Y-74123557D01*
X109823373Y-74072037D01*
X109889557Y-74065519D01*
X109955740Y-74059000D01*
X110044260Y-74059000D01*
X110110443Y-74065519D01*
X110110443Y-74065519D01*
G37*
M02*
