M48
; DRILL file {KiCad (5.1.0)} date Fri 19 Apr 2019 11:09:42 AM CEST
; FORMAT={-:-/ absolute / inch / decimal}
; #@! TF.CreationDate,2019-04-19T11:09:42+02:00
; #@! TF.GenerationSoftware,Kicad,Pcbnew,(5.1.0)
; #@! TF.FileFunction,Plated,1,2,PTH
FMAT,2
INCH
T1C0.0157
T2C0.0197
T3C0.0394
T4C0.0400
%
G90
G05
T1
X4.4035Y-4.7067
X4.5945Y-4.5551
X4.6722Y-4.5089
X4.7559Y-4.5748
X4.7559Y-4.7087
X4.8159Y-4.2224
X5.0443Y-4.0453
X5.1142Y-4.1112
X5.1929Y-3.9419
X5.247Y-3.8809
X5.25Y-4.0413
X5.2559Y-4.5236
X5.2835Y-4.561
X5.2933Y-4.0427
X5.2953Y-3.126
X5.3179Y-3.8858
X5.3268Y-3.1594
X5.3712Y-4.1642
X5.376Y-3.7559
X5.3895Y-4.2932
X5.3895Y-4.3326
X5.3976Y-3.3996
X5.4094Y-3.6142
X5.4213Y-4.1043
X5.4271Y-3.4961
X5.4577Y-3.9459
X5.4626Y-3.7106
X5.4783Y-3.439
X5.4803Y-4.192
X5.4803Y-4.2343
X5.4823Y-3.5237
X5.498Y-3.0886
X5.5079Y-3.4075
X5.5148Y-3.7579
X5.5295Y-3.1201
X5.5394Y-3.9961
X5.5748Y-3.7106
X5.5817Y-4.1043
X5.5856Y-3.8415
X5.5876Y-3.9301
X5.5886Y-3.8858
X5.592Y-3.6242
X5.5938Y-4.3101
X5.6024Y-4.063
X5.6216Y-4.3379
X5.6281Y-3.5358
X5.6282Y-3.4806
X5.6573Y-3.4515
X5.6594Y-4.1811
X5.6772Y-4.0866
X5.6892Y-3.4196
X5.6919Y-4.2372
X5.6929Y-4.2795
X5.6988Y-4.1929
X5.7125Y-3.4528
X5.7283Y-3.0512
X5.7283Y-3.6516
X5.7283Y-3.8189
X5.7308Y-3.3778
X5.752Y-3.9764
X5.7711Y-4.4041
X5.7748Y-4.063
X5.8022Y-4.435
X5.8122Y-3.74
X5.8228Y-3.5079
X5.8533Y-3.9803
X5.8543Y-4.1339
X5.8819Y-4.3642
X5.8957Y-3.6516
X5.8957Y-3.8189
X5.9528Y-3.1417
X5.9528Y-3.3868
X5.9608Y-3.5169
X5.9626Y-4.0866
X5.9754Y-3.9764
X6.0059Y-3.9449
X6.0128Y-3.2825
X6.0256Y-3.375
X6.0315Y-3.6711
X6.0315Y-3.7382
X6.0315Y-3.7795
X6.0344Y-3.5778
X6.0354Y-3.4232
X6.0728Y-3.5472
X6.0886Y-3.4311
X6.1033Y-3.5876
X6.1122Y-3.3819
X6.1831Y-3.3721
X6.2008Y-3.9695
X6.2156Y-3.5167
X6.2156Y-3.7343
X6.2185Y-4.1516
X6.3031Y-3.7795
X6.3484Y-3.0079
X6.3642Y-3.563
X6.4094Y-4.1181
X6.4281Y-3.1752
X6.7244Y-3.3524
T3
X6.6339Y-3.7063
X6.6339Y-3.8063
X6.6339Y-3.9063
X6.6339Y-4.0063
X6.8898Y-3.352
X6.8898Y-3.452
X6.8898Y-3.552
X6.8898Y-3.652
X6.8898Y-3.752
X6.8898Y-3.852
X6.8898Y-3.952
X6.8898Y-4.052
X6.8898Y-4.152
X6.8898Y-4.252
X6.8898Y-4.352
X4.3307Y-2.9512
X4.3307Y-3.0512
X4.4307Y-2.9512
X4.4307Y-3.0512
X4.5307Y-2.9512
X4.5307Y-3.0512
X4.6307Y-2.9512
X4.6307Y-3.0512
X4.7307Y-2.9512
X4.7307Y-3.0512
X4.8307Y-2.9512
X4.8307Y-3.0512
X4.9307Y-2.9512
X4.9307Y-3.0512
T4
X5.537Y-4.7106
X5.537Y-4.8106
X5.637Y-4.7106
X5.637Y-4.8106
X5.737Y-4.7106
X5.737Y-4.8106
X5.837Y-4.7106
X5.837Y-4.8106
X5.937Y-4.7106
X5.937Y-4.8106
X6.037Y-4.7106
X6.037Y-4.8106
X6.137Y-4.7106
X6.137Y-4.8106
X6.237Y-4.7106
X6.237Y-4.8106
X6.337Y-4.7106
X6.337Y-4.8106
X6.437Y-4.7106
X6.437Y-4.8106
T2
G00X4.2476Y-4.5257
M15
G01X4.2201Y-4.5257
M16
G05
G00X4.2201Y-4.7856
M15
G01X4.2476Y-4.7856
M16
G05
T0
M30
