G04 #@! TF.GenerationSoftware,KiCad,Pcbnew,(5.1.0)*
G04 #@! TF.CreationDate,2019-04-19T11:09:27+02:00*
G04 #@! TF.ProjectId,kicon19-badge,6b69636f-6e31-4392-9d62-616467652e6b,rev?*
G04 #@! TF.SameCoordinates,Original*
G04 #@! TF.FileFunction,Paste,Top*
G04 #@! TF.FilePolarity,Positive*
%FSLAX46Y46*%
G04 Gerber Fmt 4.6, Leading zero omitted, Abs format (unit mm)*
G04 Created by KiCad (PCBNEW (5.1.0)) date 2019-04-19 11:09:27*
%MOMM*%
%LPD*%
G04 APERTURE LIST*
%ADD10C,0.100000*%
%ADD11C,0.875000*%
%ADD12R,1.550000X1.300000*%
%ADD13R,1.300000X1.550000*%
%ADD14C,1.000000*%
%ADD15C,0.975000*%
%ADD16R,0.450000X1.450000*%
%ADD17R,4.500000X2.000000*%
%ADD18R,1.190000X1.190000*%
%ADD19O,0.300000X0.800000*%
%ADD20O,0.800000X0.300000*%
%ADD21R,0.650000X1.220000*%
%ADD22R,1.700000X1.900000*%
%ADD23R,1.400000X1.600000*%
%ADD24R,1.350000X0.400000*%
G04 APERTURE END LIST*
D10*
G36*
X166277691Y-97576053D02*
G01*
X166298926Y-97579203D01*
X166319750Y-97584419D01*
X166339962Y-97591651D01*
X166359368Y-97600830D01*
X166377781Y-97611866D01*
X166395024Y-97624654D01*
X166410930Y-97639070D01*
X166425346Y-97654976D01*
X166438134Y-97672219D01*
X166449170Y-97690632D01*
X166458349Y-97710038D01*
X166465581Y-97730250D01*
X166470797Y-97751074D01*
X166473947Y-97772309D01*
X166475000Y-97793750D01*
X166475000Y-98231250D01*
X166473947Y-98252691D01*
X166470797Y-98273926D01*
X166465581Y-98294750D01*
X166458349Y-98314962D01*
X166449170Y-98334368D01*
X166438134Y-98352781D01*
X166425346Y-98370024D01*
X166410930Y-98385930D01*
X166395024Y-98400346D01*
X166377781Y-98413134D01*
X166359368Y-98424170D01*
X166339962Y-98433349D01*
X166319750Y-98440581D01*
X166298926Y-98445797D01*
X166277691Y-98448947D01*
X166256250Y-98450000D01*
X165743750Y-98450000D01*
X165722309Y-98448947D01*
X165701074Y-98445797D01*
X165680250Y-98440581D01*
X165660038Y-98433349D01*
X165640632Y-98424170D01*
X165622219Y-98413134D01*
X165604976Y-98400346D01*
X165589070Y-98385930D01*
X165574654Y-98370024D01*
X165561866Y-98352781D01*
X165550830Y-98334368D01*
X165541651Y-98314962D01*
X165534419Y-98294750D01*
X165529203Y-98273926D01*
X165526053Y-98252691D01*
X165525000Y-98231250D01*
X165525000Y-97793750D01*
X165526053Y-97772309D01*
X165529203Y-97751074D01*
X165534419Y-97730250D01*
X165541651Y-97710038D01*
X165550830Y-97690632D01*
X165561866Y-97672219D01*
X165574654Y-97654976D01*
X165589070Y-97639070D01*
X165604976Y-97624654D01*
X165622219Y-97611866D01*
X165640632Y-97600830D01*
X165660038Y-97591651D01*
X165680250Y-97584419D01*
X165701074Y-97579203D01*
X165722309Y-97576053D01*
X165743750Y-97575000D01*
X166256250Y-97575000D01*
X166277691Y-97576053D01*
X166277691Y-97576053D01*
G37*
D11*
X166000000Y-98012500D03*
D10*
G36*
X166277691Y-99151053D02*
G01*
X166298926Y-99154203D01*
X166319750Y-99159419D01*
X166339962Y-99166651D01*
X166359368Y-99175830D01*
X166377781Y-99186866D01*
X166395024Y-99199654D01*
X166410930Y-99214070D01*
X166425346Y-99229976D01*
X166438134Y-99247219D01*
X166449170Y-99265632D01*
X166458349Y-99285038D01*
X166465581Y-99305250D01*
X166470797Y-99326074D01*
X166473947Y-99347309D01*
X166475000Y-99368750D01*
X166475000Y-99806250D01*
X166473947Y-99827691D01*
X166470797Y-99848926D01*
X166465581Y-99869750D01*
X166458349Y-99889962D01*
X166449170Y-99909368D01*
X166438134Y-99927781D01*
X166425346Y-99945024D01*
X166410930Y-99960930D01*
X166395024Y-99975346D01*
X166377781Y-99988134D01*
X166359368Y-99999170D01*
X166339962Y-100008349D01*
X166319750Y-100015581D01*
X166298926Y-100020797D01*
X166277691Y-100023947D01*
X166256250Y-100025000D01*
X165743750Y-100025000D01*
X165722309Y-100023947D01*
X165701074Y-100020797D01*
X165680250Y-100015581D01*
X165660038Y-100008349D01*
X165640632Y-99999170D01*
X165622219Y-99988134D01*
X165604976Y-99975346D01*
X165589070Y-99960930D01*
X165574654Y-99945024D01*
X165561866Y-99927781D01*
X165550830Y-99909368D01*
X165541651Y-99889962D01*
X165534419Y-99869750D01*
X165529203Y-99848926D01*
X165526053Y-99827691D01*
X165525000Y-99806250D01*
X165525000Y-99368750D01*
X165526053Y-99347309D01*
X165529203Y-99326074D01*
X165534419Y-99305250D01*
X165541651Y-99285038D01*
X165550830Y-99265632D01*
X165561866Y-99247219D01*
X165574654Y-99229976D01*
X165589070Y-99214070D01*
X165604976Y-99199654D01*
X165622219Y-99186866D01*
X165640632Y-99175830D01*
X165660038Y-99166651D01*
X165680250Y-99159419D01*
X165701074Y-99154203D01*
X165722309Y-99151053D01*
X165743750Y-99150000D01*
X166256250Y-99150000D01*
X166277691Y-99151053D01*
X166277691Y-99151053D01*
G37*
D11*
X166000000Y-99587500D03*
D10*
G36*
X164727691Y-100088553D02*
G01*
X164748926Y-100091703D01*
X164769750Y-100096919D01*
X164789962Y-100104151D01*
X164809368Y-100113330D01*
X164827781Y-100124366D01*
X164845024Y-100137154D01*
X164860930Y-100151570D01*
X164875346Y-100167476D01*
X164888134Y-100184719D01*
X164899170Y-100203132D01*
X164908349Y-100222538D01*
X164915581Y-100242750D01*
X164920797Y-100263574D01*
X164923947Y-100284809D01*
X164925000Y-100306250D01*
X164925000Y-100743750D01*
X164923947Y-100765191D01*
X164920797Y-100786426D01*
X164915581Y-100807250D01*
X164908349Y-100827462D01*
X164899170Y-100846868D01*
X164888134Y-100865281D01*
X164875346Y-100882524D01*
X164860930Y-100898430D01*
X164845024Y-100912846D01*
X164827781Y-100925634D01*
X164809368Y-100936670D01*
X164789962Y-100945849D01*
X164769750Y-100953081D01*
X164748926Y-100958297D01*
X164727691Y-100961447D01*
X164706250Y-100962500D01*
X164193750Y-100962500D01*
X164172309Y-100961447D01*
X164151074Y-100958297D01*
X164130250Y-100953081D01*
X164110038Y-100945849D01*
X164090632Y-100936670D01*
X164072219Y-100925634D01*
X164054976Y-100912846D01*
X164039070Y-100898430D01*
X164024654Y-100882524D01*
X164011866Y-100865281D01*
X164000830Y-100846868D01*
X163991651Y-100827462D01*
X163984419Y-100807250D01*
X163979203Y-100786426D01*
X163976053Y-100765191D01*
X163975000Y-100743750D01*
X163975000Y-100306250D01*
X163976053Y-100284809D01*
X163979203Y-100263574D01*
X163984419Y-100242750D01*
X163991651Y-100222538D01*
X164000830Y-100203132D01*
X164011866Y-100184719D01*
X164024654Y-100167476D01*
X164039070Y-100151570D01*
X164054976Y-100137154D01*
X164072219Y-100124366D01*
X164090632Y-100113330D01*
X164110038Y-100104151D01*
X164130250Y-100096919D01*
X164151074Y-100091703D01*
X164172309Y-100088553D01*
X164193750Y-100087500D01*
X164706250Y-100087500D01*
X164727691Y-100088553D01*
X164727691Y-100088553D01*
G37*
D11*
X164450000Y-100525000D03*
D10*
G36*
X164727691Y-101663553D02*
G01*
X164748926Y-101666703D01*
X164769750Y-101671919D01*
X164789962Y-101679151D01*
X164809368Y-101688330D01*
X164827781Y-101699366D01*
X164845024Y-101712154D01*
X164860930Y-101726570D01*
X164875346Y-101742476D01*
X164888134Y-101759719D01*
X164899170Y-101778132D01*
X164908349Y-101797538D01*
X164915581Y-101817750D01*
X164920797Y-101838574D01*
X164923947Y-101859809D01*
X164925000Y-101881250D01*
X164925000Y-102318750D01*
X164923947Y-102340191D01*
X164920797Y-102361426D01*
X164915581Y-102382250D01*
X164908349Y-102402462D01*
X164899170Y-102421868D01*
X164888134Y-102440281D01*
X164875346Y-102457524D01*
X164860930Y-102473430D01*
X164845024Y-102487846D01*
X164827781Y-102500634D01*
X164809368Y-102511670D01*
X164789962Y-102520849D01*
X164769750Y-102528081D01*
X164748926Y-102533297D01*
X164727691Y-102536447D01*
X164706250Y-102537500D01*
X164193750Y-102537500D01*
X164172309Y-102536447D01*
X164151074Y-102533297D01*
X164130250Y-102528081D01*
X164110038Y-102520849D01*
X164090632Y-102511670D01*
X164072219Y-102500634D01*
X164054976Y-102487846D01*
X164039070Y-102473430D01*
X164024654Y-102457524D01*
X164011866Y-102440281D01*
X164000830Y-102421868D01*
X163991651Y-102402462D01*
X163984419Y-102382250D01*
X163979203Y-102361426D01*
X163976053Y-102340191D01*
X163975000Y-102318750D01*
X163975000Y-101881250D01*
X163976053Y-101859809D01*
X163979203Y-101838574D01*
X163984419Y-101817750D01*
X163991651Y-101797538D01*
X164000830Y-101778132D01*
X164011866Y-101759719D01*
X164024654Y-101742476D01*
X164039070Y-101726570D01*
X164054976Y-101712154D01*
X164072219Y-101699366D01*
X164090632Y-101688330D01*
X164110038Y-101679151D01*
X164130250Y-101671919D01*
X164151074Y-101666703D01*
X164172309Y-101663553D01*
X164193750Y-101662500D01*
X164706250Y-101662500D01*
X164727691Y-101663553D01*
X164727691Y-101663553D01*
G37*
D11*
X164450000Y-102100000D03*
D12*
X133500000Y-86917000D03*
X133500000Y-82417000D03*
X125540000Y-82417000D03*
X125540000Y-86917000D03*
D13*
X176450000Y-115420000D03*
X171950000Y-115420000D03*
X171950000Y-123380000D03*
X176450000Y-123380000D03*
X179300000Y-123380000D03*
X183800000Y-123380000D03*
X183800000Y-115420000D03*
X179300000Y-115420000D03*
D12*
X133500000Y-95807000D03*
X133500000Y-91307000D03*
X125540000Y-91307000D03*
X125540000Y-95807000D03*
X133500000Y-113587000D03*
X133500000Y-109087000D03*
X125540000Y-109087000D03*
X125540000Y-113587000D03*
X133500000Y-104697000D03*
X133500000Y-100197000D03*
X125540000Y-100197000D03*
X125540000Y-104697000D03*
D10*
G36*
X110091291Y-112445253D02*
G01*
X110112526Y-112448403D01*
X110133350Y-112453619D01*
X110153562Y-112460851D01*
X110172968Y-112470030D01*
X110191381Y-112481066D01*
X110208624Y-112493854D01*
X110224530Y-112508270D01*
X110238946Y-112524176D01*
X110251734Y-112541419D01*
X110262770Y-112559832D01*
X110271949Y-112579238D01*
X110279181Y-112599450D01*
X110284397Y-112620274D01*
X110287547Y-112641509D01*
X110288600Y-112662950D01*
X110288600Y-113175450D01*
X110287547Y-113196891D01*
X110284397Y-113218126D01*
X110279181Y-113238950D01*
X110271949Y-113259162D01*
X110262770Y-113278568D01*
X110251734Y-113296981D01*
X110238946Y-113314224D01*
X110224530Y-113330130D01*
X110208624Y-113344546D01*
X110191381Y-113357334D01*
X110172968Y-113368370D01*
X110153562Y-113377549D01*
X110133350Y-113384781D01*
X110112526Y-113389997D01*
X110091291Y-113393147D01*
X110069850Y-113394200D01*
X109632350Y-113394200D01*
X109610909Y-113393147D01*
X109589674Y-113389997D01*
X109568850Y-113384781D01*
X109548638Y-113377549D01*
X109529232Y-113368370D01*
X109510819Y-113357334D01*
X109493576Y-113344546D01*
X109477670Y-113330130D01*
X109463254Y-113314224D01*
X109450466Y-113296981D01*
X109439430Y-113278568D01*
X109430251Y-113259162D01*
X109423019Y-113238950D01*
X109417803Y-113218126D01*
X109414653Y-113196891D01*
X109413600Y-113175450D01*
X109413600Y-112662950D01*
X109414653Y-112641509D01*
X109417803Y-112620274D01*
X109423019Y-112599450D01*
X109430251Y-112579238D01*
X109439430Y-112559832D01*
X109450466Y-112541419D01*
X109463254Y-112524176D01*
X109477670Y-112508270D01*
X109493576Y-112493854D01*
X109510819Y-112481066D01*
X109529232Y-112470030D01*
X109548638Y-112460851D01*
X109568850Y-112453619D01*
X109589674Y-112448403D01*
X109610909Y-112445253D01*
X109632350Y-112444200D01*
X110069850Y-112444200D01*
X110091291Y-112445253D01*
X110091291Y-112445253D01*
G37*
D11*
X109851100Y-112919200D03*
D10*
G36*
X108516291Y-112445253D02*
G01*
X108537526Y-112448403D01*
X108558350Y-112453619D01*
X108578562Y-112460851D01*
X108597968Y-112470030D01*
X108616381Y-112481066D01*
X108633624Y-112493854D01*
X108649530Y-112508270D01*
X108663946Y-112524176D01*
X108676734Y-112541419D01*
X108687770Y-112559832D01*
X108696949Y-112579238D01*
X108704181Y-112599450D01*
X108709397Y-112620274D01*
X108712547Y-112641509D01*
X108713600Y-112662950D01*
X108713600Y-113175450D01*
X108712547Y-113196891D01*
X108709397Y-113218126D01*
X108704181Y-113238950D01*
X108696949Y-113259162D01*
X108687770Y-113278568D01*
X108676734Y-113296981D01*
X108663946Y-113314224D01*
X108649530Y-113330130D01*
X108633624Y-113344546D01*
X108616381Y-113357334D01*
X108597968Y-113368370D01*
X108578562Y-113377549D01*
X108558350Y-113384781D01*
X108537526Y-113389997D01*
X108516291Y-113393147D01*
X108494850Y-113394200D01*
X108057350Y-113394200D01*
X108035909Y-113393147D01*
X108014674Y-113389997D01*
X107993850Y-113384781D01*
X107973638Y-113377549D01*
X107954232Y-113368370D01*
X107935819Y-113357334D01*
X107918576Y-113344546D01*
X107902670Y-113330130D01*
X107888254Y-113314224D01*
X107875466Y-113296981D01*
X107864430Y-113278568D01*
X107855251Y-113259162D01*
X107848019Y-113238950D01*
X107842803Y-113218126D01*
X107839653Y-113196891D01*
X107838600Y-113175450D01*
X107838600Y-112662950D01*
X107839653Y-112641509D01*
X107842803Y-112620274D01*
X107848019Y-112599450D01*
X107855251Y-112579238D01*
X107864430Y-112559832D01*
X107875466Y-112541419D01*
X107888254Y-112524176D01*
X107902670Y-112508270D01*
X107918576Y-112493854D01*
X107935819Y-112481066D01*
X107954232Y-112470030D01*
X107973638Y-112460851D01*
X107993850Y-112453619D01*
X108014674Y-112448403D01*
X108035909Y-112445253D01*
X108057350Y-112444200D01*
X108494850Y-112444200D01*
X108516291Y-112445253D01*
X108516291Y-112445253D01*
G37*
D11*
X108276100Y-112919200D03*
D10*
G36*
X115405291Y-116713253D02*
G01*
X115426526Y-116716403D01*
X115447350Y-116721619D01*
X115467562Y-116728851D01*
X115486968Y-116738030D01*
X115505381Y-116749066D01*
X115522624Y-116761854D01*
X115538530Y-116776270D01*
X115552946Y-116792176D01*
X115565734Y-116809419D01*
X115576770Y-116827832D01*
X115585949Y-116847238D01*
X115593181Y-116867450D01*
X115598397Y-116888274D01*
X115601547Y-116909509D01*
X115602600Y-116930950D01*
X115602600Y-117443450D01*
X115601547Y-117464891D01*
X115598397Y-117486126D01*
X115593181Y-117506950D01*
X115585949Y-117527162D01*
X115576770Y-117546568D01*
X115565734Y-117564981D01*
X115552946Y-117582224D01*
X115538530Y-117598130D01*
X115522624Y-117612546D01*
X115505381Y-117625334D01*
X115486968Y-117636370D01*
X115467562Y-117645549D01*
X115447350Y-117652781D01*
X115426526Y-117657997D01*
X115405291Y-117661147D01*
X115383850Y-117662200D01*
X114946350Y-117662200D01*
X114924909Y-117661147D01*
X114903674Y-117657997D01*
X114882850Y-117652781D01*
X114862638Y-117645549D01*
X114843232Y-117636370D01*
X114824819Y-117625334D01*
X114807576Y-117612546D01*
X114791670Y-117598130D01*
X114777254Y-117582224D01*
X114764466Y-117564981D01*
X114753430Y-117546568D01*
X114744251Y-117527162D01*
X114737019Y-117506950D01*
X114731803Y-117486126D01*
X114728653Y-117464891D01*
X114727600Y-117443450D01*
X114727600Y-116930950D01*
X114728653Y-116909509D01*
X114731803Y-116888274D01*
X114737019Y-116867450D01*
X114744251Y-116847238D01*
X114753430Y-116827832D01*
X114764466Y-116809419D01*
X114777254Y-116792176D01*
X114791670Y-116776270D01*
X114807576Y-116761854D01*
X114824819Y-116749066D01*
X114843232Y-116738030D01*
X114862638Y-116728851D01*
X114882850Y-116721619D01*
X114903674Y-116716403D01*
X114924909Y-116713253D01*
X114946350Y-116712200D01*
X115383850Y-116712200D01*
X115405291Y-116713253D01*
X115405291Y-116713253D01*
G37*
D11*
X115165100Y-117187200D03*
D10*
G36*
X116980291Y-116713253D02*
G01*
X117001526Y-116716403D01*
X117022350Y-116721619D01*
X117042562Y-116728851D01*
X117061968Y-116738030D01*
X117080381Y-116749066D01*
X117097624Y-116761854D01*
X117113530Y-116776270D01*
X117127946Y-116792176D01*
X117140734Y-116809419D01*
X117151770Y-116827832D01*
X117160949Y-116847238D01*
X117168181Y-116867450D01*
X117173397Y-116888274D01*
X117176547Y-116909509D01*
X117177600Y-116930950D01*
X117177600Y-117443450D01*
X117176547Y-117464891D01*
X117173397Y-117486126D01*
X117168181Y-117506950D01*
X117160949Y-117527162D01*
X117151770Y-117546568D01*
X117140734Y-117564981D01*
X117127946Y-117582224D01*
X117113530Y-117598130D01*
X117097624Y-117612546D01*
X117080381Y-117625334D01*
X117061968Y-117636370D01*
X117042562Y-117645549D01*
X117022350Y-117652781D01*
X117001526Y-117657997D01*
X116980291Y-117661147D01*
X116958850Y-117662200D01*
X116521350Y-117662200D01*
X116499909Y-117661147D01*
X116478674Y-117657997D01*
X116457850Y-117652781D01*
X116437638Y-117645549D01*
X116418232Y-117636370D01*
X116399819Y-117625334D01*
X116382576Y-117612546D01*
X116366670Y-117598130D01*
X116352254Y-117582224D01*
X116339466Y-117564981D01*
X116328430Y-117546568D01*
X116319251Y-117527162D01*
X116312019Y-117506950D01*
X116306803Y-117486126D01*
X116303653Y-117464891D01*
X116302600Y-117443450D01*
X116302600Y-116930950D01*
X116303653Y-116909509D01*
X116306803Y-116888274D01*
X116312019Y-116867450D01*
X116319251Y-116847238D01*
X116328430Y-116827832D01*
X116339466Y-116809419D01*
X116352254Y-116792176D01*
X116366670Y-116776270D01*
X116382576Y-116761854D01*
X116399819Y-116749066D01*
X116418232Y-116738030D01*
X116437638Y-116728851D01*
X116457850Y-116721619D01*
X116478674Y-116716403D01*
X116499909Y-116713253D01*
X116521350Y-116712200D01*
X116958850Y-116712200D01*
X116980291Y-116713253D01*
X116980291Y-116713253D01*
G37*
D11*
X116740100Y-117187200D03*
D10*
G36*
X115405291Y-118226053D02*
G01*
X115426526Y-118229203D01*
X115447350Y-118234419D01*
X115467562Y-118241651D01*
X115486968Y-118250830D01*
X115505381Y-118261866D01*
X115522624Y-118274654D01*
X115538530Y-118289070D01*
X115552946Y-118304976D01*
X115565734Y-118322219D01*
X115576770Y-118340632D01*
X115585949Y-118360038D01*
X115593181Y-118380250D01*
X115598397Y-118401074D01*
X115601547Y-118422309D01*
X115602600Y-118443750D01*
X115602600Y-118956250D01*
X115601547Y-118977691D01*
X115598397Y-118998926D01*
X115593181Y-119019750D01*
X115585949Y-119039962D01*
X115576770Y-119059368D01*
X115565734Y-119077781D01*
X115552946Y-119095024D01*
X115538530Y-119110930D01*
X115522624Y-119125346D01*
X115505381Y-119138134D01*
X115486968Y-119149170D01*
X115467562Y-119158349D01*
X115447350Y-119165581D01*
X115426526Y-119170797D01*
X115405291Y-119173947D01*
X115383850Y-119175000D01*
X114946350Y-119175000D01*
X114924909Y-119173947D01*
X114903674Y-119170797D01*
X114882850Y-119165581D01*
X114862638Y-119158349D01*
X114843232Y-119149170D01*
X114824819Y-119138134D01*
X114807576Y-119125346D01*
X114791670Y-119110930D01*
X114777254Y-119095024D01*
X114764466Y-119077781D01*
X114753430Y-119059368D01*
X114744251Y-119039962D01*
X114737019Y-119019750D01*
X114731803Y-118998926D01*
X114728653Y-118977691D01*
X114727600Y-118956250D01*
X114727600Y-118443750D01*
X114728653Y-118422309D01*
X114731803Y-118401074D01*
X114737019Y-118380250D01*
X114744251Y-118360038D01*
X114753430Y-118340632D01*
X114764466Y-118322219D01*
X114777254Y-118304976D01*
X114791670Y-118289070D01*
X114807576Y-118274654D01*
X114824819Y-118261866D01*
X114843232Y-118250830D01*
X114862638Y-118241651D01*
X114882850Y-118234419D01*
X114903674Y-118229203D01*
X114924909Y-118226053D01*
X114946350Y-118225000D01*
X115383850Y-118225000D01*
X115405291Y-118226053D01*
X115405291Y-118226053D01*
G37*
D11*
X115165100Y-118700000D03*
D10*
G36*
X116980291Y-118226053D02*
G01*
X117001526Y-118229203D01*
X117022350Y-118234419D01*
X117042562Y-118241651D01*
X117061968Y-118250830D01*
X117080381Y-118261866D01*
X117097624Y-118274654D01*
X117113530Y-118289070D01*
X117127946Y-118304976D01*
X117140734Y-118322219D01*
X117151770Y-118340632D01*
X117160949Y-118360038D01*
X117168181Y-118380250D01*
X117173397Y-118401074D01*
X117176547Y-118422309D01*
X117177600Y-118443750D01*
X117177600Y-118956250D01*
X117176547Y-118977691D01*
X117173397Y-118998926D01*
X117168181Y-119019750D01*
X117160949Y-119039962D01*
X117151770Y-119059368D01*
X117140734Y-119077781D01*
X117127946Y-119095024D01*
X117113530Y-119110930D01*
X117097624Y-119125346D01*
X117080381Y-119138134D01*
X117061968Y-119149170D01*
X117042562Y-119158349D01*
X117022350Y-119165581D01*
X117001526Y-119170797D01*
X116980291Y-119173947D01*
X116958850Y-119175000D01*
X116521350Y-119175000D01*
X116499909Y-119173947D01*
X116478674Y-119170797D01*
X116457850Y-119165581D01*
X116437638Y-119158349D01*
X116418232Y-119149170D01*
X116399819Y-119138134D01*
X116382576Y-119125346D01*
X116366670Y-119110930D01*
X116352254Y-119095024D01*
X116339466Y-119077781D01*
X116328430Y-119059368D01*
X116319251Y-119039962D01*
X116312019Y-119019750D01*
X116306803Y-118998926D01*
X116303653Y-118977691D01*
X116302600Y-118956250D01*
X116302600Y-118443750D01*
X116303653Y-118422309D01*
X116306803Y-118401074D01*
X116312019Y-118380250D01*
X116319251Y-118360038D01*
X116328430Y-118340632D01*
X116339466Y-118322219D01*
X116352254Y-118304976D01*
X116366670Y-118289070D01*
X116382576Y-118274654D01*
X116399819Y-118261866D01*
X116418232Y-118250830D01*
X116437638Y-118241651D01*
X116457850Y-118234419D01*
X116478674Y-118229203D01*
X116499909Y-118226053D01*
X116521350Y-118225000D01*
X116958850Y-118225000D01*
X116980291Y-118226053D01*
X116980291Y-118226053D01*
G37*
D11*
X116740100Y-118700000D03*
D10*
G36*
X162027691Y-114326053D02*
G01*
X162048926Y-114329203D01*
X162069750Y-114334419D01*
X162089962Y-114341651D01*
X162109368Y-114350830D01*
X162127781Y-114361866D01*
X162145024Y-114374654D01*
X162160930Y-114389070D01*
X162175346Y-114404976D01*
X162188134Y-114422219D01*
X162199170Y-114440632D01*
X162208349Y-114460038D01*
X162215581Y-114480250D01*
X162220797Y-114501074D01*
X162223947Y-114522309D01*
X162225000Y-114543750D01*
X162225000Y-115056250D01*
X162223947Y-115077691D01*
X162220797Y-115098926D01*
X162215581Y-115119750D01*
X162208349Y-115139962D01*
X162199170Y-115159368D01*
X162188134Y-115177781D01*
X162175346Y-115195024D01*
X162160930Y-115210930D01*
X162145024Y-115225346D01*
X162127781Y-115238134D01*
X162109368Y-115249170D01*
X162089962Y-115258349D01*
X162069750Y-115265581D01*
X162048926Y-115270797D01*
X162027691Y-115273947D01*
X162006250Y-115275000D01*
X161568750Y-115275000D01*
X161547309Y-115273947D01*
X161526074Y-115270797D01*
X161505250Y-115265581D01*
X161485038Y-115258349D01*
X161465632Y-115249170D01*
X161447219Y-115238134D01*
X161429976Y-115225346D01*
X161414070Y-115210930D01*
X161399654Y-115195024D01*
X161386866Y-115177781D01*
X161375830Y-115159368D01*
X161366651Y-115139962D01*
X161359419Y-115119750D01*
X161354203Y-115098926D01*
X161351053Y-115077691D01*
X161350000Y-115056250D01*
X161350000Y-114543750D01*
X161351053Y-114522309D01*
X161354203Y-114501074D01*
X161359419Y-114480250D01*
X161366651Y-114460038D01*
X161375830Y-114440632D01*
X161386866Y-114422219D01*
X161399654Y-114404976D01*
X161414070Y-114389070D01*
X161429976Y-114374654D01*
X161447219Y-114361866D01*
X161465632Y-114350830D01*
X161485038Y-114341651D01*
X161505250Y-114334419D01*
X161526074Y-114329203D01*
X161547309Y-114326053D01*
X161568750Y-114325000D01*
X162006250Y-114325000D01*
X162027691Y-114326053D01*
X162027691Y-114326053D01*
G37*
D11*
X161787500Y-114800000D03*
D10*
G36*
X163602691Y-114326053D02*
G01*
X163623926Y-114329203D01*
X163644750Y-114334419D01*
X163664962Y-114341651D01*
X163684368Y-114350830D01*
X163702781Y-114361866D01*
X163720024Y-114374654D01*
X163735930Y-114389070D01*
X163750346Y-114404976D01*
X163763134Y-114422219D01*
X163774170Y-114440632D01*
X163783349Y-114460038D01*
X163790581Y-114480250D01*
X163795797Y-114501074D01*
X163798947Y-114522309D01*
X163800000Y-114543750D01*
X163800000Y-115056250D01*
X163798947Y-115077691D01*
X163795797Y-115098926D01*
X163790581Y-115119750D01*
X163783349Y-115139962D01*
X163774170Y-115159368D01*
X163763134Y-115177781D01*
X163750346Y-115195024D01*
X163735930Y-115210930D01*
X163720024Y-115225346D01*
X163702781Y-115238134D01*
X163684368Y-115249170D01*
X163664962Y-115258349D01*
X163644750Y-115265581D01*
X163623926Y-115270797D01*
X163602691Y-115273947D01*
X163581250Y-115275000D01*
X163143750Y-115275000D01*
X163122309Y-115273947D01*
X163101074Y-115270797D01*
X163080250Y-115265581D01*
X163060038Y-115258349D01*
X163040632Y-115249170D01*
X163022219Y-115238134D01*
X163004976Y-115225346D01*
X162989070Y-115210930D01*
X162974654Y-115195024D01*
X162961866Y-115177781D01*
X162950830Y-115159368D01*
X162941651Y-115139962D01*
X162934419Y-115119750D01*
X162929203Y-115098926D01*
X162926053Y-115077691D01*
X162925000Y-115056250D01*
X162925000Y-114543750D01*
X162926053Y-114522309D01*
X162929203Y-114501074D01*
X162934419Y-114480250D01*
X162941651Y-114460038D01*
X162950830Y-114440632D01*
X162961866Y-114422219D01*
X162974654Y-114404976D01*
X162989070Y-114389070D01*
X163004976Y-114374654D01*
X163022219Y-114361866D01*
X163040632Y-114350830D01*
X163060038Y-114341651D01*
X163080250Y-114334419D01*
X163101074Y-114329203D01*
X163122309Y-114326053D01*
X163143750Y-114325000D01*
X163581250Y-114325000D01*
X163602691Y-114326053D01*
X163602691Y-114326053D01*
G37*
D11*
X163362500Y-114800000D03*
D10*
G36*
X117102691Y-103551053D02*
G01*
X117123926Y-103554203D01*
X117144750Y-103559419D01*
X117164962Y-103566651D01*
X117184368Y-103575830D01*
X117202781Y-103586866D01*
X117220024Y-103599654D01*
X117235930Y-103614070D01*
X117250346Y-103629976D01*
X117263134Y-103647219D01*
X117274170Y-103665632D01*
X117283349Y-103685038D01*
X117290581Y-103705250D01*
X117295797Y-103726074D01*
X117298947Y-103747309D01*
X117300000Y-103768750D01*
X117300000Y-104281250D01*
X117298947Y-104302691D01*
X117295797Y-104323926D01*
X117290581Y-104344750D01*
X117283349Y-104364962D01*
X117274170Y-104384368D01*
X117263134Y-104402781D01*
X117250346Y-104420024D01*
X117235930Y-104435930D01*
X117220024Y-104450346D01*
X117202781Y-104463134D01*
X117184368Y-104474170D01*
X117164962Y-104483349D01*
X117144750Y-104490581D01*
X117123926Y-104495797D01*
X117102691Y-104498947D01*
X117081250Y-104500000D01*
X116643750Y-104500000D01*
X116622309Y-104498947D01*
X116601074Y-104495797D01*
X116580250Y-104490581D01*
X116560038Y-104483349D01*
X116540632Y-104474170D01*
X116522219Y-104463134D01*
X116504976Y-104450346D01*
X116489070Y-104435930D01*
X116474654Y-104420024D01*
X116461866Y-104402781D01*
X116450830Y-104384368D01*
X116441651Y-104364962D01*
X116434419Y-104344750D01*
X116429203Y-104323926D01*
X116426053Y-104302691D01*
X116425000Y-104281250D01*
X116425000Y-103768750D01*
X116426053Y-103747309D01*
X116429203Y-103726074D01*
X116434419Y-103705250D01*
X116441651Y-103685038D01*
X116450830Y-103665632D01*
X116461866Y-103647219D01*
X116474654Y-103629976D01*
X116489070Y-103614070D01*
X116504976Y-103599654D01*
X116522219Y-103586866D01*
X116540632Y-103575830D01*
X116560038Y-103566651D01*
X116580250Y-103559419D01*
X116601074Y-103554203D01*
X116622309Y-103551053D01*
X116643750Y-103550000D01*
X117081250Y-103550000D01*
X117102691Y-103551053D01*
X117102691Y-103551053D01*
G37*
D11*
X116862500Y-104025000D03*
D10*
G36*
X118677691Y-103551053D02*
G01*
X118698926Y-103554203D01*
X118719750Y-103559419D01*
X118739962Y-103566651D01*
X118759368Y-103575830D01*
X118777781Y-103586866D01*
X118795024Y-103599654D01*
X118810930Y-103614070D01*
X118825346Y-103629976D01*
X118838134Y-103647219D01*
X118849170Y-103665632D01*
X118858349Y-103685038D01*
X118865581Y-103705250D01*
X118870797Y-103726074D01*
X118873947Y-103747309D01*
X118875000Y-103768750D01*
X118875000Y-104281250D01*
X118873947Y-104302691D01*
X118870797Y-104323926D01*
X118865581Y-104344750D01*
X118858349Y-104364962D01*
X118849170Y-104384368D01*
X118838134Y-104402781D01*
X118825346Y-104420024D01*
X118810930Y-104435930D01*
X118795024Y-104450346D01*
X118777781Y-104463134D01*
X118759368Y-104474170D01*
X118739962Y-104483349D01*
X118719750Y-104490581D01*
X118698926Y-104495797D01*
X118677691Y-104498947D01*
X118656250Y-104500000D01*
X118218750Y-104500000D01*
X118197309Y-104498947D01*
X118176074Y-104495797D01*
X118155250Y-104490581D01*
X118135038Y-104483349D01*
X118115632Y-104474170D01*
X118097219Y-104463134D01*
X118079976Y-104450346D01*
X118064070Y-104435930D01*
X118049654Y-104420024D01*
X118036866Y-104402781D01*
X118025830Y-104384368D01*
X118016651Y-104364962D01*
X118009419Y-104344750D01*
X118004203Y-104323926D01*
X118001053Y-104302691D01*
X118000000Y-104281250D01*
X118000000Y-103768750D01*
X118001053Y-103747309D01*
X118004203Y-103726074D01*
X118009419Y-103705250D01*
X118016651Y-103685038D01*
X118025830Y-103665632D01*
X118036866Y-103647219D01*
X118049654Y-103629976D01*
X118064070Y-103614070D01*
X118079976Y-103599654D01*
X118097219Y-103586866D01*
X118115632Y-103575830D01*
X118135038Y-103566651D01*
X118155250Y-103559419D01*
X118176074Y-103554203D01*
X118197309Y-103551053D01*
X118218750Y-103550000D01*
X118656250Y-103550000D01*
X118677691Y-103551053D01*
X118677691Y-103551053D01*
G37*
D11*
X118437500Y-104025000D03*
D10*
G36*
X117377691Y-112498853D02*
G01*
X117398926Y-112502003D01*
X117419750Y-112507219D01*
X117439962Y-112514451D01*
X117459368Y-112523630D01*
X117477781Y-112534666D01*
X117495024Y-112547454D01*
X117510930Y-112561870D01*
X117525346Y-112577776D01*
X117538134Y-112595019D01*
X117549170Y-112613432D01*
X117558349Y-112632838D01*
X117565581Y-112653050D01*
X117570797Y-112673874D01*
X117573947Y-112695109D01*
X117575000Y-112716550D01*
X117575000Y-113154050D01*
X117573947Y-113175491D01*
X117570797Y-113196726D01*
X117565581Y-113217550D01*
X117558349Y-113237762D01*
X117549170Y-113257168D01*
X117538134Y-113275581D01*
X117525346Y-113292824D01*
X117510930Y-113308730D01*
X117495024Y-113323146D01*
X117477781Y-113335934D01*
X117459368Y-113346970D01*
X117439962Y-113356149D01*
X117419750Y-113363381D01*
X117398926Y-113368597D01*
X117377691Y-113371747D01*
X117356250Y-113372800D01*
X116843750Y-113372800D01*
X116822309Y-113371747D01*
X116801074Y-113368597D01*
X116780250Y-113363381D01*
X116760038Y-113356149D01*
X116740632Y-113346970D01*
X116722219Y-113335934D01*
X116704976Y-113323146D01*
X116689070Y-113308730D01*
X116674654Y-113292824D01*
X116661866Y-113275581D01*
X116650830Y-113257168D01*
X116641651Y-113237762D01*
X116634419Y-113217550D01*
X116629203Y-113196726D01*
X116626053Y-113175491D01*
X116625000Y-113154050D01*
X116625000Y-112716550D01*
X116626053Y-112695109D01*
X116629203Y-112673874D01*
X116634419Y-112653050D01*
X116641651Y-112632838D01*
X116650830Y-112613432D01*
X116661866Y-112595019D01*
X116674654Y-112577776D01*
X116689070Y-112561870D01*
X116704976Y-112547454D01*
X116722219Y-112534666D01*
X116740632Y-112523630D01*
X116760038Y-112514451D01*
X116780250Y-112507219D01*
X116801074Y-112502003D01*
X116822309Y-112498853D01*
X116843750Y-112497800D01*
X117356250Y-112497800D01*
X117377691Y-112498853D01*
X117377691Y-112498853D01*
G37*
D11*
X117100000Y-112935300D03*
D10*
G36*
X117377691Y-114073853D02*
G01*
X117398926Y-114077003D01*
X117419750Y-114082219D01*
X117439962Y-114089451D01*
X117459368Y-114098630D01*
X117477781Y-114109666D01*
X117495024Y-114122454D01*
X117510930Y-114136870D01*
X117525346Y-114152776D01*
X117538134Y-114170019D01*
X117549170Y-114188432D01*
X117558349Y-114207838D01*
X117565581Y-114228050D01*
X117570797Y-114248874D01*
X117573947Y-114270109D01*
X117575000Y-114291550D01*
X117575000Y-114729050D01*
X117573947Y-114750491D01*
X117570797Y-114771726D01*
X117565581Y-114792550D01*
X117558349Y-114812762D01*
X117549170Y-114832168D01*
X117538134Y-114850581D01*
X117525346Y-114867824D01*
X117510930Y-114883730D01*
X117495024Y-114898146D01*
X117477781Y-114910934D01*
X117459368Y-114921970D01*
X117439962Y-114931149D01*
X117419750Y-114938381D01*
X117398926Y-114943597D01*
X117377691Y-114946747D01*
X117356250Y-114947800D01*
X116843750Y-114947800D01*
X116822309Y-114946747D01*
X116801074Y-114943597D01*
X116780250Y-114938381D01*
X116760038Y-114931149D01*
X116740632Y-114921970D01*
X116722219Y-114910934D01*
X116704976Y-114898146D01*
X116689070Y-114883730D01*
X116674654Y-114867824D01*
X116661866Y-114850581D01*
X116650830Y-114832168D01*
X116641651Y-114812762D01*
X116634419Y-114792550D01*
X116629203Y-114771726D01*
X116626053Y-114750491D01*
X116625000Y-114729050D01*
X116625000Y-114291550D01*
X116626053Y-114270109D01*
X116629203Y-114248874D01*
X116634419Y-114228050D01*
X116641651Y-114207838D01*
X116650830Y-114188432D01*
X116661866Y-114170019D01*
X116674654Y-114152776D01*
X116689070Y-114136870D01*
X116704976Y-114122454D01*
X116722219Y-114109666D01*
X116740632Y-114098630D01*
X116760038Y-114089451D01*
X116780250Y-114082219D01*
X116801074Y-114077003D01*
X116822309Y-114073853D01*
X116843750Y-114072800D01*
X117356250Y-114072800D01*
X117377691Y-114073853D01*
X117377691Y-114073853D01*
G37*
D11*
X117100000Y-114510300D03*
D10*
G36*
X117334091Y-109095253D02*
G01*
X117355326Y-109098403D01*
X117376150Y-109103619D01*
X117396362Y-109110851D01*
X117415768Y-109120030D01*
X117434181Y-109131066D01*
X117451424Y-109143854D01*
X117467330Y-109158270D01*
X117481746Y-109174176D01*
X117494534Y-109191419D01*
X117505570Y-109209832D01*
X117514749Y-109229238D01*
X117521981Y-109249450D01*
X117527197Y-109270274D01*
X117530347Y-109291509D01*
X117531400Y-109312950D01*
X117531400Y-109750450D01*
X117530347Y-109771891D01*
X117527197Y-109793126D01*
X117521981Y-109813950D01*
X117514749Y-109834162D01*
X117505570Y-109853568D01*
X117494534Y-109871981D01*
X117481746Y-109889224D01*
X117467330Y-109905130D01*
X117451424Y-109919546D01*
X117434181Y-109932334D01*
X117415768Y-109943370D01*
X117396362Y-109952549D01*
X117376150Y-109959781D01*
X117355326Y-109964997D01*
X117334091Y-109968147D01*
X117312650Y-109969200D01*
X116800150Y-109969200D01*
X116778709Y-109968147D01*
X116757474Y-109964997D01*
X116736650Y-109959781D01*
X116716438Y-109952549D01*
X116697032Y-109943370D01*
X116678619Y-109932334D01*
X116661376Y-109919546D01*
X116645470Y-109905130D01*
X116631054Y-109889224D01*
X116618266Y-109871981D01*
X116607230Y-109853568D01*
X116598051Y-109834162D01*
X116590819Y-109813950D01*
X116585603Y-109793126D01*
X116582453Y-109771891D01*
X116581400Y-109750450D01*
X116581400Y-109312950D01*
X116582453Y-109291509D01*
X116585603Y-109270274D01*
X116590819Y-109249450D01*
X116598051Y-109229238D01*
X116607230Y-109209832D01*
X116618266Y-109191419D01*
X116631054Y-109174176D01*
X116645470Y-109158270D01*
X116661376Y-109143854D01*
X116678619Y-109131066D01*
X116697032Y-109120030D01*
X116716438Y-109110851D01*
X116736650Y-109103619D01*
X116757474Y-109098403D01*
X116778709Y-109095253D01*
X116800150Y-109094200D01*
X117312650Y-109094200D01*
X117334091Y-109095253D01*
X117334091Y-109095253D01*
G37*
D11*
X117056400Y-109531700D03*
D10*
G36*
X117334091Y-110670253D02*
G01*
X117355326Y-110673403D01*
X117376150Y-110678619D01*
X117396362Y-110685851D01*
X117415768Y-110695030D01*
X117434181Y-110706066D01*
X117451424Y-110718854D01*
X117467330Y-110733270D01*
X117481746Y-110749176D01*
X117494534Y-110766419D01*
X117505570Y-110784832D01*
X117514749Y-110804238D01*
X117521981Y-110824450D01*
X117527197Y-110845274D01*
X117530347Y-110866509D01*
X117531400Y-110887950D01*
X117531400Y-111325450D01*
X117530347Y-111346891D01*
X117527197Y-111368126D01*
X117521981Y-111388950D01*
X117514749Y-111409162D01*
X117505570Y-111428568D01*
X117494534Y-111446981D01*
X117481746Y-111464224D01*
X117467330Y-111480130D01*
X117451424Y-111494546D01*
X117434181Y-111507334D01*
X117415768Y-111518370D01*
X117396362Y-111527549D01*
X117376150Y-111534781D01*
X117355326Y-111539997D01*
X117334091Y-111543147D01*
X117312650Y-111544200D01*
X116800150Y-111544200D01*
X116778709Y-111543147D01*
X116757474Y-111539997D01*
X116736650Y-111534781D01*
X116716438Y-111527549D01*
X116697032Y-111518370D01*
X116678619Y-111507334D01*
X116661376Y-111494546D01*
X116645470Y-111480130D01*
X116631054Y-111464224D01*
X116618266Y-111446981D01*
X116607230Y-111428568D01*
X116598051Y-111409162D01*
X116590819Y-111388950D01*
X116585603Y-111368126D01*
X116582453Y-111346891D01*
X116581400Y-111325450D01*
X116581400Y-110887950D01*
X116582453Y-110866509D01*
X116585603Y-110845274D01*
X116590819Y-110824450D01*
X116598051Y-110804238D01*
X116607230Y-110784832D01*
X116618266Y-110766419D01*
X116631054Y-110749176D01*
X116645470Y-110733270D01*
X116661376Y-110718854D01*
X116678619Y-110706066D01*
X116697032Y-110695030D01*
X116716438Y-110685851D01*
X116736650Y-110678619D01*
X116757474Y-110673403D01*
X116778709Y-110670253D01*
X116800150Y-110669200D01*
X117312650Y-110669200D01*
X117334091Y-110670253D01*
X117334091Y-110670253D01*
G37*
D11*
X117056400Y-111106700D03*
D10*
G36*
X156477691Y-90601053D02*
G01*
X156498926Y-90604203D01*
X156519750Y-90609419D01*
X156539962Y-90616651D01*
X156559368Y-90625830D01*
X156577781Y-90636866D01*
X156595024Y-90649654D01*
X156610930Y-90664070D01*
X156625346Y-90679976D01*
X156638134Y-90697219D01*
X156649170Y-90715632D01*
X156658349Y-90735038D01*
X156665581Y-90755250D01*
X156670797Y-90776074D01*
X156673947Y-90797309D01*
X156675000Y-90818750D01*
X156675000Y-91256250D01*
X156673947Y-91277691D01*
X156670797Y-91298926D01*
X156665581Y-91319750D01*
X156658349Y-91339962D01*
X156649170Y-91359368D01*
X156638134Y-91377781D01*
X156625346Y-91395024D01*
X156610930Y-91410930D01*
X156595024Y-91425346D01*
X156577781Y-91438134D01*
X156559368Y-91449170D01*
X156539962Y-91458349D01*
X156519750Y-91465581D01*
X156498926Y-91470797D01*
X156477691Y-91473947D01*
X156456250Y-91475000D01*
X155943750Y-91475000D01*
X155922309Y-91473947D01*
X155901074Y-91470797D01*
X155880250Y-91465581D01*
X155860038Y-91458349D01*
X155840632Y-91449170D01*
X155822219Y-91438134D01*
X155804976Y-91425346D01*
X155789070Y-91410930D01*
X155774654Y-91395024D01*
X155761866Y-91377781D01*
X155750830Y-91359368D01*
X155741651Y-91339962D01*
X155734419Y-91319750D01*
X155729203Y-91298926D01*
X155726053Y-91277691D01*
X155725000Y-91256250D01*
X155725000Y-90818750D01*
X155726053Y-90797309D01*
X155729203Y-90776074D01*
X155734419Y-90755250D01*
X155741651Y-90735038D01*
X155750830Y-90715632D01*
X155761866Y-90697219D01*
X155774654Y-90679976D01*
X155789070Y-90664070D01*
X155804976Y-90649654D01*
X155822219Y-90636866D01*
X155840632Y-90625830D01*
X155860038Y-90616651D01*
X155880250Y-90609419D01*
X155901074Y-90604203D01*
X155922309Y-90601053D01*
X155943750Y-90600000D01*
X156456250Y-90600000D01*
X156477691Y-90601053D01*
X156477691Y-90601053D01*
G37*
D11*
X156200000Y-91037500D03*
D10*
G36*
X156477691Y-89026053D02*
G01*
X156498926Y-89029203D01*
X156519750Y-89034419D01*
X156539962Y-89041651D01*
X156559368Y-89050830D01*
X156577781Y-89061866D01*
X156595024Y-89074654D01*
X156610930Y-89089070D01*
X156625346Y-89104976D01*
X156638134Y-89122219D01*
X156649170Y-89140632D01*
X156658349Y-89160038D01*
X156665581Y-89180250D01*
X156670797Y-89201074D01*
X156673947Y-89222309D01*
X156675000Y-89243750D01*
X156675000Y-89681250D01*
X156673947Y-89702691D01*
X156670797Y-89723926D01*
X156665581Y-89744750D01*
X156658349Y-89764962D01*
X156649170Y-89784368D01*
X156638134Y-89802781D01*
X156625346Y-89820024D01*
X156610930Y-89835930D01*
X156595024Y-89850346D01*
X156577781Y-89863134D01*
X156559368Y-89874170D01*
X156539962Y-89883349D01*
X156519750Y-89890581D01*
X156498926Y-89895797D01*
X156477691Y-89898947D01*
X156456250Y-89900000D01*
X155943750Y-89900000D01*
X155922309Y-89898947D01*
X155901074Y-89895797D01*
X155880250Y-89890581D01*
X155860038Y-89883349D01*
X155840632Y-89874170D01*
X155822219Y-89863134D01*
X155804976Y-89850346D01*
X155789070Y-89835930D01*
X155774654Y-89820024D01*
X155761866Y-89802781D01*
X155750830Y-89784368D01*
X155741651Y-89764962D01*
X155734419Y-89744750D01*
X155729203Y-89723926D01*
X155726053Y-89702691D01*
X155725000Y-89681250D01*
X155725000Y-89243750D01*
X155726053Y-89222309D01*
X155729203Y-89201074D01*
X155734419Y-89180250D01*
X155741651Y-89160038D01*
X155750830Y-89140632D01*
X155761866Y-89122219D01*
X155774654Y-89104976D01*
X155789070Y-89089070D01*
X155804976Y-89074654D01*
X155822219Y-89061866D01*
X155840632Y-89050830D01*
X155860038Y-89041651D01*
X155880250Y-89034419D01*
X155901074Y-89029203D01*
X155922309Y-89026053D01*
X155943750Y-89025000D01*
X156456250Y-89025000D01*
X156477691Y-89026053D01*
X156477691Y-89026053D01*
G37*
D11*
X156200000Y-89462500D03*
D10*
G36*
X143777691Y-75576053D02*
G01*
X143798926Y-75579203D01*
X143819750Y-75584419D01*
X143839962Y-75591651D01*
X143859368Y-75600830D01*
X143877781Y-75611866D01*
X143895024Y-75624654D01*
X143910930Y-75639070D01*
X143925346Y-75654976D01*
X143938134Y-75672219D01*
X143949170Y-75690632D01*
X143958349Y-75710038D01*
X143965581Y-75730250D01*
X143970797Y-75751074D01*
X143973947Y-75772309D01*
X143975000Y-75793750D01*
X143975000Y-76231250D01*
X143973947Y-76252691D01*
X143970797Y-76273926D01*
X143965581Y-76294750D01*
X143958349Y-76314962D01*
X143949170Y-76334368D01*
X143938134Y-76352781D01*
X143925346Y-76370024D01*
X143910930Y-76385930D01*
X143895024Y-76400346D01*
X143877781Y-76413134D01*
X143859368Y-76424170D01*
X143839962Y-76433349D01*
X143819750Y-76440581D01*
X143798926Y-76445797D01*
X143777691Y-76448947D01*
X143756250Y-76450000D01*
X143243750Y-76450000D01*
X143222309Y-76448947D01*
X143201074Y-76445797D01*
X143180250Y-76440581D01*
X143160038Y-76433349D01*
X143140632Y-76424170D01*
X143122219Y-76413134D01*
X143104976Y-76400346D01*
X143089070Y-76385930D01*
X143074654Y-76370024D01*
X143061866Y-76352781D01*
X143050830Y-76334368D01*
X143041651Y-76314962D01*
X143034419Y-76294750D01*
X143029203Y-76273926D01*
X143026053Y-76252691D01*
X143025000Y-76231250D01*
X143025000Y-75793750D01*
X143026053Y-75772309D01*
X143029203Y-75751074D01*
X143034419Y-75730250D01*
X143041651Y-75710038D01*
X143050830Y-75690632D01*
X143061866Y-75672219D01*
X143074654Y-75654976D01*
X143089070Y-75639070D01*
X143104976Y-75624654D01*
X143122219Y-75611866D01*
X143140632Y-75600830D01*
X143160038Y-75591651D01*
X143180250Y-75584419D01*
X143201074Y-75579203D01*
X143222309Y-75576053D01*
X143243750Y-75575000D01*
X143756250Y-75575000D01*
X143777691Y-75576053D01*
X143777691Y-75576053D01*
G37*
D11*
X143500000Y-76012500D03*
D10*
G36*
X143777691Y-74001053D02*
G01*
X143798926Y-74004203D01*
X143819750Y-74009419D01*
X143839962Y-74016651D01*
X143859368Y-74025830D01*
X143877781Y-74036866D01*
X143895024Y-74049654D01*
X143910930Y-74064070D01*
X143925346Y-74079976D01*
X143938134Y-74097219D01*
X143949170Y-74115632D01*
X143958349Y-74135038D01*
X143965581Y-74155250D01*
X143970797Y-74176074D01*
X143973947Y-74197309D01*
X143975000Y-74218750D01*
X143975000Y-74656250D01*
X143973947Y-74677691D01*
X143970797Y-74698926D01*
X143965581Y-74719750D01*
X143958349Y-74739962D01*
X143949170Y-74759368D01*
X143938134Y-74777781D01*
X143925346Y-74795024D01*
X143910930Y-74810930D01*
X143895024Y-74825346D01*
X143877781Y-74838134D01*
X143859368Y-74849170D01*
X143839962Y-74858349D01*
X143819750Y-74865581D01*
X143798926Y-74870797D01*
X143777691Y-74873947D01*
X143756250Y-74875000D01*
X143243750Y-74875000D01*
X143222309Y-74873947D01*
X143201074Y-74870797D01*
X143180250Y-74865581D01*
X143160038Y-74858349D01*
X143140632Y-74849170D01*
X143122219Y-74838134D01*
X143104976Y-74825346D01*
X143089070Y-74810930D01*
X143074654Y-74795024D01*
X143061866Y-74777781D01*
X143050830Y-74759368D01*
X143041651Y-74739962D01*
X143034419Y-74719750D01*
X143029203Y-74698926D01*
X143026053Y-74677691D01*
X143025000Y-74656250D01*
X143025000Y-74218750D01*
X143026053Y-74197309D01*
X143029203Y-74176074D01*
X143034419Y-74155250D01*
X143041651Y-74135038D01*
X143050830Y-74115632D01*
X143061866Y-74097219D01*
X143074654Y-74079976D01*
X143089070Y-74064070D01*
X143104976Y-74049654D01*
X143122219Y-74036866D01*
X143140632Y-74025830D01*
X143160038Y-74016651D01*
X143180250Y-74009419D01*
X143201074Y-74004203D01*
X143222309Y-74001053D01*
X143243750Y-74000000D01*
X143756250Y-74000000D01*
X143777691Y-74001053D01*
X143777691Y-74001053D01*
G37*
D11*
X143500000Y-74437500D03*
D10*
G36*
X137277691Y-75576053D02*
G01*
X137298926Y-75579203D01*
X137319750Y-75584419D01*
X137339962Y-75591651D01*
X137359368Y-75600830D01*
X137377781Y-75611866D01*
X137395024Y-75624654D01*
X137410930Y-75639070D01*
X137425346Y-75654976D01*
X137438134Y-75672219D01*
X137449170Y-75690632D01*
X137458349Y-75710038D01*
X137465581Y-75730250D01*
X137470797Y-75751074D01*
X137473947Y-75772309D01*
X137475000Y-75793750D01*
X137475000Y-76231250D01*
X137473947Y-76252691D01*
X137470797Y-76273926D01*
X137465581Y-76294750D01*
X137458349Y-76314962D01*
X137449170Y-76334368D01*
X137438134Y-76352781D01*
X137425346Y-76370024D01*
X137410930Y-76385930D01*
X137395024Y-76400346D01*
X137377781Y-76413134D01*
X137359368Y-76424170D01*
X137339962Y-76433349D01*
X137319750Y-76440581D01*
X137298926Y-76445797D01*
X137277691Y-76448947D01*
X137256250Y-76450000D01*
X136743750Y-76450000D01*
X136722309Y-76448947D01*
X136701074Y-76445797D01*
X136680250Y-76440581D01*
X136660038Y-76433349D01*
X136640632Y-76424170D01*
X136622219Y-76413134D01*
X136604976Y-76400346D01*
X136589070Y-76385930D01*
X136574654Y-76370024D01*
X136561866Y-76352781D01*
X136550830Y-76334368D01*
X136541651Y-76314962D01*
X136534419Y-76294750D01*
X136529203Y-76273926D01*
X136526053Y-76252691D01*
X136525000Y-76231250D01*
X136525000Y-75793750D01*
X136526053Y-75772309D01*
X136529203Y-75751074D01*
X136534419Y-75730250D01*
X136541651Y-75710038D01*
X136550830Y-75690632D01*
X136561866Y-75672219D01*
X136574654Y-75654976D01*
X136589070Y-75639070D01*
X136604976Y-75624654D01*
X136622219Y-75611866D01*
X136640632Y-75600830D01*
X136660038Y-75591651D01*
X136680250Y-75584419D01*
X136701074Y-75579203D01*
X136722309Y-75576053D01*
X136743750Y-75575000D01*
X137256250Y-75575000D01*
X137277691Y-75576053D01*
X137277691Y-75576053D01*
G37*
D11*
X137000000Y-76012500D03*
D10*
G36*
X137277691Y-74001053D02*
G01*
X137298926Y-74004203D01*
X137319750Y-74009419D01*
X137339962Y-74016651D01*
X137359368Y-74025830D01*
X137377781Y-74036866D01*
X137395024Y-74049654D01*
X137410930Y-74064070D01*
X137425346Y-74079976D01*
X137438134Y-74097219D01*
X137449170Y-74115632D01*
X137458349Y-74135038D01*
X137465581Y-74155250D01*
X137470797Y-74176074D01*
X137473947Y-74197309D01*
X137475000Y-74218750D01*
X137475000Y-74656250D01*
X137473947Y-74677691D01*
X137470797Y-74698926D01*
X137465581Y-74719750D01*
X137458349Y-74739962D01*
X137449170Y-74759368D01*
X137438134Y-74777781D01*
X137425346Y-74795024D01*
X137410930Y-74810930D01*
X137395024Y-74825346D01*
X137377781Y-74838134D01*
X137359368Y-74849170D01*
X137339962Y-74858349D01*
X137319750Y-74865581D01*
X137298926Y-74870797D01*
X137277691Y-74873947D01*
X137256250Y-74875000D01*
X136743750Y-74875000D01*
X136722309Y-74873947D01*
X136701074Y-74870797D01*
X136680250Y-74865581D01*
X136660038Y-74858349D01*
X136640632Y-74849170D01*
X136622219Y-74838134D01*
X136604976Y-74825346D01*
X136589070Y-74810930D01*
X136574654Y-74795024D01*
X136561866Y-74777781D01*
X136550830Y-74759368D01*
X136541651Y-74739962D01*
X136534419Y-74719750D01*
X136529203Y-74698926D01*
X136526053Y-74677691D01*
X136525000Y-74656250D01*
X136525000Y-74218750D01*
X136526053Y-74197309D01*
X136529203Y-74176074D01*
X136534419Y-74155250D01*
X136541651Y-74135038D01*
X136550830Y-74115632D01*
X136561866Y-74097219D01*
X136574654Y-74079976D01*
X136589070Y-74064070D01*
X136604976Y-74049654D01*
X136622219Y-74036866D01*
X136640632Y-74025830D01*
X136660038Y-74016651D01*
X136680250Y-74009419D01*
X136701074Y-74004203D01*
X136722309Y-74001053D01*
X136743750Y-74000000D01*
X137256250Y-74000000D01*
X137277691Y-74001053D01*
X137277691Y-74001053D01*
G37*
D11*
X137000000Y-74437500D03*
D10*
G36*
X116544603Y-105325963D02*
G01*
X116564018Y-105328843D01*
X116583057Y-105333612D01*
X116601537Y-105340224D01*
X116619279Y-105348616D01*
X116636114Y-105358706D01*
X116651879Y-105370398D01*
X116666421Y-105383579D01*
X116679602Y-105398121D01*
X116691294Y-105413886D01*
X116701384Y-105430721D01*
X116709776Y-105448463D01*
X116716388Y-105466943D01*
X116721157Y-105485982D01*
X116724037Y-105505397D01*
X116725000Y-105525000D01*
X116725000Y-107125000D01*
X116724037Y-107144603D01*
X116721157Y-107164018D01*
X116716388Y-107183057D01*
X116709776Y-107201537D01*
X116701384Y-107219279D01*
X116691294Y-107236114D01*
X116679602Y-107251879D01*
X116666421Y-107266421D01*
X116651879Y-107279602D01*
X116636114Y-107291294D01*
X116619279Y-107301384D01*
X116601537Y-107309776D01*
X116583057Y-107316388D01*
X116564018Y-107321157D01*
X116544603Y-107324037D01*
X116525000Y-107325000D01*
X115925000Y-107325000D01*
X115905397Y-107324037D01*
X115885982Y-107321157D01*
X115866943Y-107316388D01*
X115848463Y-107309776D01*
X115830721Y-107301384D01*
X115813886Y-107291294D01*
X115798121Y-107279602D01*
X115783579Y-107266421D01*
X115770398Y-107251879D01*
X115758706Y-107236114D01*
X115748616Y-107219279D01*
X115740224Y-107201537D01*
X115733612Y-107183057D01*
X115728843Y-107164018D01*
X115725963Y-107144603D01*
X115725000Y-107125000D01*
X115725000Y-105525000D01*
X115725963Y-105505397D01*
X115728843Y-105485982D01*
X115733612Y-105466943D01*
X115740224Y-105448463D01*
X115748616Y-105430721D01*
X115758706Y-105413886D01*
X115770398Y-105398121D01*
X115783579Y-105383579D01*
X115798121Y-105370398D01*
X115813886Y-105358706D01*
X115830721Y-105348616D01*
X115848463Y-105340224D01*
X115866943Y-105333612D01*
X115885982Y-105328843D01*
X115905397Y-105325963D01*
X115925000Y-105325000D01*
X116525000Y-105325000D01*
X116544603Y-105325963D01*
X116544603Y-105325963D01*
G37*
D14*
X116225000Y-106325000D03*
D10*
G36*
X114044603Y-105325963D02*
G01*
X114064018Y-105328843D01*
X114083057Y-105333612D01*
X114101537Y-105340224D01*
X114119279Y-105348616D01*
X114136114Y-105358706D01*
X114151879Y-105370398D01*
X114166421Y-105383579D01*
X114179602Y-105398121D01*
X114191294Y-105413886D01*
X114201384Y-105430721D01*
X114209776Y-105448463D01*
X114216388Y-105466943D01*
X114221157Y-105485982D01*
X114224037Y-105505397D01*
X114225000Y-105525000D01*
X114225000Y-107125000D01*
X114224037Y-107144603D01*
X114221157Y-107164018D01*
X114216388Y-107183057D01*
X114209776Y-107201537D01*
X114201384Y-107219279D01*
X114191294Y-107236114D01*
X114179602Y-107251879D01*
X114166421Y-107266421D01*
X114151879Y-107279602D01*
X114136114Y-107291294D01*
X114119279Y-107301384D01*
X114101537Y-107309776D01*
X114083057Y-107316388D01*
X114064018Y-107321157D01*
X114044603Y-107324037D01*
X114025000Y-107325000D01*
X113425000Y-107325000D01*
X113405397Y-107324037D01*
X113385982Y-107321157D01*
X113366943Y-107316388D01*
X113348463Y-107309776D01*
X113330721Y-107301384D01*
X113313886Y-107291294D01*
X113298121Y-107279602D01*
X113283579Y-107266421D01*
X113270398Y-107251879D01*
X113258706Y-107236114D01*
X113248616Y-107219279D01*
X113240224Y-107201537D01*
X113233612Y-107183057D01*
X113228843Y-107164018D01*
X113225963Y-107144603D01*
X113225000Y-107125000D01*
X113225000Y-105525000D01*
X113225963Y-105505397D01*
X113228843Y-105485982D01*
X113233612Y-105466943D01*
X113240224Y-105448463D01*
X113248616Y-105430721D01*
X113258706Y-105413886D01*
X113270398Y-105398121D01*
X113283579Y-105383579D01*
X113298121Y-105370398D01*
X113313886Y-105358706D01*
X113330721Y-105348616D01*
X113348463Y-105340224D01*
X113366943Y-105333612D01*
X113385982Y-105328843D01*
X113405397Y-105325963D01*
X113425000Y-105325000D01*
X114025000Y-105325000D01*
X114044603Y-105325963D01*
X114044603Y-105325963D01*
G37*
D14*
X113725000Y-106325000D03*
D10*
G36*
X150043542Y-85326174D02*
G01*
X150067203Y-85329684D01*
X150090407Y-85335496D01*
X150112929Y-85343554D01*
X150134553Y-85353782D01*
X150155070Y-85366079D01*
X150174283Y-85380329D01*
X150192007Y-85396393D01*
X150208071Y-85414117D01*
X150222321Y-85433330D01*
X150234618Y-85453847D01*
X150244846Y-85475471D01*
X150252904Y-85497993D01*
X150258716Y-85521197D01*
X150262226Y-85544858D01*
X150263400Y-85568750D01*
X150263400Y-86481250D01*
X150262226Y-86505142D01*
X150258716Y-86528803D01*
X150252904Y-86552007D01*
X150244846Y-86574529D01*
X150234618Y-86596153D01*
X150222321Y-86616670D01*
X150208071Y-86635883D01*
X150192007Y-86653607D01*
X150174283Y-86669671D01*
X150155070Y-86683921D01*
X150134553Y-86696218D01*
X150112929Y-86706446D01*
X150090407Y-86714504D01*
X150067203Y-86720316D01*
X150043542Y-86723826D01*
X150019650Y-86725000D01*
X149532150Y-86725000D01*
X149508258Y-86723826D01*
X149484597Y-86720316D01*
X149461393Y-86714504D01*
X149438871Y-86706446D01*
X149417247Y-86696218D01*
X149396730Y-86683921D01*
X149377517Y-86669671D01*
X149359793Y-86653607D01*
X149343729Y-86635883D01*
X149329479Y-86616670D01*
X149317182Y-86596153D01*
X149306954Y-86574529D01*
X149298896Y-86552007D01*
X149293084Y-86528803D01*
X149289574Y-86505142D01*
X149288400Y-86481250D01*
X149288400Y-85568750D01*
X149289574Y-85544858D01*
X149293084Y-85521197D01*
X149298896Y-85497993D01*
X149306954Y-85475471D01*
X149317182Y-85453847D01*
X149329479Y-85433330D01*
X149343729Y-85414117D01*
X149359793Y-85396393D01*
X149377517Y-85380329D01*
X149396730Y-85366079D01*
X149417247Y-85353782D01*
X149438871Y-85343554D01*
X149461393Y-85335496D01*
X149484597Y-85329684D01*
X149508258Y-85326174D01*
X149532150Y-85325000D01*
X150019650Y-85325000D01*
X150043542Y-85326174D01*
X150043542Y-85326174D01*
G37*
D15*
X149775900Y-86025000D03*
D10*
G36*
X148168542Y-85326174D02*
G01*
X148192203Y-85329684D01*
X148215407Y-85335496D01*
X148237929Y-85343554D01*
X148259553Y-85353782D01*
X148280070Y-85366079D01*
X148299283Y-85380329D01*
X148317007Y-85396393D01*
X148333071Y-85414117D01*
X148347321Y-85433330D01*
X148359618Y-85453847D01*
X148369846Y-85475471D01*
X148377904Y-85497993D01*
X148383716Y-85521197D01*
X148387226Y-85544858D01*
X148388400Y-85568750D01*
X148388400Y-86481250D01*
X148387226Y-86505142D01*
X148383716Y-86528803D01*
X148377904Y-86552007D01*
X148369846Y-86574529D01*
X148359618Y-86596153D01*
X148347321Y-86616670D01*
X148333071Y-86635883D01*
X148317007Y-86653607D01*
X148299283Y-86669671D01*
X148280070Y-86683921D01*
X148259553Y-86696218D01*
X148237929Y-86706446D01*
X148215407Y-86714504D01*
X148192203Y-86720316D01*
X148168542Y-86723826D01*
X148144650Y-86725000D01*
X147657150Y-86725000D01*
X147633258Y-86723826D01*
X147609597Y-86720316D01*
X147586393Y-86714504D01*
X147563871Y-86706446D01*
X147542247Y-86696218D01*
X147521730Y-86683921D01*
X147502517Y-86669671D01*
X147484793Y-86653607D01*
X147468729Y-86635883D01*
X147454479Y-86616670D01*
X147442182Y-86596153D01*
X147431954Y-86574529D01*
X147423896Y-86552007D01*
X147418084Y-86528803D01*
X147414574Y-86505142D01*
X147413400Y-86481250D01*
X147413400Y-85568750D01*
X147414574Y-85544858D01*
X147418084Y-85521197D01*
X147423896Y-85497993D01*
X147431954Y-85475471D01*
X147442182Y-85453847D01*
X147454479Y-85433330D01*
X147468729Y-85414117D01*
X147484793Y-85396393D01*
X147502517Y-85380329D01*
X147521730Y-85366079D01*
X147542247Y-85353782D01*
X147563871Y-85343554D01*
X147586393Y-85335496D01*
X147609597Y-85329684D01*
X147633258Y-85326174D01*
X147657150Y-85325000D01*
X148144650Y-85325000D01*
X148168542Y-85326174D01*
X148168542Y-85326174D01*
G37*
D15*
X147900900Y-86025000D03*
D10*
G36*
X156377691Y-92626053D02*
G01*
X156398926Y-92629203D01*
X156419750Y-92634419D01*
X156439962Y-92641651D01*
X156459368Y-92650830D01*
X156477781Y-92661866D01*
X156495024Y-92674654D01*
X156510930Y-92689070D01*
X156525346Y-92704976D01*
X156538134Y-92722219D01*
X156549170Y-92740632D01*
X156558349Y-92760038D01*
X156565581Y-92780250D01*
X156570797Y-92801074D01*
X156573947Y-92822309D01*
X156575000Y-92843750D01*
X156575000Y-93356250D01*
X156573947Y-93377691D01*
X156570797Y-93398926D01*
X156565581Y-93419750D01*
X156558349Y-93439962D01*
X156549170Y-93459368D01*
X156538134Y-93477781D01*
X156525346Y-93495024D01*
X156510930Y-93510930D01*
X156495024Y-93525346D01*
X156477781Y-93538134D01*
X156459368Y-93549170D01*
X156439962Y-93558349D01*
X156419750Y-93565581D01*
X156398926Y-93570797D01*
X156377691Y-93573947D01*
X156356250Y-93575000D01*
X155918750Y-93575000D01*
X155897309Y-93573947D01*
X155876074Y-93570797D01*
X155855250Y-93565581D01*
X155835038Y-93558349D01*
X155815632Y-93549170D01*
X155797219Y-93538134D01*
X155779976Y-93525346D01*
X155764070Y-93510930D01*
X155749654Y-93495024D01*
X155736866Y-93477781D01*
X155725830Y-93459368D01*
X155716651Y-93439962D01*
X155709419Y-93419750D01*
X155704203Y-93398926D01*
X155701053Y-93377691D01*
X155700000Y-93356250D01*
X155700000Y-92843750D01*
X155701053Y-92822309D01*
X155704203Y-92801074D01*
X155709419Y-92780250D01*
X155716651Y-92760038D01*
X155725830Y-92740632D01*
X155736866Y-92722219D01*
X155749654Y-92704976D01*
X155764070Y-92689070D01*
X155779976Y-92674654D01*
X155797219Y-92661866D01*
X155815632Y-92650830D01*
X155835038Y-92641651D01*
X155855250Y-92634419D01*
X155876074Y-92629203D01*
X155897309Y-92626053D01*
X155918750Y-92625000D01*
X156356250Y-92625000D01*
X156377691Y-92626053D01*
X156377691Y-92626053D01*
G37*
D11*
X156137500Y-93100000D03*
D10*
G36*
X154802691Y-92626053D02*
G01*
X154823926Y-92629203D01*
X154844750Y-92634419D01*
X154864962Y-92641651D01*
X154884368Y-92650830D01*
X154902781Y-92661866D01*
X154920024Y-92674654D01*
X154935930Y-92689070D01*
X154950346Y-92704976D01*
X154963134Y-92722219D01*
X154974170Y-92740632D01*
X154983349Y-92760038D01*
X154990581Y-92780250D01*
X154995797Y-92801074D01*
X154998947Y-92822309D01*
X155000000Y-92843750D01*
X155000000Y-93356250D01*
X154998947Y-93377691D01*
X154995797Y-93398926D01*
X154990581Y-93419750D01*
X154983349Y-93439962D01*
X154974170Y-93459368D01*
X154963134Y-93477781D01*
X154950346Y-93495024D01*
X154935930Y-93510930D01*
X154920024Y-93525346D01*
X154902781Y-93538134D01*
X154884368Y-93549170D01*
X154864962Y-93558349D01*
X154844750Y-93565581D01*
X154823926Y-93570797D01*
X154802691Y-93573947D01*
X154781250Y-93575000D01*
X154343750Y-93575000D01*
X154322309Y-93573947D01*
X154301074Y-93570797D01*
X154280250Y-93565581D01*
X154260038Y-93558349D01*
X154240632Y-93549170D01*
X154222219Y-93538134D01*
X154204976Y-93525346D01*
X154189070Y-93510930D01*
X154174654Y-93495024D01*
X154161866Y-93477781D01*
X154150830Y-93459368D01*
X154141651Y-93439962D01*
X154134419Y-93419750D01*
X154129203Y-93398926D01*
X154126053Y-93377691D01*
X154125000Y-93356250D01*
X154125000Y-92843750D01*
X154126053Y-92822309D01*
X154129203Y-92801074D01*
X154134419Y-92780250D01*
X154141651Y-92760038D01*
X154150830Y-92740632D01*
X154161866Y-92722219D01*
X154174654Y-92704976D01*
X154189070Y-92689070D01*
X154204976Y-92674654D01*
X154222219Y-92661866D01*
X154240632Y-92650830D01*
X154260038Y-92641651D01*
X154280250Y-92634419D01*
X154301074Y-92629203D01*
X154322309Y-92626053D01*
X154343750Y-92625000D01*
X154781250Y-92625000D01*
X154802691Y-92626053D01*
X154802691Y-92626053D01*
G37*
D11*
X154562500Y-93100000D03*
D10*
G36*
X149652691Y-87301053D02*
G01*
X149673926Y-87304203D01*
X149694750Y-87309419D01*
X149714962Y-87316651D01*
X149734368Y-87325830D01*
X149752781Y-87336866D01*
X149770024Y-87349654D01*
X149785930Y-87364070D01*
X149800346Y-87379976D01*
X149813134Y-87397219D01*
X149824170Y-87415632D01*
X149833349Y-87435038D01*
X149840581Y-87455250D01*
X149845797Y-87476074D01*
X149848947Y-87497309D01*
X149850000Y-87518750D01*
X149850000Y-88031250D01*
X149848947Y-88052691D01*
X149845797Y-88073926D01*
X149840581Y-88094750D01*
X149833349Y-88114962D01*
X149824170Y-88134368D01*
X149813134Y-88152781D01*
X149800346Y-88170024D01*
X149785930Y-88185930D01*
X149770024Y-88200346D01*
X149752781Y-88213134D01*
X149734368Y-88224170D01*
X149714962Y-88233349D01*
X149694750Y-88240581D01*
X149673926Y-88245797D01*
X149652691Y-88248947D01*
X149631250Y-88250000D01*
X149193750Y-88250000D01*
X149172309Y-88248947D01*
X149151074Y-88245797D01*
X149130250Y-88240581D01*
X149110038Y-88233349D01*
X149090632Y-88224170D01*
X149072219Y-88213134D01*
X149054976Y-88200346D01*
X149039070Y-88185930D01*
X149024654Y-88170024D01*
X149011866Y-88152781D01*
X149000830Y-88134368D01*
X148991651Y-88114962D01*
X148984419Y-88094750D01*
X148979203Y-88073926D01*
X148976053Y-88052691D01*
X148975000Y-88031250D01*
X148975000Y-87518750D01*
X148976053Y-87497309D01*
X148979203Y-87476074D01*
X148984419Y-87455250D01*
X148991651Y-87435038D01*
X149000830Y-87415632D01*
X149011866Y-87397219D01*
X149024654Y-87379976D01*
X149039070Y-87364070D01*
X149054976Y-87349654D01*
X149072219Y-87336866D01*
X149090632Y-87325830D01*
X149110038Y-87316651D01*
X149130250Y-87309419D01*
X149151074Y-87304203D01*
X149172309Y-87301053D01*
X149193750Y-87300000D01*
X149631250Y-87300000D01*
X149652691Y-87301053D01*
X149652691Y-87301053D01*
G37*
D11*
X149412500Y-87775000D03*
D10*
G36*
X148077691Y-87301053D02*
G01*
X148098926Y-87304203D01*
X148119750Y-87309419D01*
X148139962Y-87316651D01*
X148159368Y-87325830D01*
X148177781Y-87336866D01*
X148195024Y-87349654D01*
X148210930Y-87364070D01*
X148225346Y-87379976D01*
X148238134Y-87397219D01*
X148249170Y-87415632D01*
X148258349Y-87435038D01*
X148265581Y-87455250D01*
X148270797Y-87476074D01*
X148273947Y-87497309D01*
X148275000Y-87518750D01*
X148275000Y-88031250D01*
X148273947Y-88052691D01*
X148270797Y-88073926D01*
X148265581Y-88094750D01*
X148258349Y-88114962D01*
X148249170Y-88134368D01*
X148238134Y-88152781D01*
X148225346Y-88170024D01*
X148210930Y-88185930D01*
X148195024Y-88200346D01*
X148177781Y-88213134D01*
X148159368Y-88224170D01*
X148139962Y-88233349D01*
X148119750Y-88240581D01*
X148098926Y-88245797D01*
X148077691Y-88248947D01*
X148056250Y-88250000D01*
X147618750Y-88250000D01*
X147597309Y-88248947D01*
X147576074Y-88245797D01*
X147555250Y-88240581D01*
X147535038Y-88233349D01*
X147515632Y-88224170D01*
X147497219Y-88213134D01*
X147479976Y-88200346D01*
X147464070Y-88185930D01*
X147449654Y-88170024D01*
X147436866Y-88152781D01*
X147425830Y-88134368D01*
X147416651Y-88114962D01*
X147409419Y-88094750D01*
X147404203Y-88073926D01*
X147401053Y-88052691D01*
X147400000Y-88031250D01*
X147400000Y-87518750D01*
X147401053Y-87497309D01*
X147404203Y-87476074D01*
X147409419Y-87455250D01*
X147416651Y-87435038D01*
X147425830Y-87415632D01*
X147436866Y-87397219D01*
X147449654Y-87379976D01*
X147464070Y-87364070D01*
X147479976Y-87349654D01*
X147497219Y-87336866D01*
X147515632Y-87325830D01*
X147535038Y-87316651D01*
X147555250Y-87309419D01*
X147576074Y-87304203D01*
X147597309Y-87301053D01*
X147618750Y-87300000D01*
X148056250Y-87300000D01*
X148077691Y-87301053D01*
X148077691Y-87301053D01*
G37*
D11*
X147837500Y-87775000D03*
D10*
G36*
X166277691Y-94576053D02*
G01*
X166298926Y-94579203D01*
X166319750Y-94584419D01*
X166339962Y-94591651D01*
X166359368Y-94600830D01*
X166377781Y-94611866D01*
X166395024Y-94624654D01*
X166410930Y-94639070D01*
X166425346Y-94654976D01*
X166438134Y-94672219D01*
X166449170Y-94690632D01*
X166458349Y-94710038D01*
X166465581Y-94730250D01*
X166470797Y-94751074D01*
X166473947Y-94772309D01*
X166475000Y-94793750D01*
X166475000Y-95231250D01*
X166473947Y-95252691D01*
X166470797Y-95273926D01*
X166465581Y-95294750D01*
X166458349Y-95314962D01*
X166449170Y-95334368D01*
X166438134Y-95352781D01*
X166425346Y-95370024D01*
X166410930Y-95385930D01*
X166395024Y-95400346D01*
X166377781Y-95413134D01*
X166359368Y-95424170D01*
X166339962Y-95433349D01*
X166319750Y-95440581D01*
X166298926Y-95445797D01*
X166277691Y-95448947D01*
X166256250Y-95450000D01*
X165743750Y-95450000D01*
X165722309Y-95448947D01*
X165701074Y-95445797D01*
X165680250Y-95440581D01*
X165660038Y-95433349D01*
X165640632Y-95424170D01*
X165622219Y-95413134D01*
X165604976Y-95400346D01*
X165589070Y-95385930D01*
X165574654Y-95370024D01*
X165561866Y-95352781D01*
X165550830Y-95334368D01*
X165541651Y-95314962D01*
X165534419Y-95294750D01*
X165529203Y-95273926D01*
X165526053Y-95252691D01*
X165525000Y-95231250D01*
X165525000Y-94793750D01*
X165526053Y-94772309D01*
X165529203Y-94751074D01*
X165534419Y-94730250D01*
X165541651Y-94710038D01*
X165550830Y-94690632D01*
X165561866Y-94672219D01*
X165574654Y-94654976D01*
X165589070Y-94639070D01*
X165604976Y-94624654D01*
X165622219Y-94611866D01*
X165640632Y-94600830D01*
X165660038Y-94591651D01*
X165680250Y-94584419D01*
X165701074Y-94579203D01*
X165722309Y-94576053D01*
X165743750Y-94575000D01*
X166256250Y-94575000D01*
X166277691Y-94576053D01*
X166277691Y-94576053D01*
G37*
D11*
X166000000Y-95012500D03*
D10*
G36*
X166277691Y-96151053D02*
G01*
X166298926Y-96154203D01*
X166319750Y-96159419D01*
X166339962Y-96166651D01*
X166359368Y-96175830D01*
X166377781Y-96186866D01*
X166395024Y-96199654D01*
X166410930Y-96214070D01*
X166425346Y-96229976D01*
X166438134Y-96247219D01*
X166449170Y-96265632D01*
X166458349Y-96285038D01*
X166465581Y-96305250D01*
X166470797Y-96326074D01*
X166473947Y-96347309D01*
X166475000Y-96368750D01*
X166475000Y-96806250D01*
X166473947Y-96827691D01*
X166470797Y-96848926D01*
X166465581Y-96869750D01*
X166458349Y-96889962D01*
X166449170Y-96909368D01*
X166438134Y-96927781D01*
X166425346Y-96945024D01*
X166410930Y-96960930D01*
X166395024Y-96975346D01*
X166377781Y-96988134D01*
X166359368Y-96999170D01*
X166339962Y-97008349D01*
X166319750Y-97015581D01*
X166298926Y-97020797D01*
X166277691Y-97023947D01*
X166256250Y-97025000D01*
X165743750Y-97025000D01*
X165722309Y-97023947D01*
X165701074Y-97020797D01*
X165680250Y-97015581D01*
X165660038Y-97008349D01*
X165640632Y-96999170D01*
X165622219Y-96988134D01*
X165604976Y-96975346D01*
X165589070Y-96960930D01*
X165574654Y-96945024D01*
X165561866Y-96927781D01*
X165550830Y-96909368D01*
X165541651Y-96889962D01*
X165534419Y-96869750D01*
X165529203Y-96848926D01*
X165526053Y-96827691D01*
X165525000Y-96806250D01*
X165525000Y-96368750D01*
X165526053Y-96347309D01*
X165529203Y-96326074D01*
X165534419Y-96305250D01*
X165541651Y-96285038D01*
X165550830Y-96265632D01*
X165561866Y-96247219D01*
X165574654Y-96229976D01*
X165589070Y-96214070D01*
X165604976Y-96199654D01*
X165622219Y-96186866D01*
X165640632Y-96175830D01*
X165660038Y-96166651D01*
X165680250Y-96159419D01*
X165701074Y-96154203D01*
X165722309Y-96151053D01*
X165743750Y-96150000D01*
X166256250Y-96150000D01*
X166277691Y-96151053D01*
X166277691Y-96151053D01*
G37*
D11*
X166000000Y-96587500D03*
D10*
G36*
X156377691Y-94176053D02*
G01*
X156398926Y-94179203D01*
X156419750Y-94184419D01*
X156439962Y-94191651D01*
X156459368Y-94200830D01*
X156477781Y-94211866D01*
X156495024Y-94224654D01*
X156510930Y-94239070D01*
X156525346Y-94254976D01*
X156538134Y-94272219D01*
X156549170Y-94290632D01*
X156558349Y-94310038D01*
X156565581Y-94330250D01*
X156570797Y-94351074D01*
X156573947Y-94372309D01*
X156575000Y-94393750D01*
X156575000Y-94906250D01*
X156573947Y-94927691D01*
X156570797Y-94948926D01*
X156565581Y-94969750D01*
X156558349Y-94989962D01*
X156549170Y-95009368D01*
X156538134Y-95027781D01*
X156525346Y-95045024D01*
X156510930Y-95060930D01*
X156495024Y-95075346D01*
X156477781Y-95088134D01*
X156459368Y-95099170D01*
X156439962Y-95108349D01*
X156419750Y-95115581D01*
X156398926Y-95120797D01*
X156377691Y-95123947D01*
X156356250Y-95125000D01*
X155918750Y-95125000D01*
X155897309Y-95123947D01*
X155876074Y-95120797D01*
X155855250Y-95115581D01*
X155835038Y-95108349D01*
X155815632Y-95099170D01*
X155797219Y-95088134D01*
X155779976Y-95075346D01*
X155764070Y-95060930D01*
X155749654Y-95045024D01*
X155736866Y-95027781D01*
X155725830Y-95009368D01*
X155716651Y-94989962D01*
X155709419Y-94969750D01*
X155704203Y-94948926D01*
X155701053Y-94927691D01*
X155700000Y-94906250D01*
X155700000Y-94393750D01*
X155701053Y-94372309D01*
X155704203Y-94351074D01*
X155709419Y-94330250D01*
X155716651Y-94310038D01*
X155725830Y-94290632D01*
X155736866Y-94272219D01*
X155749654Y-94254976D01*
X155764070Y-94239070D01*
X155779976Y-94224654D01*
X155797219Y-94211866D01*
X155815632Y-94200830D01*
X155835038Y-94191651D01*
X155855250Y-94184419D01*
X155876074Y-94179203D01*
X155897309Y-94176053D01*
X155918750Y-94175000D01*
X156356250Y-94175000D01*
X156377691Y-94176053D01*
X156377691Y-94176053D01*
G37*
D11*
X156137500Y-94650000D03*
D10*
G36*
X154802691Y-94176053D02*
G01*
X154823926Y-94179203D01*
X154844750Y-94184419D01*
X154864962Y-94191651D01*
X154884368Y-94200830D01*
X154902781Y-94211866D01*
X154920024Y-94224654D01*
X154935930Y-94239070D01*
X154950346Y-94254976D01*
X154963134Y-94272219D01*
X154974170Y-94290632D01*
X154983349Y-94310038D01*
X154990581Y-94330250D01*
X154995797Y-94351074D01*
X154998947Y-94372309D01*
X155000000Y-94393750D01*
X155000000Y-94906250D01*
X154998947Y-94927691D01*
X154995797Y-94948926D01*
X154990581Y-94969750D01*
X154983349Y-94989962D01*
X154974170Y-95009368D01*
X154963134Y-95027781D01*
X154950346Y-95045024D01*
X154935930Y-95060930D01*
X154920024Y-95075346D01*
X154902781Y-95088134D01*
X154884368Y-95099170D01*
X154864962Y-95108349D01*
X154844750Y-95115581D01*
X154823926Y-95120797D01*
X154802691Y-95123947D01*
X154781250Y-95125000D01*
X154343750Y-95125000D01*
X154322309Y-95123947D01*
X154301074Y-95120797D01*
X154280250Y-95115581D01*
X154260038Y-95108349D01*
X154240632Y-95099170D01*
X154222219Y-95088134D01*
X154204976Y-95075346D01*
X154189070Y-95060930D01*
X154174654Y-95045024D01*
X154161866Y-95027781D01*
X154150830Y-95009368D01*
X154141651Y-94989962D01*
X154134419Y-94969750D01*
X154129203Y-94948926D01*
X154126053Y-94927691D01*
X154125000Y-94906250D01*
X154125000Y-94393750D01*
X154126053Y-94372309D01*
X154129203Y-94351074D01*
X154134419Y-94330250D01*
X154141651Y-94310038D01*
X154150830Y-94290632D01*
X154161866Y-94272219D01*
X154174654Y-94254976D01*
X154189070Y-94239070D01*
X154204976Y-94224654D01*
X154222219Y-94211866D01*
X154240632Y-94200830D01*
X154260038Y-94191651D01*
X154280250Y-94184419D01*
X154301074Y-94179203D01*
X154322309Y-94176053D01*
X154343750Y-94175000D01*
X154781250Y-94175000D01*
X154802691Y-94176053D01*
X154802691Y-94176053D01*
G37*
D11*
X154562500Y-94650000D03*
D10*
G36*
X145677691Y-103251053D02*
G01*
X145698926Y-103254203D01*
X145719750Y-103259419D01*
X145739962Y-103266651D01*
X145759368Y-103275830D01*
X145777781Y-103286866D01*
X145795024Y-103299654D01*
X145810930Y-103314070D01*
X145825346Y-103329976D01*
X145838134Y-103347219D01*
X145849170Y-103365632D01*
X145858349Y-103385038D01*
X145865581Y-103405250D01*
X145870797Y-103426074D01*
X145873947Y-103447309D01*
X145875000Y-103468750D01*
X145875000Y-103906250D01*
X145873947Y-103927691D01*
X145870797Y-103948926D01*
X145865581Y-103969750D01*
X145858349Y-103989962D01*
X145849170Y-104009368D01*
X145838134Y-104027781D01*
X145825346Y-104045024D01*
X145810930Y-104060930D01*
X145795024Y-104075346D01*
X145777781Y-104088134D01*
X145759368Y-104099170D01*
X145739962Y-104108349D01*
X145719750Y-104115581D01*
X145698926Y-104120797D01*
X145677691Y-104123947D01*
X145656250Y-104125000D01*
X145143750Y-104125000D01*
X145122309Y-104123947D01*
X145101074Y-104120797D01*
X145080250Y-104115581D01*
X145060038Y-104108349D01*
X145040632Y-104099170D01*
X145022219Y-104088134D01*
X145004976Y-104075346D01*
X144989070Y-104060930D01*
X144974654Y-104045024D01*
X144961866Y-104027781D01*
X144950830Y-104009368D01*
X144941651Y-103989962D01*
X144934419Y-103969750D01*
X144929203Y-103948926D01*
X144926053Y-103927691D01*
X144925000Y-103906250D01*
X144925000Y-103468750D01*
X144926053Y-103447309D01*
X144929203Y-103426074D01*
X144934419Y-103405250D01*
X144941651Y-103385038D01*
X144950830Y-103365632D01*
X144961866Y-103347219D01*
X144974654Y-103329976D01*
X144989070Y-103314070D01*
X145004976Y-103299654D01*
X145022219Y-103286866D01*
X145040632Y-103275830D01*
X145060038Y-103266651D01*
X145080250Y-103259419D01*
X145101074Y-103254203D01*
X145122309Y-103251053D01*
X145143750Y-103250000D01*
X145656250Y-103250000D01*
X145677691Y-103251053D01*
X145677691Y-103251053D01*
G37*
D11*
X145400000Y-103687500D03*
D10*
G36*
X145677691Y-101676053D02*
G01*
X145698926Y-101679203D01*
X145719750Y-101684419D01*
X145739962Y-101691651D01*
X145759368Y-101700830D01*
X145777781Y-101711866D01*
X145795024Y-101724654D01*
X145810930Y-101739070D01*
X145825346Y-101754976D01*
X145838134Y-101772219D01*
X145849170Y-101790632D01*
X145858349Y-101810038D01*
X145865581Y-101830250D01*
X145870797Y-101851074D01*
X145873947Y-101872309D01*
X145875000Y-101893750D01*
X145875000Y-102331250D01*
X145873947Y-102352691D01*
X145870797Y-102373926D01*
X145865581Y-102394750D01*
X145858349Y-102414962D01*
X145849170Y-102434368D01*
X145838134Y-102452781D01*
X145825346Y-102470024D01*
X145810930Y-102485930D01*
X145795024Y-102500346D01*
X145777781Y-102513134D01*
X145759368Y-102524170D01*
X145739962Y-102533349D01*
X145719750Y-102540581D01*
X145698926Y-102545797D01*
X145677691Y-102548947D01*
X145656250Y-102550000D01*
X145143750Y-102550000D01*
X145122309Y-102548947D01*
X145101074Y-102545797D01*
X145080250Y-102540581D01*
X145060038Y-102533349D01*
X145040632Y-102524170D01*
X145022219Y-102513134D01*
X145004976Y-102500346D01*
X144989070Y-102485930D01*
X144974654Y-102470024D01*
X144961866Y-102452781D01*
X144950830Y-102434368D01*
X144941651Y-102414962D01*
X144934419Y-102394750D01*
X144929203Y-102373926D01*
X144926053Y-102352691D01*
X144925000Y-102331250D01*
X144925000Y-101893750D01*
X144926053Y-101872309D01*
X144929203Y-101851074D01*
X144934419Y-101830250D01*
X144941651Y-101810038D01*
X144950830Y-101790632D01*
X144961866Y-101772219D01*
X144974654Y-101754976D01*
X144989070Y-101739070D01*
X145004976Y-101724654D01*
X145022219Y-101711866D01*
X145040632Y-101700830D01*
X145060038Y-101691651D01*
X145080250Y-101684419D01*
X145101074Y-101679203D01*
X145122309Y-101676053D01*
X145143750Y-101675000D01*
X145656250Y-101675000D01*
X145677691Y-101676053D01*
X145677691Y-101676053D01*
G37*
D11*
X145400000Y-102112500D03*
D10*
G36*
X153677691Y-102076053D02*
G01*
X153698926Y-102079203D01*
X153719750Y-102084419D01*
X153739962Y-102091651D01*
X153759368Y-102100830D01*
X153777781Y-102111866D01*
X153795024Y-102124654D01*
X153810930Y-102139070D01*
X153825346Y-102154976D01*
X153838134Y-102172219D01*
X153849170Y-102190632D01*
X153858349Y-102210038D01*
X153865581Y-102230250D01*
X153870797Y-102251074D01*
X153873947Y-102272309D01*
X153875000Y-102293750D01*
X153875000Y-102806250D01*
X153873947Y-102827691D01*
X153870797Y-102848926D01*
X153865581Y-102869750D01*
X153858349Y-102889962D01*
X153849170Y-102909368D01*
X153838134Y-102927781D01*
X153825346Y-102945024D01*
X153810930Y-102960930D01*
X153795024Y-102975346D01*
X153777781Y-102988134D01*
X153759368Y-102999170D01*
X153739962Y-103008349D01*
X153719750Y-103015581D01*
X153698926Y-103020797D01*
X153677691Y-103023947D01*
X153656250Y-103025000D01*
X153218750Y-103025000D01*
X153197309Y-103023947D01*
X153176074Y-103020797D01*
X153155250Y-103015581D01*
X153135038Y-103008349D01*
X153115632Y-102999170D01*
X153097219Y-102988134D01*
X153079976Y-102975346D01*
X153064070Y-102960930D01*
X153049654Y-102945024D01*
X153036866Y-102927781D01*
X153025830Y-102909368D01*
X153016651Y-102889962D01*
X153009419Y-102869750D01*
X153004203Y-102848926D01*
X153001053Y-102827691D01*
X153000000Y-102806250D01*
X153000000Y-102293750D01*
X153001053Y-102272309D01*
X153004203Y-102251074D01*
X153009419Y-102230250D01*
X153016651Y-102210038D01*
X153025830Y-102190632D01*
X153036866Y-102172219D01*
X153049654Y-102154976D01*
X153064070Y-102139070D01*
X153079976Y-102124654D01*
X153097219Y-102111866D01*
X153115632Y-102100830D01*
X153135038Y-102091651D01*
X153155250Y-102084419D01*
X153176074Y-102079203D01*
X153197309Y-102076053D01*
X153218750Y-102075000D01*
X153656250Y-102075000D01*
X153677691Y-102076053D01*
X153677691Y-102076053D01*
G37*
D11*
X153437500Y-102550000D03*
D10*
G36*
X152102691Y-102076053D02*
G01*
X152123926Y-102079203D01*
X152144750Y-102084419D01*
X152164962Y-102091651D01*
X152184368Y-102100830D01*
X152202781Y-102111866D01*
X152220024Y-102124654D01*
X152235930Y-102139070D01*
X152250346Y-102154976D01*
X152263134Y-102172219D01*
X152274170Y-102190632D01*
X152283349Y-102210038D01*
X152290581Y-102230250D01*
X152295797Y-102251074D01*
X152298947Y-102272309D01*
X152300000Y-102293750D01*
X152300000Y-102806250D01*
X152298947Y-102827691D01*
X152295797Y-102848926D01*
X152290581Y-102869750D01*
X152283349Y-102889962D01*
X152274170Y-102909368D01*
X152263134Y-102927781D01*
X152250346Y-102945024D01*
X152235930Y-102960930D01*
X152220024Y-102975346D01*
X152202781Y-102988134D01*
X152184368Y-102999170D01*
X152164962Y-103008349D01*
X152144750Y-103015581D01*
X152123926Y-103020797D01*
X152102691Y-103023947D01*
X152081250Y-103025000D01*
X151643750Y-103025000D01*
X151622309Y-103023947D01*
X151601074Y-103020797D01*
X151580250Y-103015581D01*
X151560038Y-103008349D01*
X151540632Y-102999170D01*
X151522219Y-102988134D01*
X151504976Y-102975346D01*
X151489070Y-102960930D01*
X151474654Y-102945024D01*
X151461866Y-102927781D01*
X151450830Y-102909368D01*
X151441651Y-102889962D01*
X151434419Y-102869750D01*
X151429203Y-102848926D01*
X151426053Y-102827691D01*
X151425000Y-102806250D01*
X151425000Y-102293750D01*
X151426053Y-102272309D01*
X151429203Y-102251074D01*
X151434419Y-102230250D01*
X151441651Y-102210038D01*
X151450830Y-102190632D01*
X151461866Y-102172219D01*
X151474654Y-102154976D01*
X151489070Y-102139070D01*
X151504976Y-102124654D01*
X151522219Y-102111866D01*
X151540632Y-102100830D01*
X151560038Y-102091651D01*
X151580250Y-102084419D01*
X151601074Y-102079203D01*
X151622309Y-102076053D01*
X151643750Y-102075000D01*
X152081250Y-102075000D01*
X152102691Y-102076053D01*
X152102691Y-102076053D01*
G37*
D11*
X151862500Y-102550000D03*
D10*
G36*
X139361091Y-96451053D02*
G01*
X139382326Y-96454203D01*
X139403150Y-96459419D01*
X139423362Y-96466651D01*
X139442768Y-96475830D01*
X139461181Y-96486866D01*
X139478424Y-96499654D01*
X139494330Y-96514070D01*
X139508746Y-96529976D01*
X139521534Y-96547219D01*
X139532570Y-96565632D01*
X139541749Y-96585038D01*
X139548981Y-96605250D01*
X139554197Y-96626074D01*
X139557347Y-96647309D01*
X139558400Y-96668750D01*
X139558400Y-97181250D01*
X139557347Y-97202691D01*
X139554197Y-97223926D01*
X139548981Y-97244750D01*
X139541749Y-97264962D01*
X139532570Y-97284368D01*
X139521534Y-97302781D01*
X139508746Y-97320024D01*
X139494330Y-97335930D01*
X139478424Y-97350346D01*
X139461181Y-97363134D01*
X139442768Y-97374170D01*
X139423362Y-97383349D01*
X139403150Y-97390581D01*
X139382326Y-97395797D01*
X139361091Y-97398947D01*
X139339650Y-97400000D01*
X138902150Y-97400000D01*
X138880709Y-97398947D01*
X138859474Y-97395797D01*
X138838650Y-97390581D01*
X138818438Y-97383349D01*
X138799032Y-97374170D01*
X138780619Y-97363134D01*
X138763376Y-97350346D01*
X138747470Y-97335930D01*
X138733054Y-97320024D01*
X138720266Y-97302781D01*
X138709230Y-97284368D01*
X138700051Y-97264962D01*
X138692819Y-97244750D01*
X138687603Y-97223926D01*
X138684453Y-97202691D01*
X138683400Y-97181250D01*
X138683400Y-96668750D01*
X138684453Y-96647309D01*
X138687603Y-96626074D01*
X138692819Y-96605250D01*
X138700051Y-96585038D01*
X138709230Y-96565632D01*
X138720266Y-96547219D01*
X138733054Y-96529976D01*
X138747470Y-96514070D01*
X138763376Y-96499654D01*
X138780619Y-96486866D01*
X138799032Y-96475830D01*
X138818438Y-96466651D01*
X138838650Y-96459419D01*
X138859474Y-96454203D01*
X138880709Y-96451053D01*
X138902150Y-96450000D01*
X139339650Y-96450000D01*
X139361091Y-96451053D01*
X139361091Y-96451053D01*
G37*
D11*
X139120900Y-96925000D03*
D10*
G36*
X140936091Y-96451053D02*
G01*
X140957326Y-96454203D01*
X140978150Y-96459419D01*
X140998362Y-96466651D01*
X141017768Y-96475830D01*
X141036181Y-96486866D01*
X141053424Y-96499654D01*
X141069330Y-96514070D01*
X141083746Y-96529976D01*
X141096534Y-96547219D01*
X141107570Y-96565632D01*
X141116749Y-96585038D01*
X141123981Y-96605250D01*
X141129197Y-96626074D01*
X141132347Y-96647309D01*
X141133400Y-96668750D01*
X141133400Y-97181250D01*
X141132347Y-97202691D01*
X141129197Y-97223926D01*
X141123981Y-97244750D01*
X141116749Y-97264962D01*
X141107570Y-97284368D01*
X141096534Y-97302781D01*
X141083746Y-97320024D01*
X141069330Y-97335930D01*
X141053424Y-97350346D01*
X141036181Y-97363134D01*
X141017768Y-97374170D01*
X140998362Y-97383349D01*
X140978150Y-97390581D01*
X140957326Y-97395797D01*
X140936091Y-97398947D01*
X140914650Y-97400000D01*
X140477150Y-97400000D01*
X140455709Y-97398947D01*
X140434474Y-97395797D01*
X140413650Y-97390581D01*
X140393438Y-97383349D01*
X140374032Y-97374170D01*
X140355619Y-97363134D01*
X140338376Y-97350346D01*
X140322470Y-97335930D01*
X140308054Y-97320024D01*
X140295266Y-97302781D01*
X140284230Y-97284368D01*
X140275051Y-97264962D01*
X140267819Y-97244750D01*
X140262603Y-97223926D01*
X140259453Y-97202691D01*
X140258400Y-97181250D01*
X140258400Y-96668750D01*
X140259453Y-96647309D01*
X140262603Y-96626074D01*
X140267819Y-96605250D01*
X140275051Y-96585038D01*
X140284230Y-96565632D01*
X140295266Y-96547219D01*
X140308054Y-96529976D01*
X140322470Y-96514070D01*
X140338376Y-96499654D01*
X140355619Y-96486866D01*
X140374032Y-96475830D01*
X140393438Y-96466651D01*
X140413650Y-96459419D01*
X140434474Y-96454203D01*
X140455709Y-96451053D01*
X140477150Y-96450000D01*
X140914650Y-96450000D01*
X140936091Y-96451053D01*
X140936091Y-96451053D01*
G37*
D11*
X140695900Y-96925000D03*
D10*
G36*
X108516291Y-110667253D02*
G01*
X108537526Y-110670403D01*
X108558350Y-110675619D01*
X108578562Y-110682851D01*
X108597968Y-110692030D01*
X108616381Y-110703066D01*
X108633624Y-110715854D01*
X108649530Y-110730270D01*
X108663946Y-110746176D01*
X108676734Y-110763419D01*
X108687770Y-110781832D01*
X108696949Y-110801238D01*
X108704181Y-110821450D01*
X108709397Y-110842274D01*
X108712547Y-110863509D01*
X108713600Y-110884950D01*
X108713600Y-111397450D01*
X108712547Y-111418891D01*
X108709397Y-111440126D01*
X108704181Y-111460950D01*
X108696949Y-111481162D01*
X108687770Y-111500568D01*
X108676734Y-111518981D01*
X108663946Y-111536224D01*
X108649530Y-111552130D01*
X108633624Y-111566546D01*
X108616381Y-111579334D01*
X108597968Y-111590370D01*
X108578562Y-111599549D01*
X108558350Y-111606781D01*
X108537526Y-111611997D01*
X108516291Y-111615147D01*
X108494850Y-111616200D01*
X108057350Y-111616200D01*
X108035909Y-111615147D01*
X108014674Y-111611997D01*
X107993850Y-111606781D01*
X107973638Y-111599549D01*
X107954232Y-111590370D01*
X107935819Y-111579334D01*
X107918576Y-111566546D01*
X107902670Y-111552130D01*
X107888254Y-111536224D01*
X107875466Y-111518981D01*
X107864430Y-111500568D01*
X107855251Y-111481162D01*
X107848019Y-111460950D01*
X107842803Y-111440126D01*
X107839653Y-111418891D01*
X107838600Y-111397450D01*
X107838600Y-110884950D01*
X107839653Y-110863509D01*
X107842803Y-110842274D01*
X107848019Y-110821450D01*
X107855251Y-110801238D01*
X107864430Y-110781832D01*
X107875466Y-110763419D01*
X107888254Y-110746176D01*
X107902670Y-110730270D01*
X107918576Y-110715854D01*
X107935819Y-110703066D01*
X107954232Y-110692030D01*
X107973638Y-110682851D01*
X107993850Y-110675619D01*
X108014674Y-110670403D01*
X108035909Y-110667253D01*
X108057350Y-110666200D01*
X108494850Y-110666200D01*
X108516291Y-110667253D01*
X108516291Y-110667253D01*
G37*
D11*
X108276100Y-111141200D03*
D10*
G36*
X110091291Y-110667253D02*
G01*
X110112526Y-110670403D01*
X110133350Y-110675619D01*
X110153562Y-110682851D01*
X110172968Y-110692030D01*
X110191381Y-110703066D01*
X110208624Y-110715854D01*
X110224530Y-110730270D01*
X110238946Y-110746176D01*
X110251734Y-110763419D01*
X110262770Y-110781832D01*
X110271949Y-110801238D01*
X110279181Y-110821450D01*
X110284397Y-110842274D01*
X110287547Y-110863509D01*
X110288600Y-110884950D01*
X110288600Y-111397450D01*
X110287547Y-111418891D01*
X110284397Y-111440126D01*
X110279181Y-111460950D01*
X110271949Y-111481162D01*
X110262770Y-111500568D01*
X110251734Y-111518981D01*
X110238946Y-111536224D01*
X110224530Y-111552130D01*
X110208624Y-111566546D01*
X110191381Y-111579334D01*
X110172968Y-111590370D01*
X110153562Y-111599549D01*
X110133350Y-111606781D01*
X110112526Y-111611997D01*
X110091291Y-111615147D01*
X110069850Y-111616200D01*
X109632350Y-111616200D01*
X109610909Y-111615147D01*
X109589674Y-111611997D01*
X109568850Y-111606781D01*
X109548638Y-111599549D01*
X109529232Y-111590370D01*
X109510819Y-111579334D01*
X109493576Y-111566546D01*
X109477670Y-111552130D01*
X109463254Y-111536224D01*
X109450466Y-111518981D01*
X109439430Y-111500568D01*
X109430251Y-111481162D01*
X109423019Y-111460950D01*
X109417803Y-111440126D01*
X109414653Y-111418891D01*
X109413600Y-111397450D01*
X109413600Y-110884950D01*
X109414653Y-110863509D01*
X109417803Y-110842274D01*
X109423019Y-110821450D01*
X109430251Y-110801238D01*
X109439430Y-110781832D01*
X109450466Y-110763419D01*
X109463254Y-110746176D01*
X109477670Y-110730270D01*
X109493576Y-110715854D01*
X109510819Y-110703066D01*
X109529232Y-110692030D01*
X109548638Y-110682851D01*
X109568850Y-110675619D01*
X109589674Y-110670403D01*
X109610909Y-110667253D01*
X109632350Y-110666200D01*
X110069850Y-110666200D01*
X110091291Y-110667253D01*
X110091291Y-110667253D01*
G37*
D11*
X109851100Y-111141200D03*
D10*
G36*
X148975691Y-103367053D02*
G01*
X148996926Y-103370203D01*
X149017750Y-103375419D01*
X149037962Y-103382651D01*
X149057368Y-103391830D01*
X149075781Y-103402866D01*
X149093024Y-103415654D01*
X149108930Y-103430070D01*
X149123346Y-103445976D01*
X149136134Y-103463219D01*
X149147170Y-103481632D01*
X149156349Y-103501038D01*
X149163581Y-103521250D01*
X149168797Y-103542074D01*
X149171947Y-103563309D01*
X149173000Y-103584750D01*
X149173000Y-104022250D01*
X149171947Y-104043691D01*
X149168797Y-104064926D01*
X149163581Y-104085750D01*
X149156349Y-104105962D01*
X149147170Y-104125368D01*
X149136134Y-104143781D01*
X149123346Y-104161024D01*
X149108930Y-104176930D01*
X149093024Y-104191346D01*
X149075781Y-104204134D01*
X149057368Y-104215170D01*
X149037962Y-104224349D01*
X149017750Y-104231581D01*
X148996926Y-104236797D01*
X148975691Y-104239947D01*
X148954250Y-104241000D01*
X148441750Y-104241000D01*
X148420309Y-104239947D01*
X148399074Y-104236797D01*
X148378250Y-104231581D01*
X148358038Y-104224349D01*
X148338632Y-104215170D01*
X148320219Y-104204134D01*
X148302976Y-104191346D01*
X148287070Y-104176930D01*
X148272654Y-104161024D01*
X148259866Y-104143781D01*
X148248830Y-104125368D01*
X148239651Y-104105962D01*
X148232419Y-104085750D01*
X148227203Y-104064926D01*
X148224053Y-104043691D01*
X148223000Y-104022250D01*
X148223000Y-103584750D01*
X148224053Y-103563309D01*
X148227203Y-103542074D01*
X148232419Y-103521250D01*
X148239651Y-103501038D01*
X148248830Y-103481632D01*
X148259866Y-103463219D01*
X148272654Y-103445976D01*
X148287070Y-103430070D01*
X148302976Y-103415654D01*
X148320219Y-103402866D01*
X148338632Y-103391830D01*
X148358038Y-103382651D01*
X148378250Y-103375419D01*
X148399074Y-103370203D01*
X148420309Y-103367053D01*
X148441750Y-103366000D01*
X148954250Y-103366000D01*
X148975691Y-103367053D01*
X148975691Y-103367053D01*
G37*
D11*
X148698000Y-103803500D03*
D10*
G36*
X148975691Y-101792053D02*
G01*
X148996926Y-101795203D01*
X149017750Y-101800419D01*
X149037962Y-101807651D01*
X149057368Y-101816830D01*
X149075781Y-101827866D01*
X149093024Y-101840654D01*
X149108930Y-101855070D01*
X149123346Y-101870976D01*
X149136134Y-101888219D01*
X149147170Y-101906632D01*
X149156349Y-101926038D01*
X149163581Y-101946250D01*
X149168797Y-101967074D01*
X149171947Y-101988309D01*
X149173000Y-102009750D01*
X149173000Y-102447250D01*
X149171947Y-102468691D01*
X149168797Y-102489926D01*
X149163581Y-102510750D01*
X149156349Y-102530962D01*
X149147170Y-102550368D01*
X149136134Y-102568781D01*
X149123346Y-102586024D01*
X149108930Y-102601930D01*
X149093024Y-102616346D01*
X149075781Y-102629134D01*
X149057368Y-102640170D01*
X149037962Y-102649349D01*
X149017750Y-102656581D01*
X148996926Y-102661797D01*
X148975691Y-102664947D01*
X148954250Y-102666000D01*
X148441750Y-102666000D01*
X148420309Y-102664947D01*
X148399074Y-102661797D01*
X148378250Y-102656581D01*
X148358038Y-102649349D01*
X148338632Y-102640170D01*
X148320219Y-102629134D01*
X148302976Y-102616346D01*
X148287070Y-102601930D01*
X148272654Y-102586024D01*
X148259866Y-102568781D01*
X148248830Y-102550368D01*
X148239651Y-102530962D01*
X148232419Y-102510750D01*
X148227203Y-102489926D01*
X148224053Y-102468691D01*
X148223000Y-102447250D01*
X148223000Y-102009750D01*
X148224053Y-101988309D01*
X148227203Y-101967074D01*
X148232419Y-101946250D01*
X148239651Y-101926038D01*
X148248830Y-101906632D01*
X148259866Y-101888219D01*
X148272654Y-101870976D01*
X148287070Y-101855070D01*
X148302976Y-101840654D01*
X148320219Y-101827866D01*
X148338632Y-101816830D01*
X148358038Y-101807651D01*
X148378250Y-101800419D01*
X148399074Y-101795203D01*
X148420309Y-101792053D01*
X148441750Y-101791000D01*
X148954250Y-101791000D01*
X148975691Y-101792053D01*
X148975691Y-101792053D01*
G37*
D11*
X148698000Y-102228500D03*
D10*
G36*
X154777691Y-88276053D02*
G01*
X154798926Y-88279203D01*
X154819750Y-88284419D01*
X154839962Y-88291651D01*
X154859368Y-88300830D01*
X154877781Y-88311866D01*
X154895024Y-88324654D01*
X154910930Y-88339070D01*
X154925346Y-88354976D01*
X154938134Y-88372219D01*
X154949170Y-88390632D01*
X154958349Y-88410038D01*
X154965581Y-88430250D01*
X154970797Y-88451074D01*
X154973947Y-88472309D01*
X154975000Y-88493750D01*
X154975000Y-89006250D01*
X154973947Y-89027691D01*
X154970797Y-89048926D01*
X154965581Y-89069750D01*
X154958349Y-89089962D01*
X154949170Y-89109368D01*
X154938134Y-89127781D01*
X154925346Y-89145024D01*
X154910930Y-89160930D01*
X154895024Y-89175346D01*
X154877781Y-89188134D01*
X154859368Y-89199170D01*
X154839962Y-89208349D01*
X154819750Y-89215581D01*
X154798926Y-89220797D01*
X154777691Y-89223947D01*
X154756250Y-89225000D01*
X154318750Y-89225000D01*
X154297309Y-89223947D01*
X154276074Y-89220797D01*
X154255250Y-89215581D01*
X154235038Y-89208349D01*
X154215632Y-89199170D01*
X154197219Y-89188134D01*
X154179976Y-89175346D01*
X154164070Y-89160930D01*
X154149654Y-89145024D01*
X154136866Y-89127781D01*
X154125830Y-89109368D01*
X154116651Y-89089962D01*
X154109419Y-89069750D01*
X154104203Y-89048926D01*
X154101053Y-89027691D01*
X154100000Y-89006250D01*
X154100000Y-88493750D01*
X154101053Y-88472309D01*
X154104203Y-88451074D01*
X154109419Y-88430250D01*
X154116651Y-88410038D01*
X154125830Y-88390632D01*
X154136866Y-88372219D01*
X154149654Y-88354976D01*
X154164070Y-88339070D01*
X154179976Y-88324654D01*
X154197219Y-88311866D01*
X154215632Y-88300830D01*
X154235038Y-88291651D01*
X154255250Y-88284419D01*
X154276074Y-88279203D01*
X154297309Y-88276053D01*
X154318750Y-88275000D01*
X154756250Y-88275000D01*
X154777691Y-88276053D01*
X154777691Y-88276053D01*
G37*
D11*
X154537500Y-88750000D03*
D10*
G36*
X153202691Y-88276053D02*
G01*
X153223926Y-88279203D01*
X153244750Y-88284419D01*
X153264962Y-88291651D01*
X153284368Y-88300830D01*
X153302781Y-88311866D01*
X153320024Y-88324654D01*
X153335930Y-88339070D01*
X153350346Y-88354976D01*
X153363134Y-88372219D01*
X153374170Y-88390632D01*
X153383349Y-88410038D01*
X153390581Y-88430250D01*
X153395797Y-88451074D01*
X153398947Y-88472309D01*
X153400000Y-88493750D01*
X153400000Y-89006250D01*
X153398947Y-89027691D01*
X153395797Y-89048926D01*
X153390581Y-89069750D01*
X153383349Y-89089962D01*
X153374170Y-89109368D01*
X153363134Y-89127781D01*
X153350346Y-89145024D01*
X153335930Y-89160930D01*
X153320024Y-89175346D01*
X153302781Y-89188134D01*
X153284368Y-89199170D01*
X153264962Y-89208349D01*
X153244750Y-89215581D01*
X153223926Y-89220797D01*
X153202691Y-89223947D01*
X153181250Y-89225000D01*
X152743750Y-89225000D01*
X152722309Y-89223947D01*
X152701074Y-89220797D01*
X152680250Y-89215581D01*
X152660038Y-89208349D01*
X152640632Y-89199170D01*
X152622219Y-89188134D01*
X152604976Y-89175346D01*
X152589070Y-89160930D01*
X152574654Y-89145024D01*
X152561866Y-89127781D01*
X152550830Y-89109368D01*
X152541651Y-89089962D01*
X152534419Y-89069750D01*
X152529203Y-89048926D01*
X152526053Y-89027691D01*
X152525000Y-89006250D01*
X152525000Y-88493750D01*
X152526053Y-88472309D01*
X152529203Y-88451074D01*
X152534419Y-88430250D01*
X152541651Y-88410038D01*
X152550830Y-88390632D01*
X152561866Y-88372219D01*
X152574654Y-88354976D01*
X152589070Y-88339070D01*
X152604976Y-88324654D01*
X152622219Y-88311866D01*
X152640632Y-88300830D01*
X152660038Y-88291651D01*
X152680250Y-88284419D01*
X152701074Y-88279203D01*
X152722309Y-88276053D01*
X152743750Y-88275000D01*
X153181250Y-88275000D01*
X153202691Y-88276053D01*
X153202691Y-88276053D01*
G37*
D11*
X152962500Y-88750000D03*
D10*
G36*
X156390691Y-95741253D02*
G01*
X156411926Y-95744403D01*
X156432750Y-95749619D01*
X156452962Y-95756851D01*
X156472368Y-95766030D01*
X156490781Y-95777066D01*
X156508024Y-95789854D01*
X156523930Y-95804270D01*
X156538346Y-95820176D01*
X156551134Y-95837419D01*
X156562170Y-95855832D01*
X156571349Y-95875238D01*
X156578581Y-95895450D01*
X156583797Y-95916274D01*
X156586947Y-95937509D01*
X156588000Y-95958950D01*
X156588000Y-96471450D01*
X156586947Y-96492891D01*
X156583797Y-96514126D01*
X156578581Y-96534950D01*
X156571349Y-96555162D01*
X156562170Y-96574568D01*
X156551134Y-96592981D01*
X156538346Y-96610224D01*
X156523930Y-96626130D01*
X156508024Y-96640546D01*
X156490781Y-96653334D01*
X156472368Y-96664370D01*
X156452962Y-96673549D01*
X156432750Y-96680781D01*
X156411926Y-96685997D01*
X156390691Y-96689147D01*
X156369250Y-96690200D01*
X155931750Y-96690200D01*
X155910309Y-96689147D01*
X155889074Y-96685997D01*
X155868250Y-96680781D01*
X155848038Y-96673549D01*
X155828632Y-96664370D01*
X155810219Y-96653334D01*
X155792976Y-96640546D01*
X155777070Y-96626130D01*
X155762654Y-96610224D01*
X155749866Y-96592981D01*
X155738830Y-96574568D01*
X155729651Y-96555162D01*
X155722419Y-96534950D01*
X155717203Y-96514126D01*
X155714053Y-96492891D01*
X155713000Y-96471450D01*
X155713000Y-95958950D01*
X155714053Y-95937509D01*
X155717203Y-95916274D01*
X155722419Y-95895450D01*
X155729651Y-95875238D01*
X155738830Y-95855832D01*
X155749866Y-95837419D01*
X155762654Y-95820176D01*
X155777070Y-95804270D01*
X155792976Y-95789854D01*
X155810219Y-95777066D01*
X155828632Y-95766030D01*
X155848038Y-95756851D01*
X155868250Y-95749619D01*
X155889074Y-95744403D01*
X155910309Y-95741253D01*
X155931750Y-95740200D01*
X156369250Y-95740200D01*
X156390691Y-95741253D01*
X156390691Y-95741253D01*
G37*
D11*
X156150500Y-96215200D03*
D10*
G36*
X154815691Y-95741253D02*
G01*
X154836926Y-95744403D01*
X154857750Y-95749619D01*
X154877962Y-95756851D01*
X154897368Y-95766030D01*
X154915781Y-95777066D01*
X154933024Y-95789854D01*
X154948930Y-95804270D01*
X154963346Y-95820176D01*
X154976134Y-95837419D01*
X154987170Y-95855832D01*
X154996349Y-95875238D01*
X155003581Y-95895450D01*
X155008797Y-95916274D01*
X155011947Y-95937509D01*
X155013000Y-95958950D01*
X155013000Y-96471450D01*
X155011947Y-96492891D01*
X155008797Y-96514126D01*
X155003581Y-96534950D01*
X154996349Y-96555162D01*
X154987170Y-96574568D01*
X154976134Y-96592981D01*
X154963346Y-96610224D01*
X154948930Y-96626130D01*
X154933024Y-96640546D01*
X154915781Y-96653334D01*
X154897368Y-96664370D01*
X154877962Y-96673549D01*
X154857750Y-96680781D01*
X154836926Y-96685997D01*
X154815691Y-96689147D01*
X154794250Y-96690200D01*
X154356750Y-96690200D01*
X154335309Y-96689147D01*
X154314074Y-96685997D01*
X154293250Y-96680781D01*
X154273038Y-96673549D01*
X154253632Y-96664370D01*
X154235219Y-96653334D01*
X154217976Y-96640546D01*
X154202070Y-96626130D01*
X154187654Y-96610224D01*
X154174866Y-96592981D01*
X154163830Y-96574568D01*
X154154651Y-96555162D01*
X154147419Y-96534950D01*
X154142203Y-96514126D01*
X154139053Y-96492891D01*
X154138000Y-96471450D01*
X154138000Y-95958950D01*
X154139053Y-95937509D01*
X154142203Y-95916274D01*
X154147419Y-95895450D01*
X154154651Y-95875238D01*
X154163830Y-95855832D01*
X154174866Y-95837419D01*
X154187654Y-95820176D01*
X154202070Y-95804270D01*
X154217976Y-95789854D01*
X154235219Y-95777066D01*
X154253632Y-95766030D01*
X154273038Y-95756851D01*
X154293250Y-95749619D01*
X154314074Y-95744403D01*
X154335309Y-95741253D01*
X154356750Y-95740200D01*
X154794250Y-95740200D01*
X154815691Y-95741253D01*
X154815691Y-95741253D01*
G37*
D11*
X154575500Y-96215200D03*
D10*
G36*
X177965191Y-112826053D02*
G01*
X177986426Y-112829203D01*
X178007250Y-112834419D01*
X178027462Y-112841651D01*
X178046868Y-112850830D01*
X178065281Y-112861866D01*
X178082524Y-112874654D01*
X178098430Y-112889070D01*
X178112846Y-112904976D01*
X178125634Y-112922219D01*
X178136670Y-112940632D01*
X178145849Y-112960038D01*
X178153081Y-112980250D01*
X178158297Y-113001074D01*
X178161447Y-113022309D01*
X178162500Y-113043750D01*
X178162500Y-113556250D01*
X178161447Y-113577691D01*
X178158297Y-113598926D01*
X178153081Y-113619750D01*
X178145849Y-113639962D01*
X178136670Y-113659368D01*
X178125634Y-113677781D01*
X178112846Y-113695024D01*
X178098430Y-113710930D01*
X178082524Y-113725346D01*
X178065281Y-113738134D01*
X178046868Y-113749170D01*
X178027462Y-113758349D01*
X178007250Y-113765581D01*
X177986426Y-113770797D01*
X177965191Y-113773947D01*
X177943750Y-113775000D01*
X177506250Y-113775000D01*
X177484809Y-113773947D01*
X177463574Y-113770797D01*
X177442750Y-113765581D01*
X177422538Y-113758349D01*
X177403132Y-113749170D01*
X177384719Y-113738134D01*
X177367476Y-113725346D01*
X177351570Y-113710930D01*
X177337154Y-113695024D01*
X177324366Y-113677781D01*
X177313330Y-113659368D01*
X177304151Y-113639962D01*
X177296919Y-113619750D01*
X177291703Y-113598926D01*
X177288553Y-113577691D01*
X177287500Y-113556250D01*
X177287500Y-113043750D01*
X177288553Y-113022309D01*
X177291703Y-113001074D01*
X177296919Y-112980250D01*
X177304151Y-112960038D01*
X177313330Y-112940632D01*
X177324366Y-112922219D01*
X177337154Y-112904976D01*
X177351570Y-112889070D01*
X177367476Y-112874654D01*
X177384719Y-112861866D01*
X177403132Y-112850830D01*
X177422538Y-112841651D01*
X177442750Y-112834419D01*
X177463574Y-112829203D01*
X177484809Y-112826053D01*
X177506250Y-112825000D01*
X177943750Y-112825000D01*
X177965191Y-112826053D01*
X177965191Y-112826053D01*
G37*
D11*
X177725000Y-113300000D03*
D10*
G36*
X179540191Y-112826053D02*
G01*
X179561426Y-112829203D01*
X179582250Y-112834419D01*
X179602462Y-112841651D01*
X179621868Y-112850830D01*
X179640281Y-112861866D01*
X179657524Y-112874654D01*
X179673430Y-112889070D01*
X179687846Y-112904976D01*
X179700634Y-112922219D01*
X179711670Y-112940632D01*
X179720849Y-112960038D01*
X179728081Y-112980250D01*
X179733297Y-113001074D01*
X179736447Y-113022309D01*
X179737500Y-113043750D01*
X179737500Y-113556250D01*
X179736447Y-113577691D01*
X179733297Y-113598926D01*
X179728081Y-113619750D01*
X179720849Y-113639962D01*
X179711670Y-113659368D01*
X179700634Y-113677781D01*
X179687846Y-113695024D01*
X179673430Y-113710930D01*
X179657524Y-113725346D01*
X179640281Y-113738134D01*
X179621868Y-113749170D01*
X179602462Y-113758349D01*
X179582250Y-113765581D01*
X179561426Y-113770797D01*
X179540191Y-113773947D01*
X179518750Y-113775000D01*
X179081250Y-113775000D01*
X179059809Y-113773947D01*
X179038574Y-113770797D01*
X179017750Y-113765581D01*
X178997538Y-113758349D01*
X178978132Y-113749170D01*
X178959719Y-113738134D01*
X178942476Y-113725346D01*
X178926570Y-113710930D01*
X178912154Y-113695024D01*
X178899366Y-113677781D01*
X178888330Y-113659368D01*
X178879151Y-113639962D01*
X178871919Y-113619750D01*
X178866703Y-113598926D01*
X178863553Y-113577691D01*
X178862500Y-113556250D01*
X178862500Y-113043750D01*
X178863553Y-113022309D01*
X178866703Y-113001074D01*
X178871919Y-112980250D01*
X178879151Y-112960038D01*
X178888330Y-112940632D01*
X178899366Y-112922219D01*
X178912154Y-112904976D01*
X178926570Y-112889070D01*
X178942476Y-112874654D01*
X178959719Y-112861866D01*
X178978132Y-112850830D01*
X178997538Y-112841651D01*
X179017750Y-112834419D01*
X179038574Y-112829203D01*
X179059809Y-112826053D01*
X179081250Y-112825000D01*
X179518750Y-112825000D01*
X179540191Y-112826053D01*
X179540191Y-112826053D01*
G37*
D11*
X179300000Y-113300000D03*
D10*
G36*
X139030142Y-97954774D02*
G01*
X139053803Y-97958284D01*
X139077007Y-97964096D01*
X139099529Y-97972154D01*
X139121153Y-97982382D01*
X139141670Y-97994679D01*
X139160883Y-98008929D01*
X139178607Y-98024993D01*
X139194671Y-98042717D01*
X139208921Y-98061930D01*
X139221218Y-98082447D01*
X139231446Y-98104071D01*
X139239504Y-98126593D01*
X139245316Y-98149797D01*
X139248826Y-98173458D01*
X139250000Y-98197350D01*
X139250000Y-99109850D01*
X139248826Y-99133742D01*
X139245316Y-99157403D01*
X139239504Y-99180607D01*
X139231446Y-99203129D01*
X139221218Y-99224753D01*
X139208921Y-99245270D01*
X139194671Y-99264483D01*
X139178607Y-99282207D01*
X139160883Y-99298271D01*
X139141670Y-99312521D01*
X139121153Y-99324818D01*
X139099529Y-99335046D01*
X139077007Y-99343104D01*
X139053803Y-99348916D01*
X139030142Y-99352426D01*
X139006250Y-99353600D01*
X138518750Y-99353600D01*
X138494858Y-99352426D01*
X138471197Y-99348916D01*
X138447993Y-99343104D01*
X138425471Y-99335046D01*
X138403847Y-99324818D01*
X138383330Y-99312521D01*
X138364117Y-99298271D01*
X138346393Y-99282207D01*
X138330329Y-99264483D01*
X138316079Y-99245270D01*
X138303782Y-99224753D01*
X138293554Y-99203129D01*
X138285496Y-99180607D01*
X138279684Y-99157403D01*
X138276174Y-99133742D01*
X138275000Y-99109850D01*
X138275000Y-98197350D01*
X138276174Y-98173458D01*
X138279684Y-98149797D01*
X138285496Y-98126593D01*
X138293554Y-98104071D01*
X138303782Y-98082447D01*
X138316079Y-98061930D01*
X138330329Y-98042717D01*
X138346393Y-98024993D01*
X138364117Y-98008929D01*
X138383330Y-97994679D01*
X138403847Y-97982382D01*
X138425471Y-97972154D01*
X138447993Y-97964096D01*
X138471197Y-97958284D01*
X138494858Y-97954774D01*
X138518750Y-97953600D01*
X139006250Y-97953600D01*
X139030142Y-97954774D01*
X139030142Y-97954774D01*
G37*
D15*
X138762500Y-98653600D03*
D10*
G36*
X140905142Y-97954774D02*
G01*
X140928803Y-97958284D01*
X140952007Y-97964096D01*
X140974529Y-97972154D01*
X140996153Y-97982382D01*
X141016670Y-97994679D01*
X141035883Y-98008929D01*
X141053607Y-98024993D01*
X141069671Y-98042717D01*
X141083921Y-98061930D01*
X141096218Y-98082447D01*
X141106446Y-98104071D01*
X141114504Y-98126593D01*
X141120316Y-98149797D01*
X141123826Y-98173458D01*
X141125000Y-98197350D01*
X141125000Y-99109850D01*
X141123826Y-99133742D01*
X141120316Y-99157403D01*
X141114504Y-99180607D01*
X141106446Y-99203129D01*
X141096218Y-99224753D01*
X141083921Y-99245270D01*
X141069671Y-99264483D01*
X141053607Y-99282207D01*
X141035883Y-99298271D01*
X141016670Y-99312521D01*
X140996153Y-99324818D01*
X140974529Y-99335046D01*
X140952007Y-99343104D01*
X140928803Y-99348916D01*
X140905142Y-99352426D01*
X140881250Y-99353600D01*
X140393750Y-99353600D01*
X140369858Y-99352426D01*
X140346197Y-99348916D01*
X140322993Y-99343104D01*
X140300471Y-99335046D01*
X140278847Y-99324818D01*
X140258330Y-99312521D01*
X140239117Y-99298271D01*
X140221393Y-99282207D01*
X140205329Y-99264483D01*
X140191079Y-99245270D01*
X140178782Y-99224753D01*
X140168554Y-99203129D01*
X140160496Y-99180607D01*
X140154684Y-99157403D01*
X140151174Y-99133742D01*
X140150000Y-99109850D01*
X140150000Y-98197350D01*
X140151174Y-98173458D01*
X140154684Y-98149797D01*
X140160496Y-98126593D01*
X140168554Y-98104071D01*
X140178782Y-98082447D01*
X140191079Y-98061930D01*
X140205329Y-98042717D01*
X140221393Y-98024993D01*
X140239117Y-98008929D01*
X140258330Y-97994679D01*
X140278847Y-97982382D01*
X140300471Y-97972154D01*
X140322993Y-97964096D01*
X140346197Y-97958284D01*
X140369858Y-97954774D01*
X140393750Y-97953600D01*
X140881250Y-97953600D01*
X140905142Y-97954774D01*
X140905142Y-97954774D01*
G37*
D15*
X140637500Y-98653600D03*
D10*
G36*
X158127691Y-103376053D02*
G01*
X158148926Y-103379203D01*
X158169750Y-103384419D01*
X158189962Y-103391651D01*
X158209368Y-103400830D01*
X158227781Y-103411866D01*
X158245024Y-103424654D01*
X158260930Y-103439070D01*
X158275346Y-103454976D01*
X158288134Y-103472219D01*
X158299170Y-103490632D01*
X158308349Y-103510038D01*
X158315581Y-103530250D01*
X158320797Y-103551074D01*
X158323947Y-103572309D01*
X158325000Y-103593750D01*
X158325000Y-104106250D01*
X158323947Y-104127691D01*
X158320797Y-104148926D01*
X158315581Y-104169750D01*
X158308349Y-104189962D01*
X158299170Y-104209368D01*
X158288134Y-104227781D01*
X158275346Y-104245024D01*
X158260930Y-104260930D01*
X158245024Y-104275346D01*
X158227781Y-104288134D01*
X158209368Y-104299170D01*
X158189962Y-104308349D01*
X158169750Y-104315581D01*
X158148926Y-104320797D01*
X158127691Y-104323947D01*
X158106250Y-104325000D01*
X157668750Y-104325000D01*
X157647309Y-104323947D01*
X157626074Y-104320797D01*
X157605250Y-104315581D01*
X157585038Y-104308349D01*
X157565632Y-104299170D01*
X157547219Y-104288134D01*
X157529976Y-104275346D01*
X157514070Y-104260930D01*
X157499654Y-104245024D01*
X157486866Y-104227781D01*
X157475830Y-104209368D01*
X157466651Y-104189962D01*
X157459419Y-104169750D01*
X157454203Y-104148926D01*
X157451053Y-104127691D01*
X157450000Y-104106250D01*
X157450000Y-103593750D01*
X157451053Y-103572309D01*
X157454203Y-103551074D01*
X157459419Y-103530250D01*
X157466651Y-103510038D01*
X157475830Y-103490632D01*
X157486866Y-103472219D01*
X157499654Y-103454976D01*
X157514070Y-103439070D01*
X157529976Y-103424654D01*
X157547219Y-103411866D01*
X157565632Y-103400830D01*
X157585038Y-103391651D01*
X157605250Y-103384419D01*
X157626074Y-103379203D01*
X157647309Y-103376053D01*
X157668750Y-103375000D01*
X158106250Y-103375000D01*
X158127691Y-103376053D01*
X158127691Y-103376053D01*
G37*
D11*
X157887500Y-103850000D03*
D10*
G36*
X156552691Y-103376053D02*
G01*
X156573926Y-103379203D01*
X156594750Y-103384419D01*
X156614962Y-103391651D01*
X156634368Y-103400830D01*
X156652781Y-103411866D01*
X156670024Y-103424654D01*
X156685930Y-103439070D01*
X156700346Y-103454976D01*
X156713134Y-103472219D01*
X156724170Y-103490632D01*
X156733349Y-103510038D01*
X156740581Y-103530250D01*
X156745797Y-103551074D01*
X156748947Y-103572309D01*
X156750000Y-103593750D01*
X156750000Y-104106250D01*
X156748947Y-104127691D01*
X156745797Y-104148926D01*
X156740581Y-104169750D01*
X156733349Y-104189962D01*
X156724170Y-104209368D01*
X156713134Y-104227781D01*
X156700346Y-104245024D01*
X156685930Y-104260930D01*
X156670024Y-104275346D01*
X156652781Y-104288134D01*
X156634368Y-104299170D01*
X156614962Y-104308349D01*
X156594750Y-104315581D01*
X156573926Y-104320797D01*
X156552691Y-104323947D01*
X156531250Y-104325000D01*
X156093750Y-104325000D01*
X156072309Y-104323947D01*
X156051074Y-104320797D01*
X156030250Y-104315581D01*
X156010038Y-104308349D01*
X155990632Y-104299170D01*
X155972219Y-104288134D01*
X155954976Y-104275346D01*
X155939070Y-104260930D01*
X155924654Y-104245024D01*
X155911866Y-104227781D01*
X155900830Y-104209368D01*
X155891651Y-104189962D01*
X155884419Y-104169750D01*
X155879203Y-104148926D01*
X155876053Y-104127691D01*
X155875000Y-104106250D01*
X155875000Y-103593750D01*
X155876053Y-103572309D01*
X155879203Y-103551074D01*
X155884419Y-103530250D01*
X155891651Y-103510038D01*
X155900830Y-103490632D01*
X155911866Y-103472219D01*
X155924654Y-103454976D01*
X155939070Y-103439070D01*
X155954976Y-103424654D01*
X155972219Y-103411866D01*
X155990632Y-103400830D01*
X156010038Y-103391651D01*
X156030250Y-103384419D01*
X156051074Y-103379203D01*
X156072309Y-103376053D01*
X156093750Y-103375000D01*
X156531250Y-103375000D01*
X156552691Y-103376053D01*
X156552691Y-103376053D01*
G37*
D11*
X156312500Y-103850000D03*
D10*
G36*
X147877691Y-110351053D02*
G01*
X147898926Y-110354203D01*
X147919750Y-110359419D01*
X147939962Y-110366651D01*
X147959368Y-110375830D01*
X147977781Y-110386866D01*
X147995024Y-110399654D01*
X148010930Y-110414070D01*
X148025346Y-110429976D01*
X148038134Y-110447219D01*
X148049170Y-110465632D01*
X148058349Y-110485038D01*
X148065581Y-110505250D01*
X148070797Y-110526074D01*
X148073947Y-110547309D01*
X148075000Y-110568750D01*
X148075000Y-111081250D01*
X148073947Y-111102691D01*
X148070797Y-111123926D01*
X148065581Y-111144750D01*
X148058349Y-111164962D01*
X148049170Y-111184368D01*
X148038134Y-111202781D01*
X148025346Y-111220024D01*
X148010930Y-111235930D01*
X147995024Y-111250346D01*
X147977781Y-111263134D01*
X147959368Y-111274170D01*
X147939962Y-111283349D01*
X147919750Y-111290581D01*
X147898926Y-111295797D01*
X147877691Y-111298947D01*
X147856250Y-111300000D01*
X147418750Y-111300000D01*
X147397309Y-111298947D01*
X147376074Y-111295797D01*
X147355250Y-111290581D01*
X147335038Y-111283349D01*
X147315632Y-111274170D01*
X147297219Y-111263134D01*
X147279976Y-111250346D01*
X147264070Y-111235930D01*
X147249654Y-111220024D01*
X147236866Y-111202781D01*
X147225830Y-111184368D01*
X147216651Y-111164962D01*
X147209419Y-111144750D01*
X147204203Y-111123926D01*
X147201053Y-111102691D01*
X147200000Y-111081250D01*
X147200000Y-110568750D01*
X147201053Y-110547309D01*
X147204203Y-110526074D01*
X147209419Y-110505250D01*
X147216651Y-110485038D01*
X147225830Y-110465632D01*
X147236866Y-110447219D01*
X147249654Y-110429976D01*
X147264070Y-110414070D01*
X147279976Y-110399654D01*
X147297219Y-110386866D01*
X147315632Y-110375830D01*
X147335038Y-110366651D01*
X147355250Y-110359419D01*
X147376074Y-110354203D01*
X147397309Y-110351053D01*
X147418750Y-110350000D01*
X147856250Y-110350000D01*
X147877691Y-110351053D01*
X147877691Y-110351053D01*
G37*
D11*
X147637500Y-110825000D03*
D10*
G36*
X146302691Y-110351053D02*
G01*
X146323926Y-110354203D01*
X146344750Y-110359419D01*
X146364962Y-110366651D01*
X146384368Y-110375830D01*
X146402781Y-110386866D01*
X146420024Y-110399654D01*
X146435930Y-110414070D01*
X146450346Y-110429976D01*
X146463134Y-110447219D01*
X146474170Y-110465632D01*
X146483349Y-110485038D01*
X146490581Y-110505250D01*
X146495797Y-110526074D01*
X146498947Y-110547309D01*
X146500000Y-110568750D01*
X146500000Y-111081250D01*
X146498947Y-111102691D01*
X146495797Y-111123926D01*
X146490581Y-111144750D01*
X146483349Y-111164962D01*
X146474170Y-111184368D01*
X146463134Y-111202781D01*
X146450346Y-111220024D01*
X146435930Y-111235930D01*
X146420024Y-111250346D01*
X146402781Y-111263134D01*
X146384368Y-111274170D01*
X146364962Y-111283349D01*
X146344750Y-111290581D01*
X146323926Y-111295797D01*
X146302691Y-111298947D01*
X146281250Y-111300000D01*
X145843750Y-111300000D01*
X145822309Y-111298947D01*
X145801074Y-111295797D01*
X145780250Y-111290581D01*
X145760038Y-111283349D01*
X145740632Y-111274170D01*
X145722219Y-111263134D01*
X145704976Y-111250346D01*
X145689070Y-111235930D01*
X145674654Y-111220024D01*
X145661866Y-111202781D01*
X145650830Y-111184368D01*
X145641651Y-111164962D01*
X145634419Y-111144750D01*
X145629203Y-111123926D01*
X145626053Y-111102691D01*
X145625000Y-111081250D01*
X145625000Y-110568750D01*
X145626053Y-110547309D01*
X145629203Y-110526074D01*
X145634419Y-110505250D01*
X145641651Y-110485038D01*
X145650830Y-110465632D01*
X145661866Y-110447219D01*
X145674654Y-110429976D01*
X145689070Y-110414070D01*
X145704976Y-110399654D01*
X145722219Y-110386866D01*
X145740632Y-110375830D01*
X145760038Y-110366651D01*
X145780250Y-110359419D01*
X145801074Y-110354203D01*
X145822309Y-110351053D01*
X145843750Y-110350000D01*
X146281250Y-110350000D01*
X146302691Y-110351053D01*
X146302691Y-110351053D01*
G37*
D11*
X146062500Y-110825000D03*
D10*
G36*
X156353542Y-98615174D02*
G01*
X156377203Y-98618684D01*
X156400407Y-98624496D01*
X156422929Y-98632554D01*
X156444553Y-98642782D01*
X156465070Y-98655079D01*
X156484283Y-98669329D01*
X156502007Y-98685393D01*
X156518071Y-98703117D01*
X156532321Y-98722330D01*
X156544618Y-98742847D01*
X156554846Y-98764471D01*
X156562904Y-98786993D01*
X156568716Y-98810197D01*
X156572226Y-98833858D01*
X156573400Y-98857750D01*
X156573400Y-99770250D01*
X156572226Y-99794142D01*
X156568716Y-99817803D01*
X156562904Y-99841007D01*
X156554846Y-99863529D01*
X156544618Y-99885153D01*
X156532321Y-99905670D01*
X156518071Y-99924883D01*
X156502007Y-99942607D01*
X156484283Y-99958671D01*
X156465070Y-99972921D01*
X156444553Y-99985218D01*
X156422929Y-99995446D01*
X156400407Y-100003504D01*
X156377203Y-100009316D01*
X156353542Y-100012826D01*
X156329650Y-100014000D01*
X155842150Y-100014000D01*
X155818258Y-100012826D01*
X155794597Y-100009316D01*
X155771393Y-100003504D01*
X155748871Y-99995446D01*
X155727247Y-99985218D01*
X155706730Y-99972921D01*
X155687517Y-99958671D01*
X155669793Y-99942607D01*
X155653729Y-99924883D01*
X155639479Y-99905670D01*
X155627182Y-99885153D01*
X155616954Y-99863529D01*
X155608896Y-99841007D01*
X155603084Y-99817803D01*
X155599574Y-99794142D01*
X155598400Y-99770250D01*
X155598400Y-98857750D01*
X155599574Y-98833858D01*
X155603084Y-98810197D01*
X155608896Y-98786993D01*
X155616954Y-98764471D01*
X155627182Y-98742847D01*
X155639479Y-98722330D01*
X155653729Y-98703117D01*
X155669793Y-98685393D01*
X155687517Y-98669329D01*
X155706730Y-98655079D01*
X155727247Y-98642782D01*
X155748871Y-98632554D01*
X155771393Y-98624496D01*
X155794597Y-98618684D01*
X155818258Y-98615174D01*
X155842150Y-98614000D01*
X156329650Y-98614000D01*
X156353542Y-98615174D01*
X156353542Y-98615174D01*
G37*
D15*
X156085900Y-99314000D03*
D10*
G36*
X154478542Y-98615174D02*
G01*
X154502203Y-98618684D01*
X154525407Y-98624496D01*
X154547929Y-98632554D01*
X154569553Y-98642782D01*
X154590070Y-98655079D01*
X154609283Y-98669329D01*
X154627007Y-98685393D01*
X154643071Y-98703117D01*
X154657321Y-98722330D01*
X154669618Y-98742847D01*
X154679846Y-98764471D01*
X154687904Y-98786993D01*
X154693716Y-98810197D01*
X154697226Y-98833858D01*
X154698400Y-98857750D01*
X154698400Y-99770250D01*
X154697226Y-99794142D01*
X154693716Y-99817803D01*
X154687904Y-99841007D01*
X154679846Y-99863529D01*
X154669618Y-99885153D01*
X154657321Y-99905670D01*
X154643071Y-99924883D01*
X154627007Y-99942607D01*
X154609283Y-99958671D01*
X154590070Y-99972921D01*
X154569553Y-99985218D01*
X154547929Y-99995446D01*
X154525407Y-100003504D01*
X154502203Y-100009316D01*
X154478542Y-100012826D01*
X154454650Y-100014000D01*
X153967150Y-100014000D01*
X153943258Y-100012826D01*
X153919597Y-100009316D01*
X153896393Y-100003504D01*
X153873871Y-99995446D01*
X153852247Y-99985218D01*
X153831730Y-99972921D01*
X153812517Y-99958671D01*
X153794793Y-99942607D01*
X153778729Y-99924883D01*
X153764479Y-99905670D01*
X153752182Y-99885153D01*
X153741954Y-99863529D01*
X153733896Y-99841007D01*
X153728084Y-99817803D01*
X153724574Y-99794142D01*
X153723400Y-99770250D01*
X153723400Y-98857750D01*
X153724574Y-98833858D01*
X153728084Y-98810197D01*
X153733896Y-98786993D01*
X153741954Y-98764471D01*
X153752182Y-98742847D01*
X153764479Y-98722330D01*
X153778729Y-98703117D01*
X153794793Y-98685393D01*
X153812517Y-98669329D01*
X153831730Y-98655079D01*
X153852247Y-98642782D01*
X153873871Y-98632554D01*
X153896393Y-98624496D01*
X153919597Y-98618684D01*
X153943258Y-98615174D01*
X153967150Y-98614000D01*
X154454650Y-98614000D01*
X154478542Y-98615174D01*
X154478542Y-98615174D01*
G37*
D15*
X154210900Y-99314000D03*
D10*
G36*
X155972891Y-100567253D02*
G01*
X155994126Y-100570403D01*
X156014950Y-100575619D01*
X156035162Y-100582851D01*
X156054568Y-100592030D01*
X156072981Y-100603066D01*
X156090224Y-100615854D01*
X156106130Y-100630270D01*
X156120546Y-100646176D01*
X156133334Y-100663419D01*
X156144370Y-100681832D01*
X156153549Y-100701238D01*
X156160781Y-100721450D01*
X156165997Y-100742274D01*
X156169147Y-100763509D01*
X156170200Y-100784950D01*
X156170200Y-101297450D01*
X156169147Y-101318891D01*
X156165997Y-101340126D01*
X156160781Y-101360950D01*
X156153549Y-101381162D01*
X156144370Y-101400568D01*
X156133334Y-101418981D01*
X156120546Y-101436224D01*
X156106130Y-101452130D01*
X156090224Y-101466546D01*
X156072981Y-101479334D01*
X156054568Y-101490370D01*
X156035162Y-101499549D01*
X156014950Y-101506781D01*
X155994126Y-101511997D01*
X155972891Y-101515147D01*
X155951450Y-101516200D01*
X155513950Y-101516200D01*
X155492509Y-101515147D01*
X155471274Y-101511997D01*
X155450450Y-101506781D01*
X155430238Y-101499549D01*
X155410832Y-101490370D01*
X155392419Y-101479334D01*
X155375176Y-101466546D01*
X155359270Y-101452130D01*
X155344854Y-101436224D01*
X155332066Y-101418981D01*
X155321030Y-101400568D01*
X155311851Y-101381162D01*
X155304619Y-101360950D01*
X155299403Y-101340126D01*
X155296253Y-101318891D01*
X155295200Y-101297450D01*
X155295200Y-100784950D01*
X155296253Y-100763509D01*
X155299403Y-100742274D01*
X155304619Y-100721450D01*
X155311851Y-100701238D01*
X155321030Y-100681832D01*
X155332066Y-100663419D01*
X155344854Y-100646176D01*
X155359270Y-100630270D01*
X155375176Y-100615854D01*
X155392419Y-100603066D01*
X155410832Y-100592030D01*
X155430238Y-100582851D01*
X155450450Y-100575619D01*
X155471274Y-100570403D01*
X155492509Y-100567253D01*
X155513950Y-100566200D01*
X155951450Y-100566200D01*
X155972891Y-100567253D01*
X155972891Y-100567253D01*
G37*
D11*
X155732700Y-101041200D03*
D10*
G36*
X154397891Y-100567253D02*
G01*
X154419126Y-100570403D01*
X154439950Y-100575619D01*
X154460162Y-100582851D01*
X154479568Y-100592030D01*
X154497981Y-100603066D01*
X154515224Y-100615854D01*
X154531130Y-100630270D01*
X154545546Y-100646176D01*
X154558334Y-100663419D01*
X154569370Y-100681832D01*
X154578549Y-100701238D01*
X154585781Y-100721450D01*
X154590997Y-100742274D01*
X154594147Y-100763509D01*
X154595200Y-100784950D01*
X154595200Y-101297450D01*
X154594147Y-101318891D01*
X154590997Y-101340126D01*
X154585781Y-101360950D01*
X154578549Y-101381162D01*
X154569370Y-101400568D01*
X154558334Y-101418981D01*
X154545546Y-101436224D01*
X154531130Y-101452130D01*
X154515224Y-101466546D01*
X154497981Y-101479334D01*
X154479568Y-101490370D01*
X154460162Y-101499549D01*
X154439950Y-101506781D01*
X154419126Y-101511997D01*
X154397891Y-101515147D01*
X154376450Y-101516200D01*
X153938950Y-101516200D01*
X153917509Y-101515147D01*
X153896274Y-101511997D01*
X153875450Y-101506781D01*
X153855238Y-101499549D01*
X153835832Y-101490370D01*
X153817419Y-101479334D01*
X153800176Y-101466546D01*
X153784270Y-101452130D01*
X153769854Y-101436224D01*
X153757066Y-101418981D01*
X153746030Y-101400568D01*
X153736851Y-101381162D01*
X153729619Y-101360950D01*
X153724403Y-101340126D01*
X153721253Y-101318891D01*
X153720200Y-101297450D01*
X153720200Y-100784950D01*
X153721253Y-100763509D01*
X153724403Y-100742274D01*
X153729619Y-100721450D01*
X153736851Y-100701238D01*
X153746030Y-100681832D01*
X153757066Y-100663419D01*
X153769854Y-100646176D01*
X153784270Y-100630270D01*
X153800176Y-100615854D01*
X153817419Y-100603066D01*
X153835832Y-100592030D01*
X153855238Y-100582851D01*
X153875450Y-100575619D01*
X153896274Y-100570403D01*
X153917509Y-100567253D01*
X153938950Y-100566200D01*
X154376450Y-100566200D01*
X154397891Y-100567253D01*
X154397891Y-100567253D01*
G37*
D11*
X154157700Y-101041200D03*
D10*
G36*
X119130142Y-112401174D02*
G01*
X119153803Y-112404684D01*
X119177007Y-112410496D01*
X119199529Y-112418554D01*
X119221153Y-112428782D01*
X119241670Y-112441079D01*
X119260883Y-112455329D01*
X119278607Y-112471393D01*
X119294671Y-112489117D01*
X119308921Y-112508330D01*
X119321218Y-112528847D01*
X119331446Y-112550471D01*
X119339504Y-112572993D01*
X119345316Y-112596197D01*
X119348826Y-112619858D01*
X119350000Y-112643750D01*
X119350000Y-113556250D01*
X119348826Y-113580142D01*
X119345316Y-113603803D01*
X119339504Y-113627007D01*
X119331446Y-113649529D01*
X119321218Y-113671153D01*
X119308921Y-113691670D01*
X119294671Y-113710883D01*
X119278607Y-113728607D01*
X119260883Y-113744671D01*
X119241670Y-113758921D01*
X119221153Y-113771218D01*
X119199529Y-113781446D01*
X119177007Y-113789504D01*
X119153803Y-113795316D01*
X119130142Y-113798826D01*
X119106250Y-113800000D01*
X118618750Y-113800000D01*
X118594858Y-113798826D01*
X118571197Y-113795316D01*
X118547993Y-113789504D01*
X118525471Y-113781446D01*
X118503847Y-113771218D01*
X118483330Y-113758921D01*
X118464117Y-113744671D01*
X118446393Y-113728607D01*
X118430329Y-113710883D01*
X118416079Y-113691670D01*
X118403782Y-113671153D01*
X118393554Y-113649529D01*
X118385496Y-113627007D01*
X118379684Y-113603803D01*
X118376174Y-113580142D01*
X118375000Y-113556250D01*
X118375000Y-112643750D01*
X118376174Y-112619858D01*
X118379684Y-112596197D01*
X118385496Y-112572993D01*
X118393554Y-112550471D01*
X118403782Y-112528847D01*
X118416079Y-112508330D01*
X118430329Y-112489117D01*
X118446393Y-112471393D01*
X118464117Y-112455329D01*
X118483330Y-112441079D01*
X118503847Y-112428782D01*
X118525471Y-112418554D01*
X118547993Y-112410496D01*
X118571197Y-112404684D01*
X118594858Y-112401174D01*
X118618750Y-112400000D01*
X119106250Y-112400000D01*
X119130142Y-112401174D01*
X119130142Y-112401174D01*
G37*
D15*
X118862500Y-113100000D03*
D10*
G36*
X121005142Y-112401174D02*
G01*
X121028803Y-112404684D01*
X121052007Y-112410496D01*
X121074529Y-112418554D01*
X121096153Y-112428782D01*
X121116670Y-112441079D01*
X121135883Y-112455329D01*
X121153607Y-112471393D01*
X121169671Y-112489117D01*
X121183921Y-112508330D01*
X121196218Y-112528847D01*
X121206446Y-112550471D01*
X121214504Y-112572993D01*
X121220316Y-112596197D01*
X121223826Y-112619858D01*
X121225000Y-112643750D01*
X121225000Y-113556250D01*
X121223826Y-113580142D01*
X121220316Y-113603803D01*
X121214504Y-113627007D01*
X121206446Y-113649529D01*
X121196218Y-113671153D01*
X121183921Y-113691670D01*
X121169671Y-113710883D01*
X121153607Y-113728607D01*
X121135883Y-113744671D01*
X121116670Y-113758921D01*
X121096153Y-113771218D01*
X121074529Y-113781446D01*
X121052007Y-113789504D01*
X121028803Y-113795316D01*
X121005142Y-113798826D01*
X120981250Y-113800000D01*
X120493750Y-113800000D01*
X120469858Y-113798826D01*
X120446197Y-113795316D01*
X120422993Y-113789504D01*
X120400471Y-113781446D01*
X120378847Y-113771218D01*
X120358330Y-113758921D01*
X120339117Y-113744671D01*
X120321393Y-113728607D01*
X120305329Y-113710883D01*
X120291079Y-113691670D01*
X120278782Y-113671153D01*
X120268554Y-113649529D01*
X120260496Y-113627007D01*
X120254684Y-113603803D01*
X120251174Y-113580142D01*
X120250000Y-113556250D01*
X120250000Y-112643750D01*
X120251174Y-112619858D01*
X120254684Y-112596197D01*
X120260496Y-112572993D01*
X120268554Y-112550471D01*
X120278782Y-112528847D01*
X120291079Y-112508330D01*
X120305329Y-112489117D01*
X120321393Y-112471393D01*
X120339117Y-112455329D01*
X120358330Y-112441079D01*
X120378847Y-112428782D01*
X120400471Y-112418554D01*
X120422993Y-112410496D01*
X120446197Y-112404684D01*
X120469858Y-112401174D01*
X120493750Y-112400000D01*
X120981250Y-112400000D01*
X121005142Y-112401174D01*
X121005142Y-112401174D01*
G37*
D15*
X120737500Y-113100000D03*
D10*
G36*
X121180142Y-107088674D02*
G01*
X121203803Y-107092184D01*
X121227007Y-107097996D01*
X121249529Y-107106054D01*
X121271153Y-107116282D01*
X121291670Y-107128579D01*
X121310883Y-107142829D01*
X121328607Y-107158893D01*
X121344671Y-107176617D01*
X121358921Y-107195830D01*
X121371218Y-107216347D01*
X121381446Y-107237971D01*
X121389504Y-107260493D01*
X121395316Y-107283697D01*
X121398826Y-107307358D01*
X121400000Y-107331250D01*
X121400000Y-107818750D01*
X121398826Y-107842642D01*
X121395316Y-107866303D01*
X121389504Y-107889507D01*
X121381446Y-107912029D01*
X121371218Y-107933653D01*
X121358921Y-107954170D01*
X121344671Y-107973383D01*
X121328607Y-107991107D01*
X121310883Y-108007171D01*
X121291670Y-108021421D01*
X121271153Y-108033718D01*
X121249529Y-108043946D01*
X121227007Y-108052004D01*
X121203803Y-108057816D01*
X121180142Y-108061326D01*
X121156250Y-108062500D01*
X120243750Y-108062500D01*
X120219858Y-108061326D01*
X120196197Y-108057816D01*
X120172993Y-108052004D01*
X120150471Y-108043946D01*
X120128847Y-108033718D01*
X120108330Y-108021421D01*
X120089117Y-108007171D01*
X120071393Y-107991107D01*
X120055329Y-107973383D01*
X120041079Y-107954170D01*
X120028782Y-107933653D01*
X120018554Y-107912029D01*
X120010496Y-107889507D01*
X120004684Y-107866303D01*
X120001174Y-107842642D01*
X120000000Y-107818750D01*
X120000000Y-107331250D01*
X120001174Y-107307358D01*
X120004684Y-107283697D01*
X120010496Y-107260493D01*
X120018554Y-107237971D01*
X120028782Y-107216347D01*
X120041079Y-107195830D01*
X120055329Y-107176617D01*
X120071393Y-107158893D01*
X120089117Y-107142829D01*
X120108330Y-107128579D01*
X120128847Y-107116282D01*
X120150471Y-107106054D01*
X120172993Y-107097996D01*
X120196197Y-107092184D01*
X120219858Y-107088674D01*
X120243750Y-107087500D01*
X121156250Y-107087500D01*
X121180142Y-107088674D01*
X121180142Y-107088674D01*
G37*
D15*
X120700000Y-107575000D03*
D10*
G36*
X121180142Y-108963674D02*
G01*
X121203803Y-108967184D01*
X121227007Y-108972996D01*
X121249529Y-108981054D01*
X121271153Y-108991282D01*
X121291670Y-109003579D01*
X121310883Y-109017829D01*
X121328607Y-109033893D01*
X121344671Y-109051617D01*
X121358921Y-109070830D01*
X121371218Y-109091347D01*
X121381446Y-109112971D01*
X121389504Y-109135493D01*
X121395316Y-109158697D01*
X121398826Y-109182358D01*
X121400000Y-109206250D01*
X121400000Y-109693750D01*
X121398826Y-109717642D01*
X121395316Y-109741303D01*
X121389504Y-109764507D01*
X121381446Y-109787029D01*
X121371218Y-109808653D01*
X121358921Y-109829170D01*
X121344671Y-109848383D01*
X121328607Y-109866107D01*
X121310883Y-109882171D01*
X121291670Y-109896421D01*
X121271153Y-109908718D01*
X121249529Y-109918946D01*
X121227007Y-109927004D01*
X121203803Y-109932816D01*
X121180142Y-109936326D01*
X121156250Y-109937500D01*
X120243750Y-109937500D01*
X120219858Y-109936326D01*
X120196197Y-109932816D01*
X120172993Y-109927004D01*
X120150471Y-109918946D01*
X120128847Y-109908718D01*
X120108330Y-109896421D01*
X120089117Y-109882171D01*
X120071393Y-109866107D01*
X120055329Y-109848383D01*
X120041079Y-109829170D01*
X120028782Y-109808653D01*
X120018554Y-109787029D01*
X120010496Y-109764507D01*
X120004684Y-109741303D01*
X120001174Y-109717642D01*
X120000000Y-109693750D01*
X120000000Y-109206250D01*
X120001174Y-109182358D01*
X120004684Y-109158697D01*
X120010496Y-109135493D01*
X120018554Y-109112971D01*
X120028782Y-109091347D01*
X120041079Y-109070830D01*
X120055329Y-109051617D01*
X120071393Y-109033893D01*
X120089117Y-109017829D01*
X120108330Y-109003579D01*
X120128847Y-108991282D01*
X120150471Y-108981054D01*
X120172993Y-108972996D01*
X120196197Y-108967184D01*
X120219858Y-108963674D01*
X120243750Y-108962500D01*
X121156250Y-108962500D01*
X121180142Y-108963674D01*
X121180142Y-108963674D01*
G37*
D15*
X120700000Y-109450000D03*
D10*
G36*
X118908891Y-110681653D02*
G01*
X118930126Y-110684803D01*
X118950950Y-110690019D01*
X118971162Y-110697251D01*
X118990568Y-110706430D01*
X119008981Y-110717466D01*
X119026224Y-110730254D01*
X119042130Y-110744670D01*
X119056546Y-110760576D01*
X119069334Y-110777819D01*
X119080370Y-110796232D01*
X119089549Y-110815638D01*
X119096781Y-110835850D01*
X119101997Y-110856674D01*
X119105147Y-110877909D01*
X119106200Y-110899350D01*
X119106200Y-111336850D01*
X119105147Y-111358291D01*
X119101997Y-111379526D01*
X119096781Y-111400350D01*
X119089549Y-111420562D01*
X119080370Y-111439968D01*
X119069334Y-111458381D01*
X119056546Y-111475624D01*
X119042130Y-111491530D01*
X119026224Y-111505946D01*
X119008981Y-111518734D01*
X118990568Y-111529770D01*
X118971162Y-111538949D01*
X118950950Y-111546181D01*
X118930126Y-111551397D01*
X118908891Y-111554547D01*
X118887450Y-111555600D01*
X118374950Y-111555600D01*
X118353509Y-111554547D01*
X118332274Y-111551397D01*
X118311450Y-111546181D01*
X118291238Y-111538949D01*
X118271832Y-111529770D01*
X118253419Y-111518734D01*
X118236176Y-111505946D01*
X118220270Y-111491530D01*
X118205854Y-111475624D01*
X118193066Y-111458381D01*
X118182030Y-111439968D01*
X118172851Y-111420562D01*
X118165619Y-111400350D01*
X118160403Y-111379526D01*
X118157253Y-111358291D01*
X118156200Y-111336850D01*
X118156200Y-110899350D01*
X118157253Y-110877909D01*
X118160403Y-110856674D01*
X118165619Y-110835850D01*
X118172851Y-110815638D01*
X118182030Y-110796232D01*
X118193066Y-110777819D01*
X118205854Y-110760576D01*
X118220270Y-110744670D01*
X118236176Y-110730254D01*
X118253419Y-110717466D01*
X118271832Y-110706430D01*
X118291238Y-110697251D01*
X118311450Y-110690019D01*
X118332274Y-110684803D01*
X118353509Y-110681653D01*
X118374950Y-110680600D01*
X118887450Y-110680600D01*
X118908891Y-110681653D01*
X118908891Y-110681653D01*
G37*
D11*
X118631200Y-111118100D03*
D10*
G36*
X118908891Y-109106653D02*
G01*
X118930126Y-109109803D01*
X118950950Y-109115019D01*
X118971162Y-109122251D01*
X118990568Y-109131430D01*
X119008981Y-109142466D01*
X119026224Y-109155254D01*
X119042130Y-109169670D01*
X119056546Y-109185576D01*
X119069334Y-109202819D01*
X119080370Y-109221232D01*
X119089549Y-109240638D01*
X119096781Y-109260850D01*
X119101997Y-109281674D01*
X119105147Y-109302909D01*
X119106200Y-109324350D01*
X119106200Y-109761850D01*
X119105147Y-109783291D01*
X119101997Y-109804526D01*
X119096781Y-109825350D01*
X119089549Y-109845562D01*
X119080370Y-109864968D01*
X119069334Y-109883381D01*
X119056546Y-109900624D01*
X119042130Y-109916530D01*
X119026224Y-109930946D01*
X119008981Y-109943734D01*
X118990568Y-109954770D01*
X118971162Y-109963949D01*
X118950950Y-109971181D01*
X118930126Y-109976397D01*
X118908891Y-109979547D01*
X118887450Y-109980600D01*
X118374950Y-109980600D01*
X118353509Y-109979547D01*
X118332274Y-109976397D01*
X118311450Y-109971181D01*
X118291238Y-109963949D01*
X118271832Y-109954770D01*
X118253419Y-109943734D01*
X118236176Y-109930946D01*
X118220270Y-109916530D01*
X118205854Y-109900624D01*
X118193066Y-109883381D01*
X118182030Y-109864968D01*
X118172851Y-109845562D01*
X118165619Y-109825350D01*
X118160403Y-109804526D01*
X118157253Y-109783291D01*
X118156200Y-109761850D01*
X118156200Y-109324350D01*
X118157253Y-109302909D01*
X118160403Y-109281674D01*
X118165619Y-109260850D01*
X118172851Y-109240638D01*
X118182030Y-109221232D01*
X118193066Y-109202819D01*
X118205854Y-109185576D01*
X118220270Y-109169670D01*
X118236176Y-109155254D01*
X118253419Y-109142466D01*
X118271832Y-109131430D01*
X118291238Y-109122251D01*
X118311450Y-109115019D01*
X118332274Y-109109803D01*
X118353509Y-109106653D01*
X118374950Y-109105600D01*
X118887450Y-109105600D01*
X118908891Y-109106653D01*
X118908891Y-109106653D01*
G37*
D11*
X118631200Y-109543100D03*
D10*
G36*
X115656942Y-114851174D02*
G01*
X115680603Y-114854684D01*
X115703807Y-114860496D01*
X115726329Y-114868554D01*
X115747953Y-114878782D01*
X115768470Y-114891079D01*
X115787683Y-114905329D01*
X115805407Y-114921393D01*
X115821471Y-114939117D01*
X115835721Y-114958330D01*
X115848018Y-114978847D01*
X115858246Y-115000471D01*
X115866304Y-115022993D01*
X115872116Y-115046197D01*
X115875626Y-115069858D01*
X115876800Y-115093750D01*
X115876800Y-115581250D01*
X115875626Y-115605142D01*
X115872116Y-115628803D01*
X115866304Y-115652007D01*
X115858246Y-115674529D01*
X115848018Y-115696153D01*
X115835721Y-115716670D01*
X115821471Y-115735883D01*
X115805407Y-115753607D01*
X115787683Y-115769671D01*
X115768470Y-115783921D01*
X115747953Y-115796218D01*
X115726329Y-115806446D01*
X115703807Y-115814504D01*
X115680603Y-115820316D01*
X115656942Y-115823826D01*
X115633050Y-115825000D01*
X114720550Y-115825000D01*
X114696658Y-115823826D01*
X114672997Y-115820316D01*
X114649793Y-115814504D01*
X114627271Y-115806446D01*
X114605647Y-115796218D01*
X114585130Y-115783921D01*
X114565917Y-115769671D01*
X114548193Y-115753607D01*
X114532129Y-115735883D01*
X114517879Y-115716670D01*
X114505582Y-115696153D01*
X114495354Y-115674529D01*
X114487296Y-115652007D01*
X114481484Y-115628803D01*
X114477974Y-115605142D01*
X114476800Y-115581250D01*
X114476800Y-115093750D01*
X114477974Y-115069858D01*
X114481484Y-115046197D01*
X114487296Y-115022993D01*
X114495354Y-115000471D01*
X114505582Y-114978847D01*
X114517879Y-114958330D01*
X114532129Y-114939117D01*
X114548193Y-114921393D01*
X114565917Y-114905329D01*
X114585130Y-114891079D01*
X114605647Y-114878782D01*
X114627271Y-114868554D01*
X114649793Y-114860496D01*
X114672997Y-114854684D01*
X114696658Y-114851174D01*
X114720550Y-114850000D01*
X115633050Y-114850000D01*
X115656942Y-114851174D01*
X115656942Y-114851174D01*
G37*
D15*
X115176800Y-115337500D03*
D10*
G36*
X115656942Y-112976174D02*
G01*
X115680603Y-112979684D01*
X115703807Y-112985496D01*
X115726329Y-112993554D01*
X115747953Y-113003782D01*
X115768470Y-113016079D01*
X115787683Y-113030329D01*
X115805407Y-113046393D01*
X115821471Y-113064117D01*
X115835721Y-113083330D01*
X115848018Y-113103847D01*
X115858246Y-113125471D01*
X115866304Y-113147993D01*
X115872116Y-113171197D01*
X115875626Y-113194858D01*
X115876800Y-113218750D01*
X115876800Y-113706250D01*
X115875626Y-113730142D01*
X115872116Y-113753803D01*
X115866304Y-113777007D01*
X115858246Y-113799529D01*
X115848018Y-113821153D01*
X115835721Y-113841670D01*
X115821471Y-113860883D01*
X115805407Y-113878607D01*
X115787683Y-113894671D01*
X115768470Y-113908921D01*
X115747953Y-113921218D01*
X115726329Y-113931446D01*
X115703807Y-113939504D01*
X115680603Y-113945316D01*
X115656942Y-113948826D01*
X115633050Y-113950000D01*
X114720550Y-113950000D01*
X114696658Y-113948826D01*
X114672997Y-113945316D01*
X114649793Y-113939504D01*
X114627271Y-113931446D01*
X114605647Y-113921218D01*
X114585130Y-113908921D01*
X114565917Y-113894671D01*
X114548193Y-113878607D01*
X114532129Y-113860883D01*
X114517879Y-113841670D01*
X114505582Y-113821153D01*
X114495354Y-113799529D01*
X114487296Y-113777007D01*
X114481484Y-113753803D01*
X114477974Y-113730142D01*
X114476800Y-113706250D01*
X114476800Y-113218750D01*
X114477974Y-113194858D01*
X114481484Y-113171197D01*
X114487296Y-113147993D01*
X114495354Y-113125471D01*
X114505582Y-113103847D01*
X114517879Y-113083330D01*
X114532129Y-113064117D01*
X114548193Y-113046393D01*
X114565917Y-113030329D01*
X114585130Y-113016079D01*
X114605647Y-113003782D01*
X114627271Y-112993554D01*
X114649793Y-112985496D01*
X114672997Y-112979684D01*
X114696658Y-112976174D01*
X114720550Y-112975000D01*
X115633050Y-112975000D01*
X115656942Y-112976174D01*
X115656942Y-112976174D01*
G37*
D15*
X115176800Y-113462500D03*
D10*
G36*
X113676491Y-114734253D02*
G01*
X113697726Y-114737403D01*
X113718550Y-114742619D01*
X113738762Y-114749851D01*
X113758168Y-114759030D01*
X113776581Y-114770066D01*
X113793824Y-114782854D01*
X113809730Y-114797270D01*
X113824146Y-114813176D01*
X113836934Y-114830419D01*
X113847970Y-114848832D01*
X113857149Y-114868238D01*
X113864381Y-114888450D01*
X113869597Y-114909274D01*
X113872747Y-114930509D01*
X113873800Y-114951950D01*
X113873800Y-115389450D01*
X113872747Y-115410891D01*
X113869597Y-115432126D01*
X113864381Y-115452950D01*
X113857149Y-115473162D01*
X113847970Y-115492568D01*
X113836934Y-115510981D01*
X113824146Y-115528224D01*
X113809730Y-115544130D01*
X113793824Y-115558546D01*
X113776581Y-115571334D01*
X113758168Y-115582370D01*
X113738762Y-115591549D01*
X113718550Y-115598781D01*
X113697726Y-115603997D01*
X113676491Y-115607147D01*
X113655050Y-115608200D01*
X113142550Y-115608200D01*
X113121109Y-115607147D01*
X113099874Y-115603997D01*
X113079050Y-115598781D01*
X113058838Y-115591549D01*
X113039432Y-115582370D01*
X113021019Y-115571334D01*
X113003776Y-115558546D01*
X112987870Y-115544130D01*
X112973454Y-115528224D01*
X112960666Y-115510981D01*
X112949630Y-115492568D01*
X112940451Y-115473162D01*
X112933219Y-115452950D01*
X112928003Y-115432126D01*
X112924853Y-115410891D01*
X112923800Y-115389450D01*
X112923800Y-114951950D01*
X112924853Y-114930509D01*
X112928003Y-114909274D01*
X112933219Y-114888450D01*
X112940451Y-114868238D01*
X112949630Y-114848832D01*
X112960666Y-114830419D01*
X112973454Y-114813176D01*
X112987870Y-114797270D01*
X113003776Y-114782854D01*
X113021019Y-114770066D01*
X113039432Y-114759030D01*
X113058838Y-114749851D01*
X113079050Y-114742619D01*
X113099874Y-114737403D01*
X113121109Y-114734253D01*
X113142550Y-114733200D01*
X113655050Y-114733200D01*
X113676491Y-114734253D01*
X113676491Y-114734253D01*
G37*
D11*
X113398800Y-115170700D03*
D10*
G36*
X113676491Y-113159253D02*
G01*
X113697726Y-113162403D01*
X113718550Y-113167619D01*
X113738762Y-113174851D01*
X113758168Y-113184030D01*
X113776581Y-113195066D01*
X113793824Y-113207854D01*
X113809730Y-113222270D01*
X113824146Y-113238176D01*
X113836934Y-113255419D01*
X113847970Y-113273832D01*
X113857149Y-113293238D01*
X113864381Y-113313450D01*
X113869597Y-113334274D01*
X113872747Y-113355509D01*
X113873800Y-113376950D01*
X113873800Y-113814450D01*
X113872747Y-113835891D01*
X113869597Y-113857126D01*
X113864381Y-113877950D01*
X113857149Y-113898162D01*
X113847970Y-113917568D01*
X113836934Y-113935981D01*
X113824146Y-113953224D01*
X113809730Y-113969130D01*
X113793824Y-113983546D01*
X113776581Y-113996334D01*
X113758168Y-114007370D01*
X113738762Y-114016549D01*
X113718550Y-114023781D01*
X113697726Y-114028997D01*
X113676491Y-114032147D01*
X113655050Y-114033200D01*
X113142550Y-114033200D01*
X113121109Y-114032147D01*
X113099874Y-114028997D01*
X113079050Y-114023781D01*
X113058838Y-114016549D01*
X113039432Y-114007370D01*
X113021019Y-113996334D01*
X113003776Y-113983546D01*
X112987870Y-113969130D01*
X112973454Y-113953224D01*
X112960666Y-113935981D01*
X112949630Y-113917568D01*
X112940451Y-113898162D01*
X112933219Y-113877950D01*
X112928003Y-113857126D01*
X112924853Y-113835891D01*
X112923800Y-113814450D01*
X112923800Y-113376950D01*
X112924853Y-113355509D01*
X112928003Y-113334274D01*
X112933219Y-113313450D01*
X112940451Y-113293238D01*
X112949630Y-113273832D01*
X112960666Y-113255419D01*
X112973454Y-113238176D01*
X112987870Y-113222270D01*
X113003776Y-113207854D01*
X113021019Y-113195066D01*
X113039432Y-113184030D01*
X113058838Y-113174851D01*
X113079050Y-113167619D01*
X113099874Y-113162403D01*
X113121109Y-113159253D01*
X113142550Y-113158200D01*
X113655050Y-113158200D01*
X113676491Y-113159253D01*
X113676491Y-113159253D01*
G37*
D11*
X113398800Y-113595700D03*
D10*
G36*
X162052691Y-81876053D02*
G01*
X162073926Y-81879203D01*
X162094750Y-81884419D01*
X162114962Y-81891651D01*
X162134368Y-81900830D01*
X162152781Y-81911866D01*
X162170024Y-81924654D01*
X162185930Y-81939070D01*
X162200346Y-81954976D01*
X162213134Y-81972219D01*
X162224170Y-81990632D01*
X162233349Y-82010038D01*
X162240581Y-82030250D01*
X162245797Y-82051074D01*
X162248947Y-82072309D01*
X162250000Y-82093750D01*
X162250000Y-82531250D01*
X162248947Y-82552691D01*
X162245797Y-82573926D01*
X162240581Y-82594750D01*
X162233349Y-82614962D01*
X162224170Y-82634368D01*
X162213134Y-82652781D01*
X162200346Y-82670024D01*
X162185930Y-82685930D01*
X162170024Y-82700346D01*
X162152781Y-82713134D01*
X162134368Y-82724170D01*
X162114962Y-82733349D01*
X162094750Y-82740581D01*
X162073926Y-82745797D01*
X162052691Y-82748947D01*
X162031250Y-82750000D01*
X161518750Y-82750000D01*
X161497309Y-82748947D01*
X161476074Y-82745797D01*
X161455250Y-82740581D01*
X161435038Y-82733349D01*
X161415632Y-82724170D01*
X161397219Y-82713134D01*
X161379976Y-82700346D01*
X161364070Y-82685930D01*
X161349654Y-82670024D01*
X161336866Y-82652781D01*
X161325830Y-82634368D01*
X161316651Y-82614962D01*
X161309419Y-82594750D01*
X161304203Y-82573926D01*
X161301053Y-82552691D01*
X161300000Y-82531250D01*
X161300000Y-82093750D01*
X161301053Y-82072309D01*
X161304203Y-82051074D01*
X161309419Y-82030250D01*
X161316651Y-82010038D01*
X161325830Y-81990632D01*
X161336866Y-81972219D01*
X161349654Y-81954976D01*
X161364070Y-81939070D01*
X161379976Y-81924654D01*
X161397219Y-81911866D01*
X161415632Y-81900830D01*
X161435038Y-81891651D01*
X161455250Y-81884419D01*
X161476074Y-81879203D01*
X161497309Y-81876053D01*
X161518750Y-81875000D01*
X162031250Y-81875000D01*
X162052691Y-81876053D01*
X162052691Y-81876053D01*
G37*
D11*
X161775000Y-82312500D03*
D10*
G36*
X162052691Y-80301053D02*
G01*
X162073926Y-80304203D01*
X162094750Y-80309419D01*
X162114962Y-80316651D01*
X162134368Y-80325830D01*
X162152781Y-80336866D01*
X162170024Y-80349654D01*
X162185930Y-80364070D01*
X162200346Y-80379976D01*
X162213134Y-80397219D01*
X162224170Y-80415632D01*
X162233349Y-80435038D01*
X162240581Y-80455250D01*
X162245797Y-80476074D01*
X162248947Y-80497309D01*
X162250000Y-80518750D01*
X162250000Y-80956250D01*
X162248947Y-80977691D01*
X162245797Y-80998926D01*
X162240581Y-81019750D01*
X162233349Y-81039962D01*
X162224170Y-81059368D01*
X162213134Y-81077781D01*
X162200346Y-81095024D01*
X162185930Y-81110930D01*
X162170024Y-81125346D01*
X162152781Y-81138134D01*
X162134368Y-81149170D01*
X162114962Y-81158349D01*
X162094750Y-81165581D01*
X162073926Y-81170797D01*
X162052691Y-81173947D01*
X162031250Y-81175000D01*
X161518750Y-81175000D01*
X161497309Y-81173947D01*
X161476074Y-81170797D01*
X161455250Y-81165581D01*
X161435038Y-81158349D01*
X161415632Y-81149170D01*
X161397219Y-81138134D01*
X161379976Y-81125346D01*
X161364070Y-81110930D01*
X161349654Y-81095024D01*
X161336866Y-81077781D01*
X161325830Y-81059368D01*
X161316651Y-81039962D01*
X161309419Y-81019750D01*
X161304203Y-80998926D01*
X161301053Y-80977691D01*
X161300000Y-80956250D01*
X161300000Y-80518750D01*
X161301053Y-80497309D01*
X161304203Y-80476074D01*
X161309419Y-80455250D01*
X161316651Y-80435038D01*
X161325830Y-80415632D01*
X161336866Y-80397219D01*
X161349654Y-80379976D01*
X161364070Y-80364070D01*
X161379976Y-80349654D01*
X161397219Y-80336866D01*
X161415632Y-80325830D01*
X161435038Y-80316651D01*
X161455250Y-80309419D01*
X161476074Y-80304203D01*
X161497309Y-80301053D01*
X161518750Y-80300000D01*
X162031250Y-80300000D01*
X162052691Y-80301053D01*
X162052691Y-80301053D01*
G37*
D11*
X161775000Y-80737500D03*
D10*
G36*
X123701691Y-95319053D02*
G01*
X123722926Y-95322203D01*
X123743750Y-95327419D01*
X123763962Y-95334651D01*
X123783368Y-95343830D01*
X123801781Y-95354866D01*
X123819024Y-95367654D01*
X123834930Y-95382070D01*
X123849346Y-95397976D01*
X123862134Y-95415219D01*
X123873170Y-95433632D01*
X123882349Y-95453038D01*
X123889581Y-95473250D01*
X123894797Y-95494074D01*
X123897947Y-95515309D01*
X123899000Y-95536750D01*
X123899000Y-95974250D01*
X123897947Y-95995691D01*
X123894797Y-96016926D01*
X123889581Y-96037750D01*
X123882349Y-96057962D01*
X123873170Y-96077368D01*
X123862134Y-96095781D01*
X123849346Y-96113024D01*
X123834930Y-96128930D01*
X123819024Y-96143346D01*
X123801781Y-96156134D01*
X123783368Y-96167170D01*
X123763962Y-96176349D01*
X123743750Y-96183581D01*
X123722926Y-96188797D01*
X123701691Y-96191947D01*
X123680250Y-96193000D01*
X123167750Y-96193000D01*
X123146309Y-96191947D01*
X123125074Y-96188797D01*
X123104250Y-96183581D01*
X123084038Y-96176349D01*
X123064632Y-96167170D01*
X123046219Y-96156134D01*
X123028976Y-96143346D01*
X123013070Y-96128930D01*
X122998654Y-96113024D01*
X122985866Y-96095781D01*
X122974830Y-96077368D01*
X122965651Y-96057962D01*
X122958419Y-96037750D01*
X122953203Y-96016926D01*
X122950053Y-95995691D01*
X122949000Y-95974250D01*
X122949000Y-95536750D01*
X122950053Y-95515309D01*
X122953203Y-95494074D01*
X122958419Y-95473250D01*
X122965651Y-95453038D01*
X122974830Y-95433632D01*
X122985866Y-95415219D01*
X122998654Y-95397976D01*
X123013070Y-95382070D01*
X123028976Y-95367654D01*
X123046219Y-95354866D01*
X123064632Y-95343830D01*
X123084038Y-95334651D01*
X123104250Y-95327419D01*
X123125074Y-95322203D01*
X123146309Y-95319053D01*
X123167750Y-95318000D01*
X123680250Y-95318000D01*
X123701691Y-95319053D01*
X123701691Y-95319053D01*
G37*
D11*
X123424000Y-95755500D03*
D10*
G36*
X123701691Y-93744053D02*
G01*
X123722926Y-93747203D01*
X123743750Y-93752419D01*
X123763962Y-93759651D01*
X123783368Y-93768830D01*
X123801781Y-93779866D01*
X123819024Y-93792654D01*
X123834930Y-93807070D01*
X123849346Y-93822976D01*
X123862134Y-93840219D01*
X123873170Y-93858632D01*
X123882349Y-93878038D01*
X123889581Y-93898250D01*
X123894797Y-93919074D01*
X123897947Y-93940309D01*
X123899000Y-93961750D01*
X123899000Y-94399250D01*
X123897947Y-94420691D01*
X123894797Y-94441926D01*
X123889581Y-94462750D01*
X123882349Y-94482962D01*
X123873170Y-94502368D01*
X123862134Y-94520781D01*
X123849346Y-94538024D01*
X123834930Y-94553930D01*
X123819024Y-94568346D01*
X123801781Y-94581134D01*
X123783368Y-94592170D01*
X123763962Y-94601349D01*
X123743750Y-94608581D01*
X123722926Y-94613797D01*
X123701691Y-94616947D01*
X123680250Y-94618000D01*
X123167750Y-94618000D01*
X123146309Y-94616947D01*
X123125074Y-94613797D01*
X123104250Y-94608581D01*
X123084038Y-94601349D01*
X123064632Y-94592170D01*
X123046219Y-94581134D01*
X123028976Y-94568346D01*
X123013070Y-94553930D01*
X122998654Y-94538024D01*
X122985866Y-94520781D01*
X122974830Y-94502368D01*
X122965651Y-94482962D01*
X122958419Y-94462750D01*
X122953203Y-94441926D01*
X122950053Y-94420691D01*
X122949000Y-94399250D01*
X122949000Y-93961750D01*
X122950053Y-93940309D01*
X122953203Y-93919074D01*
X122958419Y-93898250D01*
X122965651Y-93878038D01*
X122974830Y-93858632D01*
X122985866Y-93840219D01*
X122998654Y-93822976D01*
X123013070Y-93807070D01*
X123028976Y-93792654D01*
X123046219Y-93779866D01*
X123064632Y-93768830D01*
X123084038Y-93759651D01*
X123104250Y-93752419D01*
X123125074Y-93747203D01*
X123146309Y-93744053D01*
X123167750Y-93743000D01*
X123680250Y-93743000D01*
X123701691Y-93744053D01*
X123701691Y-93744053D01*
G37*
D11*
X123424000Y-94180500D03*
D10*
G36*
X123902691Y-86451053D02*
G01*
X123923926Y-86454203D01*
X123944750Y-86459419D01*
X123964962Y-86466651D01*
X123984368Y-86475830D01*
X124002781Y-86486866D01*
X124020024Y-86499654D01*
X124035930Y-86514070D01*
X124050346Y-86529976D01*
X124063134Y-86547219D01*
X124074170Y-86565632D01*
X124083349Y-86585038D01*
X124090581Y-86605250D01*
X124095797Y-86626074D01*
X124098947Y-86647309D01*
X124100000Y-86668750D01*
X124100000Y-87106250D01*
X124098947Y-87127691D01*
X124095797Y-87148926D01*
X124090581Y-87169750D01*
X124083349Y-87189962D01*
X124074170Y-87209368D01*
X124063134Y-87227781D01*
X124050346Y-87245024D01*
X124035930Y-87260930D01*
X124020024Y-87275346D01*
X124002781Y-87288134D01*
X123984368Y-87299170D01*
X123964962Y-87308349D01*
X123944750Y-87315581D01*
X123923926Y-87320797D01*
X123902691Y-87323947D01*
X123881250Y-87325000D01*
X123368750Y-87325000D01*
X123347309Y-87323947D01*
X123326074Y-87320797D01*
X123305250Y-87315581D01*
X123285038Y-87308349D01*
X123265632Y-87299170D01*
X123247219Y-87288134D01*
X123229976Y-87275346D01*
X123214070Y-87260930D01*
X123199654Y-87245024D01*
X123186866Y-87227781D01*
X123175830Y-87209368D01*
X123166651Y-87189962D01*
X123159419Y-87169750D01*
X123154203Y-87148926D01*
X123151053Y-87127691D01*
X123150000Y-87106250D01*
X123150000Y-86668750D01*
X123151053Y-86647309D01*
X123154203Y-86626074D01*
X123159419Y-86605250D01*
X123166651Y-86585038D01*
X123175830Y-86565632D01*
X123186866Y-86547219D01*
X123199654Y-86529976D01*
X123214070Y-86514070D01*
X123229976Y-86499654D01*
X123247219Y-86486866D01*
X123265632Y-86475830D01*
X123285038Y-86466651D01*
X123305250Y-86459419D01*
X123326074Y-86454203D01*
X123347309Y-86451053D01*
X123368750Y-86450000D01*
X123881250Y-86450000D01*
X123902691Y-86451053D01*
X123902691Y-86451053D01*
G37*
D11*
X123625000Y-86887500D03*
D10*
G36*
X123902691Y-84876053D02*
G01*
X123923926Y-84879203D01*
X123944750Y-84884419D01*
X123964962Y-84891651D01*
X123984368Y-84900830D01*
X124002781Y-84911866D01*
X124020024Y-84924654D01*
X124035930Y-84939070D01*
X124050346Y-84954976D01*
X124063134Y-84972219D01*
X124074170Y-84990632D01*
X124083349Y-85010038D01*
X124090581Y-85030250D01*
X124095797Y-85051074D01*
X124098947Y-85072309D01*
X124100000Y-85093750D01*
X124100000Y-85531250D01*
X124098947Y-85552691D01*
X124095797Y-85573926D01*
X124090581Y-85594750D01*
X124083349Y-85614962D01*
X124074170Y-85634368D01*
X124063134Y-85652781D01*
X124050346Y-85670024D01*
X124035930Y-85685930D01*
X124020024Y-85700346D01*
X124002781Y-85713134D01*
X123984368Y-85724170D01*
X123964962Y-85733349D01*
X123944750Y-85740581D01*
X123923926Y-85745797D01*
X123902691Y-85748947D01*
X123881250Y-85750000D01*
X123368750Y-85750000D01*
X123347309Y-85748947D01*
X123326074Y-85745797D01*
X123305250Y-85740581D01*
X123285038Y-85733349D01*
X123265632Y-85724170D01*
X123247219Y-85713134D01*
X123229976Y-85700346D01*
X123214070Y-85685930D01*
X123199654Y-85670024D01*
X123186866Y-85652781D01*
X123175830Y-85634368D01*
X123166651Y-85614962D01*
X123159419Y-85594750D01*
X123154203Y-85573926D01*
X123151053Y-85552691D01*
X123150000Y-85531250D01*
X123150000Y-85093750D01*
X123151053Y-85072309D01*
X123154203Y-85051074D01*
X123159419Y-85030250D01*
X123166651Y-85010038D01*
X123175830Y-84990632D01*
X123186866Y-84972219D01*
X123199654Y-84954976D01*
X123214070Y-84939070D01*
X123229976Y-84924654D01*
X123247219Y-84911866D01*
X123265632Y-84900830D01*
X123285038Y-84891651D01*
X123305250Y-84884419D01*
X123326074Y-84879203D01*
X123347309Y-84876053D01*
X123368750Y-84875000D01*
X123881250Y-84875000D01*
X123902691Y-84876053D01*
X123902691Y-84876053D01*
G37*
D11*
X123625000Y-85312500D03*
D10*
G36*
X123677691Y-113151053D02*
G01*
X123698926Y-113154203D01*
X123719750Y-113159419D01*
X123739962Y-113166651D01*
X123759368Y-113175830D01*
X123777781Y-113186866D01*
X123795024Y-113199654D01*
X123810930Y-113214070D01*
X123825346Y-113229976D01*
X123838134Y-113247219D01*
X123849170Y-113265632D01*
X123858349Y-113285038D01*
X123865581Y-113305250D01*
X123870797Y-113326074D01*
X123873947Y-113347309D01*
X123875000Y-113368750D01*
X123875000Y-113806250D01*
X123873947Y-113827691D01*
X123870797Y-113848926D01*
X123865581Y-113869750D01*
X123858349Y-113889962D01*
X123849170Y-113909368D01*
X123838134Y-113927781D01*
X123825346Y-113945024D01*
X123810930Y-113960930D01*
X123795024Y-113975346D01*
X123777781Y-113988134D01*
X123759368Y-113999170D01*
X123739962Y-114008349D01*
X123719750Y-114015581D01*
X123698926Y-114020797D01*
X123677691Y-114023947D01*
X123656250Y-114025000D01*
X123143750Y-114025000D01*
X123122309Y-114023947D01*
X123101074Y-114020797D01*
X123080250Y-114015581D01*
X123060038Y-114008349D01*
X123040632Y-113999170D01*
X123022219Y-113988134D01*
X123004976Y-113975346D01*
X122989070Y-113960930D01*
X122974654Y-113945024D01*
X122961866Y-113927781D01*
X122950830Y-113909368D01*
X122941651Y-113889962D01*
X122934419Y-113869750D01*
X122929203Y-113848926D01*
X122926053Y-113827691D01*
X122925000Y-113806250D01*
X122925000Y-113368750D01*
X122926053Y-113347309D01*
X122929203Y-113326074D01*
X122934419Y-113305250D01*
X122941651Y-113285038D01*
X122950830Y-113265632D01*
X122961866Y-113247219D01*
X122974654Y-113229976D01*
X122989070Y-113214070D01*
X123004976Y-113199654D01*
X123022219Y-113186866D01*
X123040632Y-113175830D01*
X123060038Y-113166651D01*
X123080250Y-113159419D01*
X123101074Y-113154203D01*
X123122309Y-113151053D01*
X123143750Y-113150000D01*
X123656250Y-113150000D01*
X123677691Y-113151053D01*
X123677691Y-113151053D01*
G37*
D11*
X123400000Y-113587500D03*
D10*
G36*
X123677691Y-111576053D02*
G01*
X123698926Y-111579203D01*
X123719750Y-111584419D01*
X123739962Y-111591651D01*
X123759368Y-111600830D01*
X123777781Y-111611866D01*
X123795024Y-111624654D01*
X123810930Y-111639070D01*
X123825346Y-111654976D01*
X123838134Y-111672219D01*
X123849170Y-111690632D01*
X123858349Y-111710038D01*
X123865581Y-111730250D01*
X123870797Y-111751074D01*
X123873947Y-111772309D01*
X123875000Y-111793750D01*
X123875000Y-112231250D01*
X123873947Y-112252691D01*
X123870797Y-112273926D01*
X123865581Y-112294750D01*
X123858349Y-112314962D01*
X123849170Y-112334368D01*
X123838134Y-112352781D01*
X123825346Y-112370024D01*
X123810930Y-112385930D01*
X123795024Y-112400346D01*
X123777781Y-112413134D01*
X123759368Y-112424170D01*
X123739962Y-112433349D01*
X123719750Y-112440581D01*
X123698926Y-112445797D01*
X123677691Y-112448947D01*
X123656250Y-112450000D01*
X123143750Y-112450000D01*
X123122309Y-112448947D01*
X123101074Y-112445797D01*
X123080250Y-112440581D01*
X123060038Y-112433349D01*
X123040632Y-112424170D01*
X123022219Y-112413134D01*
X123004976Y-112400346D01*
X122989070Y-112385930D01*
X122974654Y-112370024D01*
X122961866Y-112352781D01*
X122950830Y-112334368D01*
X122941651Y-112314962D01*
X122934419Y-112294750D01*
X122929203Y-112273926D01*
X122926053Y-112252691D01*
X122925000Y-112231250D01*
X122925000Y-111793750D01*
X122926053Y-111772309D01*
X122929203Y-111751074D01*
X122934419Y-111730250D01*
X122941651Y-111710038D01*
X122950830Y-111690632D01*
X122961866Y-111672219D01*
X122974654Y-111654976D01*
X122989070Y-111639070D01*
X123004976Y-111624654D01*
X123022219Y-111611866D01*
X123040632Y-111600830D01*
X123060038Y-111591651D01*
X123080250Y-111584419D01*
X123101074Y-111579203D01*
X123122309Y-111576053D01*
X123143750Y-111575000D01*
X123656250Y-111575000D01*
X123677691Y-111576053D01*
X123677691Y-111576053D01*
G37*
D11*
X123400000Y-112012500D03*
D10*
G36*
X123701691Y-104209053D02*
G01*
X123722926Y-104212203D01*
X123743750Y-104217419D01*
X123763962Y-104224651D01*
X123783368Y-104233830D01*
X123801781Y-104244866D01*
X123819024Y-104257654D01*
X123834930Y-104272070D01*
X123849346Y-104287976D01*
X123862134Y-104305219D01*
X123873170Y-104323632D01*
X123882349Y-104343038D01*
X123889581Y-104363250D01*
X123894797Y-104384074D01*
X123897947Y-104405309D01*
X123899000Y-104426750D01*
X123899000Y-104864250D01*
X123897947Y-104885691D01*
X123894797Y-104906926D01*
X123889581Y-104927750D01*
X123882349Y-104947962D01*
X123873170Y-104967368D01*
X123862134Y-104985781D01*
X123849346Y-105003024D01*
X123834930Y-105018930D01*
X123819024Y-105033346D01*
X123801781Y-105046134D01*
X123783368Y-105057170D01*
X123763962Y-105066349D01*
X123743750Y-105073581D01*
X123722926Y-105078797D01*
X123701691Y-105081947D01*
X123680250Y-105083000D01*
X123167750Y-105083000D01*
X123146309Y-105081947D01*
X123125074Y-105078797D01*
X123104250Y-105073581D01*
X123084038Y-105066349D01*
X123064632Y-105057170D01*
X123046219Y-105046134D01*
X123028976Y-105033346D01*
X123013070Y-105018930D01*
X122998654Y-105003024D01*
X122985866Y-104985781D01*
X122974830Y-104967368D01*
X122965651Y-104947962D01*
X122958419Y-104927750D01*
X122953203Y-104906926D01*
X122950053Y-104885691D01*
X122949000Y-104864250D01*
X122949000Y-104426750D01*
X122950053Y-104405309D01*
X122953203Y-104384074D01*
X122958419Y-104363250D01*
X122965651Y-104343038D01*
X122974830Y-104323632D01*
X122985866Y-104305219D01*
X122998654Y-104287976D01*
X123013070Y-104272070D01*
X123028976Y-104257654D01*
X123046219Y-104244866D01*
X123064632Y-104233830D01*
X123084038Y-104224651D01*
X123104250Y-104217419D01*
X123125074Y-104212203D01*
X123146309Y-104209053D01*
X123167750Y-104208000D01*
X123680250Y-104208000D01*
X123701691Y-104209053D01*
X123701691Y-104209053D01*
G37*
D11*
X123424000Y-104645500D03*
D10*
G36*
X123701691Y-102634053D02*
G01*
X123722926Y-102637203D01*
X123743750Y-102642419D01*
X123763962Y-102649651D01*
X123783368Y-102658830D01*
X123801781Y-102669866D01*
X123819024Y-102682654D01*
X123834930Y-102697070D01*
X123849346Y-102712976D01*
X123862134Y-102730219D01*
X123873170Y-102748632D01*
X123882349Y-102768038D01*
X123889581Y-102788250D01*
X123894797Y-102809074D01*
X123897947Y-102830309D01*
X123899000Y-102851750D01*
X123899000Y-103289250D01*
X123897947Y-103310691D01*
X123894797Y-103331926D01*
X123889581Y-103352750D01*
X123882349Y-103372962D01*
X123873170Y-103392368D01*
X123862134Y-103410781D01*
X123849346Y-103428024D01*
X123834930Y-103443930D01*
X123819024Y-103458346D01*
X123801781Y-103471134D01*
X123783368Y-103482170D01*
X123763962Y-103491349D01*
X123743750Y-103498581D01*
X123722926Y-103503797D01*
X123701691Y-103506947D01*
X123680250Y-103508000D01*
X123167750Y-103508000D01*
X123146309Y-103506947D01*
X123125074Y-103503797D01*
X123104250Y-103498581D01*
X123084038Y-103491349D01*
X123064632Y-103482170D01*
X123046219Y-103471134D01*
X123028976Y-103458346D01*
X123013070Y-103443930D01*
X122998654Y-103428024D01*
X122985866Y-103410781D01*
X122974830Y-103392368D01*
X122965651Y-103372962D01*
X122958419Y-103352750D01*
X122953203Y-103331926D01*
X122950053Y-103310691D01*
X122949000Y-103289250D01*
X122949000Y-102851750D01*
X122950053Y-102830309D01*
X122953203Y-102809074D01*
X122958419Y-102788250D01*
X122965651Y-102768038D01*
X122974830Y-102748632D01*
X122985866Y-102730219D01*
X122998654Y-102712976D01*
X123013070Y-102697070D01*
X123028976Y-102682654D01*
X123046219Y-102669866D01*
X123064632Y-102658830D01*
X123084038Y-102649651D01*
X123104250Y-102642419D01*
X123125074Y-102637203D01*
X123146309Y-102634053D01*
X123167750Y-102633000D01*
X123680250Y-102633000D01*
X123701691Y-102634053D01*
X123701691Y-102634053D01*
G37*
D11*
X123424000Y-103070500D03*
D16*
X160100000Y-82400000D03*
X159450000Y-82400000D03*
X158800000Y-82400000D03*
X158150000Y-82400000D03*
X157500000Y-82400000D03*
X156850000Y-82400000D03*
X156200000Y-82400000D03*
X155550000Y-82400000D03*
X154900000Y-82400000D03*
X154250000Y-82400000D03*
X154250000Y-76500000D03*
X154900000Y-76500000D03*
X155550000Y-76500000D03*
X156200000Y-76500000D03*
X156850000Y-76500000D03*
X157500000Y-76500000D03*
X158150000Y-76500000D03*
X158800000Y-76500000D03*
X159450000Y-76500000D03*
X160100000Y-76500000D03*
D17*
X156198000Y-107336000D03*
X147698000Y-107336000D03*
D18*
X144830000Y-92196000D03*
X144830000Y-93596000D03*
X144830000Y-94996000D03*
X144830000Y-96396000D03*
X144830000Y-97796000D03*
X146230000Y-92196000D03*
X146230000Y-93596000D03*
X146230000Y-94996000D03*
X146230000Y-96396000D03*
X146230000Y-97796000D03*
X147630000Y-92196000D03*
X147630000Y-93596000D03*
X147630000Y-94996000D03*
X147630000Y-96396000D03*
X147630000Y-97796000D03*
X149030000Y-92196000D03*
X149030000Y-93596000D03*
X149030000Y-94996000D03*
X149030000Y-96396000D03*
X149030000Y-97796000D03*
X150430000Y-92196000D03*
X150430000Y-93596000D03*
X150430000Y-94996000D03*
X150430000Y-96396000D03*
X150430000Y-97796000D03*
D19*
X151380000Y-99496000D03*
X150880000Y-99496000D03*
X150380000Y-99496000D03*
X149880000Y-99496000D03*
X149380000Y-99496000D03*
X148880000Y-99496000D03*
X148380000Y-99496000D03*
X147880000Y-99496000D03*
X147380000Y-99496000D03*
X146880000Y-99496000D03*
X146380000Y-99496000D03*
X145880000Y-99496000D03*
X145380000Y-99496000D03*
X144880000Y-99496000D03*
X144380000Y-99496000D03*
X143880000Y-99496000D03*
D20*
X143130000Y-98746000D03*
X143130000Y-98246000D03*
X143130000Y-97746000D03*
X143130000Y-97246000D03*
X143130000Y-96746000D03*
X143130000Y-96246000D03*
X143130000Y-95746000D03*
X143130000Y-95246000D03*
X143130000Y-94746000D03*
X143130000Y-94246000D03*
X143130000Y-93746000D03*
X143130000Y-93246000D03*
X143130000Y-92746000D03*
X143130000Y-92246000D03*
X143130000Y-91746000D03*
X143130000Y-91246000D03*
D19*
X143880000Y-90496000D03*
X144380000Y-90496000D03*
X144880000Y-90496000D03*
X145380000Y-90496000D03*
X145880000Y-90496000D03*
X146380000Y-90496000D03*
X146880000Y-90496000D03*
X147380000Y-90496000D03*
X147880000Y-90496000D03*
X148380000Y-90496000D03*
X148880000Y-90496000D03*
X149380000Y-90496000D03*
X149880000Y-90496000D03*
X150380000Y-90496000D03*
X150880000Y-90496000D03*
X151380000Y-90496000D03*
D20*
X152130000Y-91246000D03*
X152130000Y-91746000D03*
X152130000Y-92246000D03*
X152130000Y-92746000D03*
X152130000Y-93246000D03*
X152130000Y-93746000D03*
X152130000Y-94246000D03*
X152130000Y-94746000D03*
X152130000Y-95246000D03*
X152130000Y-95746000D03*
X152130000Y-96246000D03*
X152130000Y-96746000D03*
X152130000Y-97246000D03*
X152130000Y-97746000D03*
X152130000Y-98246000D03*
X152130000Y-98746000D03*
D21*
X115350199Y-111689801D03*
X113450199Y-111689801D03*
X113450199Y-109069801D03*
X114400199Y-109069801D03*
X115350199Y-109069801D03*
D22*
X107539600Y-119453200D03*
X107539600Y-117053200D03*
D23*
X109989600Y-121453200D03*
X109989600Y-115053200D03*
D24*
X110214600Y-119553200D03*
X110214600Y-118903200D03*
X110214600Y-118253200D03*
X110214600Y-117603200D03*
X110214600Y-116953200D03*
D10*
G36*
X118998942Y-107115974D02*
G01*
X119022603Y-107119484D01*
X119045807Y-107125296D01*
X119068329Y-107133354D01*
X119089953Y-107143582D01*
X119110470Y-107155879D01*
X119129683Y-107170129D01*
X119147407Y-107186193D01*
X119163471Y-107203917D01*
X119177721Y-107223130D01*
X119190018Y-107243647D01*
X119200246Y-107265271D01*
X119208304Y-107287793D01*
X119214116Y-107310997D01*
X119217626Y-107334658D01*
X119218800Y-107358550D01*
X119218800Y-107846050D01*
X119217626Y-107869942D01*
X119214116Y-107893603D01*
X119208304Y-107916807D01*
X119200246Y-107939329D01*
X119190018Y-107960953D01*
X119177721Y-107981470D01*
X119163471Y-108000683D01*
X119147407Y-108018407D01*
X119129683Y-108034471D01*
X119110470Y-108048721D01*
X119089953Y-108061018D01*
X119068329Y-108071246D01*
X119045807Y-108079304D01*
X119022603Y-108085116D01*
X118998942Y-108088626D01*
X118975050Y-108089800D01*
X118062550Y-108089800D01*
X118038658Y-108088626D01*
X118014997Y-108085116D01*
X117991793Y-108079304D01*
X117969271Y-108071246D01*
X117947647Y-108061018D01*
X117927130Y-108048721D01*
X117907917Y-108034471D01*
X117890193Y-108018407D01*
X117874129Y-108000683D01*
X117859879Y-107981470D01*
X117847582Y-107960953D01*
X117837354Y-107939329D01*
X117829296Y-107916807D01*
X117823484Y-107893603D01*
X117819974Y-107869942D01*
X117818800Y-107846050D01*
X117818800Y-107358550D01*
X117819974Y-107334658D01*
X117823484Y-107310997D01*
X117829296Y-107287793D01*
X117837354Y-107265271D01*
X117847582Y-107243647D01*
X117859879Y-107223130D01*
X117874129Y-107203917D01*
X117890193Y-107186193D01*
X117907917Y-107170129D01*
X117927130Y-107155879D01*
X117947647Y-107143582D01*
X117969271Y-107133354D01*
X117991793Y-107125296D01*
X118014997Y-107119484D01*
X118038658Y-107115974D01*
X118062550Y-107114800D01*
X118975050Y-107114800D01*
X118998942Y-107115974D01*
X118998942Y-107115974D01*
G37*
D15*
X118518800Y-107602300D03*
D10*
G36*
X118998942Y-105240974D02*
G01*
X119022603Y-105244484D01*
X119045807Y-105250296D01*
X119068329Y-105258354D01*
X119089953Y-105268582D01*
X119110470Y-105280879D01*
X119129683Y-105295129D01*
X119147407Y-105311193D01*
X119163471Y-105328917D01*
X119177721Y-105348130D01*
X119190018Y-105368647D01*
X119200246Y-105390271D01*
X119208304Y-105412793D01*
X119214116Y-105435997D01*
X119217626Y-105459658D01*
X119218800Y-105483550D01*
X119218800Y-105971050D01*
X119217626Y-105994942D01*
X119214116Y-106018603D01*
X119208304Y-106041807D01*
X119200246Y-106064329D01*
X119190018Y-106085953D01*
X119177721Y-106106470D01*
X119163471Y-106125683D01*
X119147407Y-106143407D01*
X119129683Y-106159471D01*
X119110470Y-106173721D01*
X119089953Y-106186018D01*
X119068329Y-106196246D01*
X119045807Y-106204304D01*
X119022603Y-106210116D01*
X118998942Y-106213626D01*
X118975050Y-106214800D01*
X118062550Y-106214800D01*
X118038658Y-106213626D01*
X118014997Y-106210116D01*
X117991793Y-106204304D01*
X117969271Y-106196246D01*
X117947647Y-106186018D01*
X117927130Y-106173721D01*
X117907917Y-106159471D01*
X117890193Y-106143407D01*
X117874129Y-106125683D01*
X117859879Y-106106470D01*
X117847582Y-106085953D01*
X117837354Y-106064329D01*
X117829296Y-106041807D01*
X117823484Y-106018603D01*
X117819974Y-105994942D01*
X117818800Y-105971050D01*
X117818800Y-105483550D01*
X117819974Y-105459658D01*
X117823484Y-105435997D01*
X117829296Y-105412793D01*
X117837354Y-105390271D01*
X117847582Y-105368647D01*
X117859879Y-105348130D01*
X117874129Y-105328917D01*
X117890193Y-105311193D01*
X117907917Y-105295129D01*
X117927130Y-105280879D01*
X117947647Y-105268582D01*
X117969271Y-105258354D01*
X117991793Y-105250296D01*
X118014997Y-105244484D01*
X118038658Y-105240974D01*
X118062550Y-105239800D01*
X118975050Y-105239800D01*
X118998942Y-105240974D01*
X118998942Y-105240974D01*
G37*
D15*
X118518800Y-105727300D03*
D10*
G36*
X141980142Y-75613674D02*
G01*
X142003803Y-75617184D01*
X142027007Y-75622996D01*
X142049529Y-75631054D01*
X142071153Y-75641282D01*
X142091670Y-75653579D01*
X142110883Y-75667829D01*
X142128607Y-75683893D01*
X142144671Y-75701617D01*
X142158921Y-75720830D01*
X142171218Y-75741347D01*
X142181446Y-75762971D01*
X142189504Y-75785493D01*
X142195316Y-75808697D01*
X142198826Y-75832358D01*
X142200000Y-75856250D01*
X142200000Y-76343750D01*
X142198826Y-76367642D01*
X142195316Y-76391303D01*
X142189504Y-76414507D01*
X142181446Y-76437029D01*
X142171218Y-76458653D01*
X142158921Y-76479170D01*
X142144671Y-76498383D01*
X142128607Y-76516107D01*
X142110883Y-76532171D01*
X142091670Y-76546421D01*
X142071153Y-76558718D01*
X142049529Y-76568946D01*
X142027007Y-76577004D01*
X142003803Y-76582816D01*
X141980142Y-76586326D01*
X141956250Y-76587500D01*
X141043750Y-76587500D01*
X141019858Y-76586326D01*
X140996197Y-76582816D01*
X140972993Y-76577004D01*
X140950471Y-76568946D01*
X140928847Y-76558718D01*
X140908330Y-76546421D01*
X140889117Y-76532171D01*
X140871393Y-76516107D01*
X140855329Y-76498383D01*
X140841079Y-76479170D01*
X140828782Y-76458653D01*
X140818554Y-76437029D01*
X140810496Y-76414507D01*
X140804684Y-76391303D01*
X140801174Y-76367642D01*
X140800000Y-76343750D01*
X140800000Y-75856250D01*
X140801174Y-75832358D01*
X140804684Y-75808697D01*
X140810496Y-75785493D01*
X140818554Y-75762971D01*
X140828782Y-75741347D01*
X140841079Y-75720830D01*
X140855329Y-75701617D01*
X140871393Y-75683893D01*
X140889117Y-75667829D01*
X140908330Y-75653579D01*
X140928847Y-75641282D01*
X140950471Y-75631054D01*
X140972993Y-75622996D01*
X140996197Y-75617184D01*
X141019858Y-75613674D01*
X141043750Y-75612500D01*
X141956250Y-75612500D01*
X141980142Y-75613674D01*
X141980142Y-75613674D01*
G37*
D15*
X141500000Y-76100000D03*
D10*
G36*
X141980142Y-73738674D02*
G01*
X142003803Y-73742184D01*
X142027007Y-73747996D01*
X142049529Y-73756054D01*
X142071153Y-73766282D01*
X142091670Y-73778579D01*
X142110883Y-73792829D01*
X142128607Y-73808893D01*
X142144671Y-73826617D01*
X142158921Y-73845830D01*
X142171218Y-73866347D01*
X142181446Y-73887971D01*
X142189504Y-73910493D01*
X142195316Y-73933697D01*
X142198826Y-73957358D01*
X142200000Y-73981250D01*
X142200000Y-74468750D01*
X142198826Y-74492642D01*
X142195316Y-74516303D01*
X142189504Y-74539507D01*
X142181446Y-74562029D01*
X142171218Y-74583653D01*
X142158921Y-74604170D01*
X142144671Y-74623383D01*
X142128607Y-74641107D01*
X142110883Y-74657171D01*
X142091670Y-74671421D01*
X142071153Y-74683718D01*
X142049529Y-74693946D01*
X142027007Y-74702004D01*
X142003803Y-74707816D01*
X141980142Y-74711326D01*
X141956250Y-74712500D01*
X141043750Y-74712500D01*
X141019858Y-74711326D01*
X140996197Y-74707816D01*
X140972993Y-74702004D01*
X140950471Y-74693946D01*
X140928847Y-74683718D01*
X140908330Y-74671421D01*
X140889117Y-74657171D01*
X140871393Y-74641107D01*
X140855329Y-74623383D01*
X140841079Y-74604170D01*
X140828782Y-74583653D01*
X140818554Y-74562029D01*
X140810496Y-74539507D01*
X140804684Y-74516303D01*
X140801174Y-74492642D01*
X140800000Y-74468750D01*
X140800000Y-73981250D01*
X140801174Y-73957358D01*
X140804684Y-73933697D01*
X140810496Y-73910493D01*
X140818554Y-73887971D01*
X140828782Y-73866347D01*
X140841079Y-73845830D01*
X140855329Y-73826617D01*
X140871393Y-73808893D01*
X140889117Y-73792829D01*
X140908330Y-73778579D01*
X140928847Y-73766282D01*
X140950471Y-73756054D01*
X140972993Y-73747996D01*
X140996197Y-73742184D01*
X141019858Y-73738674D01*
X141043750Y-73737500D01*
X141956250Y-73737500D01*
X141980142Y-73738674D01*
X141980142Y-73738674D01*
G37*
D15*
X141500000Y-74225000D03*
D10*
G36*
X139480142Y-75613674D02*
G01*
X139503803Y-75617184D01*
X139527007Y-75622996D01*
X139549529Y-75631054D01*
X139571153Y-75641282D01*
X139591670Y-75653579D01*
X139610883Y-75667829D01*
X139628607Y-75683893D01*
X139644671Y-75701617D01*
X139658921Y-75720830D01*
X139671218Y-75741347D01*
X139681446Y-75762971D01*
X139689504Y-75785493D01*
X139695316Y-75808697D01*
X139698826Y-75832358D01*
X139700000Y-75856250D01*
X139700000Y-76343750D01*
X139698826Y-76367642D01*
X139695316Y-76391303D01*
X139689504Y-76414507D01*
X139681446Y-76437029D01*
X139671218Y-76458653D01*
X139658921Y-76479170D01*
X139644671Y-76498383D01*
X139628607Y-76516107D01*
X139610883Y-76532171D01*
X139591670Y-76546421D01*
X139571153Y-76558718D01*
X139549529Y-76568946D01*
X139527007Y-76577004D01*
X139503803Y-76582816D01*
X139480142Y-76586326D01*
X139456250Y-76587500D01*
X138543750Y-76587500D01*
X138519858Y-76586326D01*
X138496197Y-76582816D01*
X138472993Y-76577004D01*
X138450471Y-76568946D01*
X138428847Y-76558718D01*
X138408330Y-76546421D01*
X138389117Y-76532171D01*
X138371393Y-76516107D01*
X138355329Y-76498383D01*
X138341079Y-76479170D01*
X138328782Y-76458653D01*
X138318554Y-76437029D01*
X138310496Y-76414507D01*
X138304684Y-76391303D01*
X138301174Y-76367642D01*
X138300000Y-76343750D01*
X138300000Y-75856250D01*
X138301174Y-75832358D01*
X138304684Y-75808697D01*
X138310496Y-75785493D01*
X138318554Y-75762971D01*
X138328782Y-75741347D01*
X138341079Y-75720830D01*
X138355329Y-75701617D01*
X138371393Y-75683893D01*
X138389117Y-75667829D01*
X138408330Y-75653579D01*
X138428847Y-75641282D01*
X138450471Y-75631054D01*
X138472993Y-75622996D01*
X138496197Y-75617184D01*
X138519858Y-75613674D01*
X138543750Y-75612500D01*
X139456250Y-75612500D01*
X139480142Y-75613674D01*
X139480142Y-75613674D01*
G37*
D15*
X139000000Y-76100000D03*
D10*
G36*
X139480142Y-73738674D02*
G01*
X139503803Y-73742184D01*
X139527007Y-73747996D01*
X139549529Y-73756054D01*
X139571153Y-73766282D01*
X139591670Y-73778579D01*
X139610883Y-73792829D01*
X139628607Y-73808893D01*
X139644671Y-73826617D01*
X139658921Y-73845830D01*
X139671218Y-73866347D01*
X139681446Y-73887971D01*
X139689504Y-73910493D01*
X139695316Y-73933697D01*
X139698826Y-73957358D01*
X139700000Y-73981250D01*
X139700000Y-74468750D01*
X139698826Y-74492642D01*
X139695316Y-74516303D01*
X139689504Y-74539507D01*
X139681446Y-74562029D01*
X139671218Y-74583653D01*
X139658921Y-74604170D01*
X139644671Y-74623383D01*
X139628607Y-74641107D01*
X139610883Y-74657171D01*
X139591670Y-74671421D01*
X139571153Y-74683718D01*
X139549529Y-74693946D01*
X139527007Y-74702004D01*
X139503803Y-74707816D01*
X139480142Y-74711326D01*
X139456250Y-74712500D01*
X138543750Y-74712500D01*
X138519858Y-74711326D01*
X138496197Y-74707816D01*
X138472993Y-74702004D01*
X138450471Y-74693946D01*
X138428847Y-74683718D01*
X138408330Y-74671421D01*
X138389117Y-74657171D01*
X138371393Y-74641107D01*
X138355329Y-74623383D01*
X138341079Y-74604170D01*
X138328782Y-74583653D01*
X138318554Y-74562029D01*
X138310496Y-74539507D01*
X138304684Y-74516303D01*
X138301174Y-74492642D01*
X138300000Y-74468750D01*
X138300000Y-73981250D01*
X138301174Y-73957358D01*
X138304684Y-73933697D01*
X138310496Y-73910493D01*
X138318554Y-73887971D01*
X138328782Y-73866347D01*
X138341079Y-73845830D01*
X138355329Y-73826617D01*
X138371393Y-73808893D01*
X138389117Y-73792829D01*
X138408330Y-73778579D01*
X138428847Y-73766282D01*
X138450471Y-73756054D01*
X138472993Y-73747996D01*
X138496197Y-73742184D01*
X138519858Y-73738674D01*
X138543750Y-73737500D01*
X139456250Y-73737500D01*
X139480142Y-73738674D01*
X139480142Y-73738674D01*
G37*
D15*
X139000000Y-74225000D03*
M02*
