G04 #@! TF.GenerationSoftware,KiCad,Pcbnew,5.1.6*
G04 #@! TF.CreationDate,2020-08-20T20:45:38+02:00*
G04 #@! TF.ProjectId,kicon19-badge,6b69636f-6e31-4392-9d62-616467652e6b,rev?*
G04 #@! TF.SameCoordinates,Original*
G04 #@! TF.FileFunction,Soldermask,Bot*
G04 #@! TF.FilePolarity,Negative*
%FSLAX46Y46*%
G04 Gerber Fmt 4.6, Leading zero omitted, Abs format (unit mm)*
G04 Created by KiCad (PCBNEW 5.1.6) date 2020-08-20 20:45:38*
%MOMM*%
%LPD*%
G01*
G04 APERTURE LIST*
%ADD10C,0.100000*%
G04 APERTURE END LIST*
D10*
G36*
X140906778Y-121310547D02*
G01*
X141073224Y-121379491D01*
X141223022Y-121479583D01*
X141350417Y-121606978D01*
X141450509Y-121756776D01*
X141519453Y-121923222D01*
X141554600Y-122099918D01*
X141554600Y-122280082D01*
X141519453Y-122456778D01*
X141450509Y-122623224D01*
X141350417Y-122773022D01*
X141223022Y-122900417D01*
X141073224Y-123000509D01*
X140906778Y-123069453D01*
X140730082Y-123104600D01*
X140549918Y-123104600D01*
X140373222Y-123069453D01*
X140206776Y-123000509D01*
X140056978Y-122900417D01*
X139929583Y-122773022D01*
X139829491Y-122623224D01*
X139760547Y-122456778D01*
X139725400Y-122280082D01*
X139725400Y-122099918D01*
X139760547Y-121923222D01*
X139829491Y-121756776D01*
X139929583Y-121606978D01*
X140056978Y-121479583D01*
X140206776Y-121379491D01*
X140373222Y-121310547D01*
X140549918Y-121275400D01*
X140730082Y-121275400D01*
X140906778Y-121310547D01*
G37*
G36*
X161226778Y-121310547D02*
G01*
X161393224Y-121379491D01*
X161543022Y-121479583D01*
X161670417Y-121606978D01*
X161770509Y-121756776D01*
X161839453Y-121923222D01*
X161874600Y-122099918D01*
X161874600Y-122280082D01*
X161839453Y-122456778D01*
X161770509Y-122623224D01*
X161670417Y-122773022D01*
X161543022Y-122900417D01*
X161393224Y-123000509D01*
X161226778Y-123069453D01*
X161050082Y-123104600D01*
X160869918Y-123104600D01*
X160693222Y-123069453D01*
X160526776Y-123000509D01*
X160376978Y-122900417D01*
X160249583Y-122773022D01*
X160149491Y-122623224D01*
X160080547Y-122456778D01*
X160045400Y-122280082D01*
X160045400Y-122099918D01*
X160080547Y-121923222D01*
X160149491Y-121756776D01*
X160249583Y-121606978D01*
X160376978Y-121479583D01*
X160526776Y-121379491D01*
X160693222Y-121310547D01*
X160869918Y-121275400D01*
X161050082Y-121275400D01*
X161226778Y-121310547D01*
G37*
G36*
X163766778Y-121310547D02*
G01*
X163933224Y-121379491D01*
X164083022Y-121479583D01*
X164210417Y-121606978D01*
X164310509Y-121756776D01*
X164379453Y-121923222D01*
X164414600Y-122099918D01*
X164414600Y-122280082D01*
X164379453Y-122456778D01*
X164310509Y-122623224D01*
X164210417Y-122773022D01*
X164083022Y-122900417D01*
X163933224Y-123000509D01*
X163766778Y-123069453D01*
X163590082Y-123104600D01*
X163409918Y-123104600D01*
X163233222Y-123069453D01*
X163066776Y-123000509D01*
X162916978Y-122900417D01*
X162789583Y-122773022D01*
X162689491Y-122623224D01*
X162620547Y-122456778D01*
X162585400Y-122280082D01*
X162585400Y-122099918D01*
X162620547Y-121923222D01*
X162689491Y-121756776D01*
X162789583Y-121606978D01*
X162916978Y-121479583D01*
X163066776Y-121379491D01*
X163233222Y-121310547D01*
X163409918Y-121275400D01*
X163590082Y-121275400D01*
X163766778Y-121310547D01*
G37*
G36*
X158686778Y-121310547D02*
G01*
X158853224Y-121379491D01*
X159003022Y-121479583D01*
X159130417Y-121606978D01*
X159230509Y-121756776D01*
X159299453Y-121923222D01*
X159334600Y-122099918D01*
X159334600Y-122280082D01*
X159299453Y-122456778D01*
X159230509Y-122623224D01*
X159130417Y-122773022D01*
X159003022Y-122900417D01*
X158853224Y-123000509D01*
X158686778Y-123069453D01*
X158510082Y-123104600D01*
X158329918Y-123104600D01*
X158153222Y-123069453D01*
X157986776Y-123000509D01*
X157836978Y-122900417D01*
X157709583Y-122773022D01*
X157609491Y-122623224D01*
X157540547Y-122456778D01*
X157505400Y-122280082D01*
X157505400Y-122099918D01*
X157540547Y-121923222D01*
X157609491Y-121756776D01*
X157709583Y-121606978D01*
X157836978Y-121479583D01*
X157986776Y-121379491D01*
X158153222Y-121310547D01*
X158329918Y-121275400D01*
X158510082Y-121275400D01*
X158686778Y-121310547D01*
G37*
G36*
X156146778Y-121310547D02*
G01*
X156313224Y-121379491D01*
X156463022Y-121479583D01*
X156590417Y-121606978D01*
X156690509Y-121756776D01*
X156759453Y-121923222D01*
X156794600Y-122099918D01*
X156794600Y-122280082D01*
X156759453Y-122456778D01*
X156690509Y-122623224D01*
X156590417Y-122773022D01*
X156463022Y-122900417D01*
X156313224Y-123000509D01*
X156146778Y-123069453D01*
X155970082Y-123104600D01*
X155789918Y-123104600D01*
X155613222Y-123069453D01*
X155446776Y-123000509D01*
X155296978Y-122900417D01*
X155169583Y-122773022D01*
X155069491Y-122623224D01*
X155000547Y-122456778D01*
X154965400Y-122280082D01*
X154965400Y-122099918D01*
X155000547Y-121923222D01*
X155069491Y-121756776D01*
X155169583Y-121606978D01*
X155296978Y-121479583D01*
X155446776Y-121379491D01*
X155613222Y-121310547D01*
X155789918Y-121275400D01*
X155970082Y-121275400D01*
X156146778Y-121310547D01*
G37*
G36*
X153606778Y-121310547D02*
G01*
X153773224Y-121379491D01*
X153923022Y-121479583D01*
X154050417Y-121606978D01*
X154150509Y-121756776D01*
X154219453Y-121923222D01*
X154254600Y-122099918D01*
X154254600Y-122280082D01*
X154219453Y-122456778D01*
X154150509Y-122623224D01*
X154050417Y-122773022D01*
X153923022Y-122900417D01*
X153773224Y-123000509D01*
X153606778Y-123069453D01*
X153430082Y-123104600D01*
X153249918Y-123104600D01*
X153073222Y-123069453D01*
X152906776Y-123000509D01*
X152756978Y-122900417D01*
X152629583Y-122773022D01*
X152529491Y-122623224D01*
X152460547Y-122456778D01*
X152425400Y-122280082D01*
X152425400Y-122099918D01*
X152460547Y-121923222D01*
X152529491Y-121756776D01*
X152629583Y-121606978D01*
X152756978Y-121479583D01*
X152906776Y-121379491D01*
X153073222Y-121310547D01*
X153249918Y-121275400D01*
X153430082Y-121275400D01*
X153606778Y-121310547D01*
G37*
G36*
X148526778Y-121310547D02*
G01*
X148693224Y-121379491D01*
X148843022Y-121479583D01*
X148970417Y-121606978D01*
X149070509Y-121756776D01*
X149139453Y-121923222D01*
X149174600Y-122099918D01*
X149174600Y-122280082D01*
X149139453Y-122456778D01*
X149070509Y-122623224D01*
X148970417Y-122773022D01*
X148843022Y-122900417D01*
X148693224Y-123000509D01*
X148526778Y-123069453D01*
X148350082Y-123104600D01*
X148169918Y-123104600D01*
X147993222Y-123069453D01*
X147826776Y-123000509D01*
X147676978Y-122900417D01*
X147549583Y-122773022D01*
X147449491Y-122623224D01*
X147380547Y-122456778D01*
X147345400Y-122280082D01*
X147345400Y-122099918D01*
X147380547Y-121923222D01*
X147449491Y-121756776D01*
X147549583Y-121606978D01*
X147676978Y-121479583D01*
X147826776Y-121379491D01*
X147993222Y-121310547D01*
X148169918Y-121275400D01*
X148350082Y-121275400D01*
X148526778Y-121310547D01*
G37*
G36*
X145986778Y-121310547D02*
G01*
X146153224Y-121379491D01*
X146303022Y-121479583D01*
X146430417Y-121606978D01*
X146530509Y-121756776D01*
X146599453Y-121923222D01*
X146634600Y-122099918D01*
X146634600Y-122280082D01*
X146599453Y-122456778D01*
X146530509Y-122623224D01*
X146430417Y-122773022D01*
X146303022Y-122900417D01*
X146153224Y-123000509D01*
X145986778Y-123069453D01*
X145810082Y-123104600D01*
X145629918Y-123104600D01*
X145453222Y-123069453D01*
X145286776Y-123000509D01*
X145136978Y-122900417D01*
X145009583Y-122773022D01*
X144909491Y-122623224D01*
X144840547Y-122456778D01*
X144805400Y-122280082D01*
X144805400Y-122099918D01*
X144840547Y-121923222D01*
X144909491Y-121756776D01*
X145009583Y-121606978D01*
X145136978Y-121479583D01*
X145286776Y-121379491D01*
X145453222Y-121310547D01*
X145629918Y-121275400D01*
X145810082Y-121275400D01*
X145986778Y-121310547D01*
G37*
G36*
X143446778Y-121310547D02*
G01*
X143613224Y-121379491D01*
X143763022Y-121479583D01*
X143890417Y-121606978D01*
X143990509Y-121756776D01*
X144059453Y-121923222D01*
X144094600Y-122099918D01*
X144094600Y-122280082D01*
X144059453Y-122456778D01*
X143990509Y-122623224D01*
X143890417Y-122773022D01*
X143763022Y-122900417D01*
X143613224Y-123000509D01*
X143446778Y-123069453D01*
X143270082Y-123104600D01*
X143089918Y-123104600D01*
X142913222Y-123069453D01*
X142746776Y-123000509D01*
X142596978Y-122900417D01*
X142469583Y-122773022D01*
X142369491Y-122623224D01*
X142300547Y-122456778D01*
X142265400Y-122280082D01*
X142265400Y-122099918D01*
X142300547Y-121923222D01*
X142369491Y-121756776D01*
X142469583Y-121606978D01*
X142596978Y-121479583D01*
X142746776Y-121379491D01*
X142913222Y-121310547D01*
X143089918Y-121275400D01*
X143270082Y-121275400D01*
X143446778Y-121310547D01*
G37*
G36*
X151066778Y-121310547D02*
G01*
X151233224Y-121379491D01*
X151383022Y-121479583D01*
X151510417Y-121606978D01*
X151610509Y-121756776D01*
X151679453Y-121923222D01*
X151714600Y-122099918D01*
X151714600Y-122280082D01*
X151679453Y-122456778D01*
X151610509Y-122623224D01*
X151510417Y-122773022D01*
X151383022Y-122900417D01*
X151233224Y-123000509D01*
X151066778Y-123069453D01*
X150890082Y-123104600D01*
X150709918Y-123104600D01*
X150533222Y-123069453D01*
X150366776Y-123000509D01*
X150216978Y-122900417D01*
X150089583Y-122773022D01*
X149989491Y-122623224D01*
X149920547Y-122456778D01*
X149885400Y-122280082D01*
X149885400Y-122099918D01*
X149920547Y-121923222D01*
X149989491Y-121756776D01*
X150089583Y-121606978D01*
X150216978Y-121479583D01*
X150366776Y-121379491D01*
X150533222Y-121310547D01*
X150709918Y-121275400D01*
X150890082Y-121275400D01*
X151066778Y-121310547D01*
G37*
G36*
X107997615Y-121010173D02*
G01*
X108101479Y-121041679D01*
X108128655Y-121056205D01*
X108197200Y-121092843D01*
X108281101Y-121161699D01*
X108349957Y-121245600D01*
X108365885Y-121275400D01*
X108401121Y-121341321D01*
X108432627Y-121445185D01*
X108443266Y-121553200D01*
X108432627Y-121661215D01*
X108401121Y-121765079D01*
X108401119Y-121765082D01*
X108349957Y-121860800D01*
X108281101Y-121944701D01*
X108197200Y-122013557D01*
X108128655Y-122050195D01*
X108101479Y-122064721D01*
X107997615Y-122096227D01*
X107916667Y-122104200D01*
X107162533Y-122104200D01*
X107081585Y-122096227D01*
X106977721Y-122064721D01*
X106950545Y-122050195D01*
X106882000Y-122013557D01*
X106798099Y-121944701D01*
X106729243Y-121860800D01*
X106678081Y-121765082D01*
X106678079Y-121765079D01*
X106646573Y-121661215D01*
X106635934Y-121553200D01*
X106646573Y-121445185D01*
X106678079Y-121341321D01*
X106713315Y-121275400D01*
X106729243Y-121245600D01*
X106798099Y-121161699D01*
X106882000Y-121092843D01*
X106950545Y-121056205D01*
X106977721Y-121041679D01*
X107081585Y-121010173D01*
X107162533Y-121002200D01*
X107916667Y-121002200D01*
X107997615Y-121010173D01*
G37*
G36*
X158686778Y-118770547D02*
G01*
X158853224Y-118839491D01*
X159003022Y-118939583D01*
X159130417Y-119066978D01*
X159230509Y-119216776D01*
X159299453Y-119383222D01*
X159334600Y-119559918D01*
X159334600Y-119740082D01*
X159299453Y-119916778D01*
X159230509Y-120083224D01*
X159130417Y-120233022D01*
X159003022Y-120360417D01*
X158853224Y-120460509D01*
X158686778Y-120529453D01*
X158510082Y-120564600D01*
X158329918Y-120564600D01*
X158153222Y-120529453D01*
X157986776Y-120460509D01*
X157836978Y-120360417D01*
X157709583Y-120233022D01*
X157609491Y-120083224D01*
X157540547Y-119916778D01*
X157505400Y-119740082D01*
X157505400Y-119559918D01*
X157540547Y-119383222D01*
X157609491Y-119216776D01*
X157709583Y-119066978D01*
X157836978Y-118939583D01*
X157986776Y-118839491D01*
X158153222Y-118770547D01*
X158329918Y-118735400D01*
X158510082Y-118735400D01*
X158686778Y-118770547D01*
G37*
G36*
X161226778Y-118770547D02*
G01*
X161393224Y-118839491D01*
X161543022Y-118939583D01*
X161670417Y-119066978D01*
X161770509Y-119216776D01*
X161839453Y-119383222D01*
X161874600Y-119559918D01*
X161874600Y-119740082D01*
X161839453Y-119916778D01*
X161770509Y-120083224D01*
X161670417Y-120233022D01*
X161543022Y-120360417D01*
X161393224Y-120460509D01*
X161226778Y-120529453D01*
X161050082Y-120564600D01*
X160869918Y-120564600D01*
X160693222Y-120529453D01*
X160526776Y-120460509D01*
X160376978Y-120360417D01*
X160249583Y-120233022D01*
X160149491Y-120083224D01*
X160080547Y-119916778D01*
X160045400Y-119740082D01*
X160045400Y-119559918D01*
X160080547Y-119383222D01*
X160149491Y-119216776D01*
X160249583Y-119066978D01*
X160376978Y-118939583D01*
X160526776Y-118839491D01*
X160693222Y-118770547D01*
X160869918Y-118735400D01*
X161050082Y-118735400D01*
X161226778Y-118770547D01*
G37*
G36*
X164414600Y-120564600D02*
G01*
X162585400Y-120564600D01*
X162585400Y-118735400D01*
X164414600Y-118735400D01*
X164414600Y-120564600D01*
G37*
G36*
X140906778Y-118770547D02*
G01*
X141073224Y-118839491D01*
X141223022Y-118939583D01*
X141350417Y-119066978D01*
X141450509Y-119216776D01*
X141519453Y-119383222D01*
X141554600Y-119559918D01*
X141554600Y-119740082D01*
X141519453Y-119916778D01*
X141450509Y-120083224D01*
X141350417Y-120233022D01*
X141223022Y-120360417D01*
X141073224Y-120460509D01*
X140906778Y-120529453D01*
X140730082Y-120564600D01*
X140549918Y-120564600D01*
X140373222Y-120529453D01*
X140206776Y-120460509D01*
X140056978Y-120360417D01*
X139929583Y-120233022D01*
X139829491Y-120083224D01*
X139760547Y-119916778D01*
X139725400Y-119740082D01*
X139725400Y-119559918D01*
X139760547Y-119383222D01*
X139829491Y-119216776D01*
X139929583Y-119066978D01*
X140056978Y-118939583D01*
X140206776Y-118839491D01*
X140373222Y-118770547D01*
X140549918Y-118735400D01*
X140730082Y-118735400D01*
X140906778Y-118770547D01*
G37*
G36*
X143446778Y-118770547D02*
G01*
X143613224Y-118839491D01*
X143763022Y-118939583D01*
X143890417Y-119066978D01*
X143990509Y-119216776D01*
X144059453Y-119383222D01*
X144094600Y-119559918D01*
X144094600Y-119740082D01*
X144059453Y-119916778D01*
X143990509Y-120083224D01*
X143890417Y-120233022D01*
X143763022Y-120360417D01*
X143613224Y-120460509D01*
X143446778Y-120529453D01*
X143270082Y-120564600D01*
X143089918Y-120564600D01*
X142913222Y-120529453D01*
X142746776Y-120460509D01*
X142596978Y-120360417D01*
X142469583Y-120233022D01*
X142369491Y-120083224D01*
X142300547Y-119916778D01*
X142265400Y-119740082D01*
X142265400Y-119559918D01*
X142300547Y-119383222D01*
X142369491Y-119216776D01*
X142469583Y-119066978D01*
X142596978Y-118939583D01*
X142746776Y-118839491D01*
X142913222Y-118770547D01*
X143089918Y-118735400D01*
X143270082Y-118735400D01*
X143446778Y-118770547D01*
G37*
G36*
X156146778Y-118770547D02*
G01*
X156313224Y-118839491D01*
X156463022Y-118939583D01*
X156590417Y-119066978D01*
X156690509Y-119216776D01*
X156759453Y-119383222D01*
X156794600Y-119559918D01*
X156794600Y-119740082D01*
X156759453Y-119916778D01*
X156690509Y-120083224D01*
X156590417Y-120233022D01*
X156463022Y-120360417D01*
X156313224Y-120460509D01*
X156146778Y-120529453D01*
X155970082Y-120564600D01*
X155789918Y-120564600D01*
X155613222Y-120529453D01*
X155446776Y-120460509D01*
X155296978Y-120360417D01*
X155169583Y-120233022D01*
X155069491Y-120083224D01*
X155000547Y-119916778D01*
X154965400Y-119740082D01*
X154965400Y-119559918D01*
X155000547Y-119383222D01*
X155069491Y-119216776D01*
X155169583Y-119066978D01*
X155296978Y-118939583D01*
X155446776Y-118839491D01*
X155613222Y-118770547D01*
X155789918Y-118735400D01*
X155970082Y-118735400D01*
X156146778Y-118770547D01*
G37*
G36*
X145986778Y-118770547D02*
G01*
X146153224Y-118839491D01*
X146303022Y-118939583D01*
X146430417Y-119066978D01*
X146530509Y-119216776D01*
X146599453Y-119383222D01*
X146634600Y-119559918D01*
X146634600Y-119740082D01*
X146599453Y-119916778D01*
X146530509Y-120083224D01*
X146430417Y-120233022D01*
X146303022Y-120360417D01*
X146153224Y-120460509D01*
X145986778Y-120529453D01*
X145810082Y-120564600D01*
X145629918Y-120564600D01*
X145453222Y-120529453D01*
X145286776Y-120460509D01*
X145136978Y-120360417D01*
X145009583Y-120233022D01*
X144909491Y-120083224D01*
X144840547Y-119916778D01*
X144805400Y-119740082D01*
X144805400Y-119559918D01*
X144840547Y-119383222D01*
X144909491Y-119216776D01*
X145009583Y-119066978D01*
X145136978Y-118939583D01*
X145286776Y-118839491D01*
X145453222Y-118770547D01*
X145629918Y-118735400D01*
X145810082Y-118735400D01*
X145986778Y-118770547D01*
G37*
G36*
X153606778Y-118770547D02*
G01*
X153773224Y-118839491D01*
X153923022Y-118939583D01*
X154050417Y-119066978D01*
X154150509Y-119216776D01*
X154219453Y-119383222D01*
X154254600Y-119559918D01*
X154254600Y-119740082D01*
X154219453Y-119916778D01*
X154150509Y-120083224D01*
X154050417Y-120233022D01*
X153923022Y-120360417D01*
X153773224Y-120460509D01*
X153606778Y-120529453D01*
X153430082Y-120564600D01*
X153249918Y-120564600D01*
X153073222Y-120529453D01*
X152906776Y-120460509D01*
X152756978Y-120360417D01*
X152629583Y-120233022D01*
X152529491Y-120083224D01*
X152460547Y-119916778D01*
X152425400Y-119740082D01*
X152425400Y-119559918D01*
X152460547Y-119383222D01*
X152529491Y-119216776D01*
X152629583Y-119066978D01*
X152756978Y-118939583D01*
X152906776Y-118839491D01*
X153073222Y-118770547D01*
X153249918Y-118735400D01*
X153430082Y-118735400D01*
X153606778Y-118770547D01*
G37*
G36*
X148526778Y-118770547D02*
G01*
X148693224Y-118839491D01*
X148843022Y-118939583D01*
X148970417Y-119066978D01*
X149070509Y-119216776D01*
X149139453Y-119383222D01*
X149174600Y-119559918D01*
X149174600Y-119740082D01*
X149139453Y-119916778D01*
X149070509Y-120083224D01*
X148970417Y-120233022D01*
X148843022Y-120360417D01*
X148693224Y-120460509D01*
X148526778Y-120529453D01*
X148350082Y-120564600D01*
X148169918Y-120564600D01*
X147993222Y-120529453D01*
X147826776Y-120460509D01*
X147676978Y-120360417D01*
X147549583Y-120233022D01*
X147449491Y-120083224D01*
X147380547Y-119916778D01*
X147345400Y-119740082D01*
X147345400Y-119559918D01*
X147380547Y-119383222D01*
X147449491Y-119216776D01*
X147549583Y-119066978D01*
X147676978Y-118939583D01*
X147826776Y-118839491D01*
X147993222Y-118770547D01*
X148169918Y-118735400D01*
X148350082Y-118735400D01*
X148526778Y-118770547D01*
G37*
G36*
X151066778Y-118770547D02*
G01*
X151233224Y-118839491D01*
X151383022Y-118939583D01*
X151510417Y-119066978D01*
X151610509Y-119216776D01*
X151679453Y-119383222D01*
X151714600Y-119559918D01*
X151714600Y-119740082D01*
X151679453Y-119916778D01*
X151610509Y-120083224D01*
X151510417Y-120233022D01*
X151383022Y-120360417D01*
X151233224Y-120460509D01*
X151066778Y-120529453D01*
X150890082Y-120564600D01*
X150709918Y-120564600D01*
X150533222Y-120529453D01*
X150366776Y-120460509D01*
X150216978Y-120360417D01*
X150089583Y-120233022D01*
X149989491Y-120083224D01*
X149920547Y-119916778D01*
X149885400Y-119740082D01*
X149885400Y-119559918D01*
X149920547Y-119383222D01*
X149989491Y-119216776D01*
X150089583Y-119066978D01*
X150216978Y-118939583D01*
X150366776Y-118839491D01*
X150533222Y-118770547D01*
X150709918Y-118735400D01*
X150890082Y-118735400D01*
X151066778Y-118770547D01*
G37*
G36*
X107997615Y-114410173D02*
G01*
X108101479Y-114441679D01*
X108128655Y-114456205D01*
X108197200Y-114492843D01*
X108281101Y-114561699D01*
X108349957Y-114645600D01*
X108382998Y-114707416D01*
X108401121Y-114741321D01*
X108432627Y-114845185D01*
X108443266Y-114953200D01*
X108432627Y-115061215D01*
X108401121Y-115165079D01*
X108401119Y-115165082D01*
X108349957Y-115260800D01*
X108281101Y-115344701D01*
X108197200Y-115413557D01*
X108128655Y-115450195D01*
X108101479Y-115464721D01*
X107997615Y-115496227D01*
X107916667Y-115504200D01*
X107162533Y-115504200D01*
X107081585Y-115496227D01*
X106977721Y-115464721D01*
X106950545Y-115450195D01*
X106882000Y-115413557D01*
X106798099Y-115344701D01*
X106729243Y-115260800D01*
X106678081Y-115165082D01*
X106678079Y-115165079D01*
X106646573Y-115061215D01*
X106635934Y-114953200D01*
X106646573Y-114845185D01*
X106678079Y-114741321D01*
X106696202Y-114707416D01*
X106729243Y-114645600D01*
X106798099Y-114561699D01*
X106882000Y-114492843D01*
X106950545Y-114456205D01*
X106977721Y-114441679D01*
X107081585Y-114410173D01*
X107162533Y-114402200D01*
X107916667Y-114402200D01*
X107997615Y-114410173D01*
G37*
G36*
X167975256Y-111816298D02*
G01*
X168081579Y-111837447D01*
X168382042Y-111961903D01*
X168652451Y-112142585D01*
X168882415Y-112372549D01*
X169063097Y-112642958D01*
X169187553Y-112943421D01*
X169251000Y-113262391D01*
X169251000Y-113587609D01*
X169187553Y-113906579D01*
X169063097Y-114207042D01*
X168882415Y-114477451D01*
X168652451Y-114707415D01*
X168382042Y-114888097D01*
X168081579Y-115012553D01*
X167975256Y-115033702D01*
X167762611Y-115076000D01*
X167437389Y-115076000D01*
X167224744Y-115033702D01*
X167118421Y-115012553D01*
X166817958Y-114888097D01*
X166547549Y-114707415D01*
X166317585Y-114477451D01*
X166136903Y-114207042D01*
X166012447Y-113906579D01*
X165949000Y-113587609D01*
X165949000Y-113262391D01*
X166012447Y-112943421D01*
X166136903Y-112642958D01*
X166317585Y-112372549D01*
X166547549Y-112142585D01*
X166817958Y-111961903D01*
X167118421Y-111837447D01*
X167224744Y-111816298D01*
X167437389Y-111774000D01*
X167762611Y-111774000D01*
X167975256Y-111816298D01*
G37*
G36*
X139025256Y-111816298D02*
G01*
X139131579Y-111837447D01*
X139432042Y-111961903D01*
X139702451Y-112142585D01*
X139932415Y-112372549D01*
X140113097Y-112642958D01*
X140237553Y-112943421D01*
X140301000Y-113262391D01*
X140301000Y-113587609D01*
X140237553Y-113906579D01*
X140113097Y-114207042D01*
X139932415Y-114477451D01*
X139702451Y-114707415D01*
X139432042Y-114888097D01*
X139131579Y-115012553D01*
X139025256Y-115033702D01*
X138812611Y-115076000D01*
X138487389Y-115076000D01*
X138274744Y-115033702D01*
X138168421Y-115012553D01*
X137867958Y-114888097D01*
X137597549Y-114707415D01*
X137367585Y-114477451D01*
X137186903Y-114207042D01*
X137062447Y-113906579D01*
X136999000Y-113587609D01*
X136999000Y-113262391D01*
X137062447Y-112943421D01*
X137186903Y-112642958D01*
X137367585Y-112372549D01*
X137597549Y-112142585D01*
X137867958Y-111961903D01*
X138168421Y-111837447D01*
X138274744Y-111816298D01*
X138487389Y-111774000D01*
X138812611Y-111774000D01*
X139025256Y-111816298D01*
G37*
G36*
X175113512Y-109643927D02*
G01*
X175262812Y-109673624D01*
X175426784Y-109741544D01*
X175574354Y-109840147D01*
X175699853Y-109965646D01*
X175798456Y-110113216D01*
X175866376Y-110277188D01*
X175901000Y-110451259D01*
X175901000Y-110628741D01*
X175866376Y-110802812D01*
X175798456Y-110966784D01*
X175699853Y-111114354D01*
X175574354Y-111239853D01*
X175426784Y-111338456D01*
X175262812Y-111406376D01*
X175113512Y-111436073D01*
X175088742Y-111441000D01*
X174911258Y-111441000D01*
X174886488Y-111436073D01*
X174737188Y-111406376D01*
X174573216Y-111338456D01*
X174425646Y-111239853D01*
X174300147Y-111114354D01*
X174201544Y-110966784D01*
X174133624Y-110802812D01*
X174099000Y-110628741D01*
X174099000Y-110451259D01*
X174133624Y-110277188D01*
X174201544Y-110113216D01*
X174300147Y-109965646D01*
X174425646Y-109840147D01*
X174573216Y-109741544D01*
X174737188Y-109673624D01*
X174886488Y-109643927D01*
X174911258Y-109639000D01*
X175088742Y-109639000D01*
X175113512Y-109643927D01*
G37*
G36*
X175113512Y-107103927D02*
G01*
X175262812Y-107133624D01*
X175426784Y-107201544D01*
X175574354Y-107300147D01*
X175699853Y-107425646D01*
X175798456Y-107573216D01*
X175866376Y-107737188D01*
X175901000Y-107911259D01*
X175901000Y-108088741D01*
X175866376Y-108262812D01*
X175798456Y-108426784D01*
X175699853Y-108574354D01*
X175574354Y-108699853D01*
X175426784Y-108798456D01*
X175262812Y-108866376D01*
X175113512Y-108896073D01*
X175088742Y-108901000D01*
X174911258Y-108901000D01*
X174886488Y-108896073D01*
X174737188Y-108866376D01*
X174573216Y-108798456D01*
X174425646Y-108699853D01*
X174300147Y-108574354D01*
X174201544Y-108426784D01*
X174133624Y-108262812D01*
X174099000Y-108088741D01*
X174099000Y-107911259D01*
X174133624Y-107737188D01*
X174201544Y-107573216D01*
X174300147Y-107425646D01*
X174425646Y-107300147D01*
X174573216Y-107201544D01*
X174737188Y-107133624D01*
X174886488Y-107103927D01*
X174911258Y-107099000D01*
X175088742Y-107099000D01*
X175113512Y-107103927D01*
G37*
G36*
X175113512Y-104563927D02*
G01*
X175262812Y-104593624D01*
X175426784Y-104661544D01*
X175574354Y-104760147D01*
X175699853Y-104885646D01*
X175798456Y-105033216D01*
X175866376Y-105197188D01*
X175901000Y-105371259D01*
X175901000Y-105548741D01*
X175866376Y-105722812D01*
X175798456Y-105886784D01*
X175699853Y-106034354D01*
X175574354Y-106159853D01*
X175426784Y-106258456D01*
X175262812Y-106326376D01*
X175113512Y-106356073D01*
X175088742Y-106361000D01*
X174911258Y-106361000D01*
X174886488Y-106356073D01*
X174737188Y-106326376D01*
X174573216Y-106258456D01*
X174425646Y-106159853D01*
X174300147Y-106034354D01*
X174201544Y-105886784D01*
X174133624Y-105722812D01*
X174099000Y-105548741D01*
X174099000Y-105371259D01*
X174133624Y-105197188D01*
X174201544Y-105033216D01*
X174300147Y-104885646D01*
X174425646Y-104760147D01*
X174573216Y-104661544D01*
X174737188Y-104593624D01*
X174886488Y-104563927D01*
X174911258Y-104559000D01*
X175088742Y-104559000D01*
X175113512Y-104563927D01*
G37*
G36*
X110803057Y-91675059D02*
G01*
X111142547Y-91778042D01*
X111142549Y-91778043D01*
X111455423Y-91945277D01*
X111729661Y-92170339D01*
X111954723Y-92444578D01*
X111982844Y-92497189D01*
X112121958Y-92757452D01*
X112224941Y-93096942D01*
X112251000Y-93361525D01*
X112251000Y-102538475D01*
X112224941Y-102803058D01*
X112121958Y-103142548D01*
X112121957Y-103142550D01*
X111954723Y-103455422D01*
X111729661Y-103729661D01*
X111455422Y-103954723D01*
X111142550Y-104121957D01*
X111142548Y-104121958D01*
X110803058Y-104224941D01*
X110450000Y-104259714D01*
X110096943Y-104224941D01*
X109757453Y-104121958D01*
X109757451Y-104121957D01*
X109444579Y-103954723D01*
X109170340Y-103729661D01*
X108945278Y-103455422D01*
X108778044Y-103142550D01*
X108778043Y-103142548D01*
X108675060Y-102803058D01*
X108649001Y-102538475D01*
X108649000Y-93361526D01*
X108675059Y-93096943D01*
X108778042Y-92757453D01*
X108778044Y-92757450D01*
X108945277Y-92444577D01*
X109170339Y-92170339D01*
X109444578Y-91945277D01*
X109757450Y-91778043D01*
X109757452Y-91778042D01*
X110096942Y-91675059D01*
X110450000Y-91640286D01*
X110803057Y-91675059D01*
G37*
G36*
X175107901Y-102022811D02*
G01*
X175262812Y-102053624D01*
X175426784Y-102121544D01*
X175574354Y-102220147D01*
X175699853Y-102345646D01*
X175798456Y-102493216D01*
X175866376Y-102657188D01*
X175901000Y-102831259D01*
X175901000Y-103008741D01*
X175866376Y-103182812D01*
X175798456Y-103346784D01*
X175699853Y-103494354D01*
X175574354Y-103619853D01*
X175426784Y-103718456D01*
X175262812Y-103786376D01*
X175113512Y-103816073D01*
X175088742Y-103821000D01*
X174911258Y-103821000D01*
X174886488Y-103816073D01*
X174737188Y-103786376D01*
X174573216Y-103718456D01*
X174425646Y-103619853D01*
X174300147Y-103494354D01*
X174201544Y-103346784D01*
X174133624Y-103182812D01*
X174099000Y-103008741D01*
X174099000Y-102831259D01*
X174133624Y-102657188D01*
X174201544Y-102493216D01*
X174300147Y-102345646D01*
X174425646Y-102220147D01*
X174573216Y-102121544D01*
X174737188Y-102053624D01*
X174892099Y-102022811D01*
X174911258Y-102019000D01*
X175088742Y-102019000D01*
X175107901Y-102022811D01*
G37*
G36*
X168613512Y-100863927D02*
G01*
X168762812Y-100893624D01*
X168926784Y-100961544D01*
X169074354Y-101060147D01*
X169199853Y-101185646D01*
X169298456Y-101333216D01*
X169366376Y-101497188D01*
X169401000Y-101671259D01*
X169401000Y-101848741D01*
X169366376Y-102022812D01*
X169298456Y-102186784D01*
X169199853Y-102334354D01*
X169074354Y-102459853D01*
X168926784Y-102558456D01*
X168762812Y-102626376D01*
X168613512Y-102656073D01*
X168588742Y-102661000D01*
X168411258Y-102661000D01*
X168386488Y-102656073D01*
X168237188Y-102626376D01*
X168073216Y-102558456D01*
X167925646Y-102459853D01*
X167800147Y-102334354D01*
X167701544Y-102186784D01*
X167633624Y-102022812D01*
X167599000Y-101848741D01*
X167599000Y-101671259D01*
X167633624Y-101497188D01*
X167701544Y-101333216D01*
X167800147Y-101185646D01*
X167925646Y-101060147D01*
X168073216Y-100961544D01*
X168237188Y-100893624D01*
X168386488Y-100863927D01*
X168411258Y-100859000D01*
X168588742Y-100859000D01*
X168613512Y-100863927D01*
G37*
G36*
X175107901Y-99482811D02*
G01*
X175262812Y-99513624D01*
X175426784Y-99581544D01*
X175574354Y-99680147D01*
X175699853Y-99805646D01*
X175798456Y-99953216D01*
X175866376Y-100117188D01*
X175901000Y-100291259D01*
X175901000Y-100468741D01*
X175866376Y-100642812D01*
X175798456Y-100806784D01*
X175699853Y-100954354D01*
X175574354Y-101079853D01*
X175426784Y-101178456D01*
X175262812Y-101246376D01*
X175113512Y-101276073D01*
X175088742Y-101281000D01*
X174911258Y-101281000D01*
X174886488Y-101276073D01*
X174737188Y-101246376D01*
X174573216Y-101178456D01*
X174425646Y-101079853D01*
X174300147Y-100954354D01*
X174201544Y-100806784D01*
X174133624Y-100642812D01*
X174099000Y-100468741D01*
X174099000Y-100291259D01*
X174133624Y-100117188D01*
X174201544Y-99953216D01*
X174300147Y-99805646D01*
X174425646Y-99680147D01*
X174573216Y-99581544D01*
X174737188Y-99513624D01*
X174892099Y-99482811D01*
X174911258Y-99479000D01*
X175088742Y-99479000D01*
X175107901Y-99482811D01*
G37*
G36*
X168613512Y-98323927D02*
G01*
X168762812Y-98353624D01*
X168926784Y-98421544D01*
X169074354Y-98520147D01*
X169199853Y-98645646D01*
X169298456Y-98793216D01*
X169366376Y-98957188D01*
X169401000Y-99131259D01*
X169401000Y-99308741D01*
X169366376Y-99482812D01*
X169298456Y-99646784D01*
X169199853Y-99794354D01*
X169074354Y-99919853D01*
X168926784Y-100018456D01*
X168762812Y-100086376D01*
X168613512Y-100116073D01*
X168588742Y-100121000D01*
X168411258Y-100121000D01*
X168386488Y-100116073D01*
X168237188Y-100086376D01*
X168073216Y-100018456D01*
X167925646Y-99919853D01*
X167800147Y-99794354D01*
X167701544Y-99646784D01*
X167633624Y-99482812D01*
X167599000Y-99308741D01*
X167599000Y-99131259D01*
X167633624Y-98957188D01*
X167701544Y-98793216D01*
X167800147Y-98645646D01*
X167925646Y-98520147D01*
X168073216Y-98421544D01*
X168237188Y-98353624D01*
X168386488Y-98323927D01*
X168411258Y-98319000D01*
X168588742Y-98319000D01*
X168613512Y-98323927D01*
G37*
G36*
X175107901Y-96942811D02*
G01*
X175262812Y-96973624D01*
X175426784Y-97041544D01*
X175574354Y-97140147D01*
X175699853Y-97265646D01*
X175798456Y-97413216D01*
X175866376Y-97577188D01*
X175901000Y-97751259D01*
X175901000Y-97928741D01*
X175866376Y-98102812D01*
X175798456Y-98266784D01*
X175699853Y-98414354D01*
X175574354Y-98539853D01*
X175426784Y-98638456D01*
X175262812Y-98706376D01*
X175113512Y-98736073D01*
X175088742Y-98741000D01*
X174911258Y-98741000D01*
X174886488Y-98736073D01*
X174737188Y-98706376D01*
X174573216Y-98638456D01*
X174425646Y-98539853D01*
X174300147Y-98414354D01*
X174201544Y-98266784D01*
X174133624Y-98102812D01*
X174099000Y-97928741D01*
X174099000Y-97751259D01*
X174133624Y-97577188D01*
X174201544Y-97413216D01*
X174300147Y-97265646D01*
X174425646Y-97140147D01*
X174573216Y-97041544D01*
X174737188Y-96973624D01*
X174892099Y-96942811D01*
X174911258Y-96939000D01*
X175088742Y-96939000D01*
X175107901Y-96942811D01*
G37*
G36*
X168613512Y-95783927D02*
G01*
X168762812Y-95813624D01*
X168926784Y-95881544D01*
X169074354Y-95980147D01*
X169199853Y-96105646D01*
X169298456Y-96253216D01*
X169366376Y-96417188D01*
X169401000Y-96591259D01*
X169401000Y-96768741D01*
X169366376Y-96942812D01*
X169298456Y-97106784D01*
X169199853Y-97254354D01*
X169074354Y-97379853D01*
X168926784Y-97478456D01*
X168762812Y-97546376D01*
X168613512Y-97576073D01*
X168588742Y-97581000D01*
X168411258Y-97581000D01*
X168386488Y-97576073D01*
X168237188Y-97546376D01*
X168073216Y-97478456D01*
X167925646Y-97379853D01*
X167800147Y-97254354D01*
X167701544Y-97106784D01*
X167633624Y-96942812D01*
X167599000Y-96768741D01*
X167599000Y-96591259D01*
X167633624Y-96417188D01*
X167701544Y-96253216D01*
X167800147Y-96105646D01*
X167925646Y-95980147D01*
X168073216Y-95881544D01*
X168237188Y-95813624D01*
X168386488Y-95783927D01*
X168411258Y-95779000D01*
X168588742Y-95779000D01*
X168613512Y-95783927D01*
G37*
G36*
X175107901Y-94402811D02*
G01*
X175262812Y-94433624D01*
X175426784Y-94501544D01*
X175574354Y-94600147D01*
X175699853Y-94725646D01*
X175798456Y-94873216D01*
X175866376Y-95037188D01*
X175901000Y-95211259D01*
X175901000Y-95388741D01*
X175866376Y-95562812D01*
X175798456Y-95726784D01*
X175699853Y-95874354D01*
X175574354Y-95999853D01*
X175426784Y-96098456D01*
X175262812Y-96166376D01*
X175113512Y-96196073D01*
X175088742Y-96201000D01*
X174911258Y-96201000D01*
X174886488Y-96196073D01*
X174737188Y-96166376D01*
X174573216Y-96098456D01*
X174425646Y-95999853D01*
X174300147Y-95874354D01*
X174201544Y-95726784D01*
X174133624Y-95562812D01*
X174099000Y-95388741D01*
X174099000Y-95211259D01*
X174133624Y-95037188D01*
X174201544Y-94873216D01*
X174300147Y-94725646D01*
X174425646Y-94600147D01*
X174573216Y-94501544D01*
X174737188Y-94433624D01*
X174892099Y-94402811D01*
X174911258Y-94399000D01*
X175088742Y-94399000D01*
X175107901Y-94402811D01*
G37*
G36*
X168613512Y-93243927D02*
G01*
X168762812Y-93273624D01*
X168926784Y-93341544D01*
X169074354Y-93440147D01*
X169199853Y-93565646D01*
X169298456Y-93713216D01*
X169366376Y-93877188D01*
X169401000Y-94051259D01*
X169401000Y-94228741D01*
X169366376Y-94402812D01*
X169298456Y-94566784D01*
X169199853Y-94714354D01*
X169074354Y-94839853D01*
X168926784Y-94938456D01*
X168762812Y-95006376D01*
X168613512Y-95036073D01*
X168588742Y-95041000D01*
X168411258Y-95041000D01*
X168386488Y-95036073D01*
X168237188Y-95006376D01*
X168073216Y-94938456D01*
X167925646Y-94839853D01*
X167800147Y-94714354D01*
X167701544Y-94566784D01*
X167633624Y-94402812D01*
X167599000Y-94228741D01*
X167599000Y-94051259D01*
X167633624Y-93877188D01*
X167701544Y-93713216D01*
X167800147Y-93565646D01*
X167925646Y-93440147D01*
X168073216Y-93341544D01*
X168237188Y-93273624D01*
X168386488Y-93243927D01*
X168411258Y-93239000D01*
X168588742Y-93239000D01*
X168613512Y-93243927D01*
G37*
G36*
X175113512Y-91863927D02*
G01*
X175262812Y-91893624D01*
X175426784Y-91961544D01*
X175574354Y-92060147D01*
X175699853Y-92185646D01*
X175798456Y-92333216D01*
X175866376Y-92497188D01*
X175901000Y-92671259D01*
X175901000Y-92848741D01*
X175866376Y-93022812D01*
X175798456Y-93186784D01*
X175699853Y-93334354D01*
X175574354Y-93459853D01*
X175426784Y-93558456D01*
X175262812Y-93626376D01*
X175113512Y-93656073D01*
X175088742Y-93661000D01*
X174911258Y-93661000D01*
X174886488Y-93656073D01*
X174737188Y-93626376D01*
X174573216Y-93558456D01*
X174425646Y-93459853D01*
X174300147Y-93334354D01*
X174201544Y-93186784D01*
X174133624Y-93022812D01*
X174099000Y-92848741D01*
X174099000Y-92671259D01*
X174133624Y-92497188D01*
X174201544Y-92333216D01*
X174300147Y-92185646D01*
X174425646Y-92060147D01*
X174573216Y-91961544D01*
X174737188Y-91893624D01*
X174886488Y-91863927D01*
X174911258Y-91859000D01*
X175088742Y-91859000D01*
X175113512Y-91863927D01*
G37*
G36*
X175113512Y-89323927D02*
G01*
X175262812Y-89353624D01*
X175426784Y-89421544D01*
X175574354Y-89520147D01*
X175699853Y-89645646D01*
X175798456Y-89793216D01*
X175866376Y-89957188D01*
X175901000Y-90131259D01*
X175901000Y-90308741D01*
X175866376Y-90482812D01*
X175798456Y-90646784D01*
X175699853Y-90794354D01*
X175574354Y-90919853D01*
X175426784Y-91018456D01*
X175262812Y-91086376D01*
X175113512Y-91116073D01*
X175088742Y-91121000D01*
X174911258Y-91121000D01*
X174886488Y-91116073D01*
X174737188Y-91086376D01*
X174573216Y-91018456D01*
X174425646Y-90919853D01*
X174300147Y-90794354D01*
X174201544Y-90646784D01*
X174133624Y-90482812D01*
X174099000Y-90308741D01*
X174099000Y-90131259D01*
X174133624Y-89957188D01*
X174201544Y-89793216D01*
X174300147Y-89645646D01*
X174425646Y-89520147D01*
X174573216Y-89421544D01*
X174737188Y-89353624D01*
X174886488Y-89323927D01*
X174911258Y-89319000D01*
X175088742Y-89319000D01*
X175113512Y-89323927D01*
G37*
G36*
X175113512Y-86783927D02*
G01*
X175262812Y-86813624D01*
X175426784Y-86881544D01*
X175574354Y-86980147D01*
X175699853Y-87105646D01*
X175798456Y-87253216D01*
X175866376Y-87417188D01*
X175901000Y-87591259D01*
X175901000Y-87768741D01*
X175866376Y-87942812D01*
X175798456Y-88106784D01*
X175699853Y-88254354D01*
X175574354Y-88379853D01*
X175426784Y-88478456D01*
X175262812Y-88546376D01*
X175113512Y-88576073D01*
X175088742Y-88581000D01*
X174911258Y-88581000D01*
X174886488Y-88576073D01*
X174737188Y-88546376D01*
X174573216Y-88478456D01*
X174425646Y-88379853D01*
X174300147Y-88254354D01*
X174201544Y-88106784D01*
X174133624Y-87942812D01*
X174099000Y-87768741D01*
X174099000Y-87591259D01*
X174133624Y-87417188D01*
X174201544Y-87253216D01*
X174300147Y-87105646D01*
X174425646Y-86980147D01*
X174573216Y-86881544D01*
X174737188Y-86813624D01*
X174886488Y-86783927D01*
X174911258Y-86779000D01*
X175088742Y-86779000D01*
X175113512Y-86783927D01*
G37*
G36*
X175901000Y-86041000D02*
G01*
X174099000Y-86041000D01*
X174099000Y-84239000D01*
X175901000Y-84239000D01*
X175901000Y-86041000D01*
G37*
G36*
X167975256Y-80866298D02*
G01*
X168081579Y-80887447D01*
X168382042Y-81011903D01*
X168652451Y-81192585D01*
X168882415Y-81422549D01*
X169063097Y-81692958D01*
X169187553Y-81993421D01*
X169251000Y-82312391D01*
X169251000Y-82637609D01*
X169187553Y-82956579D01*
X169063097Y-83257042D01*
X168882415Y-83527451D01*
X168652451Y-83757415D01*
X168382042Y-83938097D01*
X168081579Y-84062553D01*
X167975256Y-84083702D01*
X167762611Y-84126000D01*
X167437389Y-84126000D01*
X167224744Y-84083702D01*
X167118421Y-84062553D01*
X166817958Y-83938097D01*
X166547549Y-83757415D01*
X166317585Y-83527451D01*
X166136903Y-83257042D01*
X166012447Y-82956579D01*
X165949000Y-82637609D01*
X165949000Y-82312391D01*
X166012447Y-81993421D01*
X166136903Y-81692958D01*
X166317585Y-81422549D01*
X166547549Y-81192585D01*
X166817958Y-81011903D01*
X167118421Y-80887447D01*
X167224744Y-80866298D01*
X167437389Y-80824000D01*
X167762611Y-80824000D01*
X167975256Y-80866298D01*
G37*
G36*
X139025256Y-80866298D02*
G01*
X139131579Y-80887447D01*
X139432042Y-81011903D01*
X139702451Y-81192585D01*
X139932415Y-81422549D01*
X140113097Y-81692958D01*
X140237553Y-81993421D01*
X140301000Y-82312391D01*
X140301000Y-82637609D01*
X140237553Y-82956579D01*
X140113097Y-83257042D01*
X139932415Y-83527451D01*
X139702451Y-83757415D01*
X139432042Y-83938097D01*
X139131579Y-84062553D01*
X139025256Y-84083702D01*
X138812611Y-84126000D01*
X138487389Y-84126000D01*
X138274744Y-84083702D01*
X138168421Y-84062553D01*
X137867958Y-83938097D01*
X137597549Y-83757415D01*
X137367585Y-83527451D01*
X137186903Y-83257042D01*
X137062447Y-82956579D01*
X136999000Y-82637609D01*
X136999000Y-82312391D01*
X137062447Y-81993421D01*
X137186903Y-81692958D01*
X137367585Y-81422549D01*
X137597549Y-81192585D01*
X137867958Y-81011903D01*
X138168421Y-80887447D01*
X138274744Y-80866298D01*
X138487389Y-80824000D01*
X138812611Y-80824000D01*
X139025256Y-80866298D01*
G37*
G36*
X110901000Y-78401000D02*
G01*
X109099000Y-78401000D01*
X109099000Y-76599000D01*
X110901000Y-76599000D01*
X110901000Y-78401000D01*
G37*
G36*
X120273512Y-76603927D02*
G01*
X120422812Y-76633624D01*
X120586784Y-76701544D01*
X120734354Y-76800147D01*
X120859853Y-76925646D01*
X120958456Y-77073216D01*
X121026376Y-77237188D01*
X121061000Y-77411259D01*
X121061000Y-77588741D01*
X121026376Y-77762812D01*
X120958456Y-77926784D01*
X120859853Y-78074354D01*
X120734354Y-78199853D01*
X120586784Y-78298456D01*
X120422812Y-78366376D01*
X120273512Y-78396073D01*
X120248742Y-78401000D01*
X120071258Y-78401000D01*
X120046488Y-78396073D01*
X119897188Y-78366376D01*
X119733216Y-78298456D01*
X119585646Y-78199853D01*
X119460147Y-78074354D01*
X119361544Y-77926784D01*
X119293624Y-77762812D01*
X119259000Y-77588741D01*
X119259000Y-77411259D01*
X119293624Y-77237188D01*
X119361544Y-77073216D01*
X119460147Y-76925646D01*
X119585646Y-76800147D01*
X119733216Y-76701544D01*
X119897188Y-76633624D01*
X120046488Y-76603927D01*
X120071258Y-76599000D01*
X120248742Y-76599000D01*
X120273512Y-76603927D01*
G37*
G36*
X122813512Y-76603927D02*
G01*
X122962812Y-76633624D01*
X123126784Y-76701544D01*
X123274354Y-76800147D01*
X123399853Y-76925646D01*
X123498456Y-77073216D01*
X123566376Y-77237188D01*
X123601000Y-77411259D01*
X123601000Y-77588741D01*
X123566376Y-77762812D01*
X123498456Y-77926784D01*
X123399853Y-78074354D01*
X123274354Y-78199853D01*
X123126784Y-78298456D01*
X122962812Y-78366376D01*
X122813512Y-78396073D01*
X122788742Y-78401000D01*
X122611258Y-78401000D01*
X122586488Y-78396073D01*
X122437188Y-78366376D01*
X122273216Y-78298456D01*
X122125646Y-78199853D01*
X122000147Y-78074354D01*
X121901544Y-77926784D01*
X121833624Y-77762812D01*
X121799000Y-77588741D01*
X121799000Y-77411259D01*
X121833624Y-77237188D01*
X121901544Y-77073216D01*
X122000147Y-76925646D01*
X122125646Y-76800147D01*
X122273216Y-76701544D01*
X122437188Y-76633624D01*
X122586488Y-76603927D01*
X122611258Y-76599000D01*
X122788742Y-76599000D01*
X122813512Y-76603927D01*
G37*
G36*
X125353512Y-76603927D02*
G01*
X125502812Y-76633624D01*
X125666784Y-76701544D01*
X125814354Y-76800147D01*
X125939853Y-76925646D01*
X126038456Y-77073216D01*
X126106376Y-77237188D01*
X126141000Y-77411259D01*
X126141000Y-77588741D01*
X126106376Y-77762812D01*
X126038456Y-77926784D01*
X125939853Y-78074354D01*
X125814354Y-78199853D01*
X125666784Y-78298456D01*
X125502812Y-78366376D01*
X125353512Y-78396073D01*
X125328742Y-78401000D01*
X125151258Y-78401000D01*
X125126488Y-78396073D01*
X124977188Y-78366376D01*
X124813216Y-78298456D01*
X124665646Y-78199853D01*
X124540147Y-78074354D01*
X124441544Y-77926784D01*
X124373624Y-77762812D01*
X124339000Y-77588741D01*
X124339000Y-77411259D01*
X124373624Y-77237188D01*
X124441544Y-77073216D01*
X124540147Y-76925646D01*
X124665646Y-76800147D01*
X124813216Y-76701544D01*
X124977188Y-76633624D01*
X125126488Y-76603927D01*
X125151258Y-76599000D01*
X125328742Y-76599000D01*
X125353512Y-76603927D01*
G37*
G36*
X117733512Y-76603927D02*
G01*
X117882812Y-76633624D01*
X118046784Y-76701544D01*
X118194354Y-76800147D01*
X118319853Y-76925646D01*
X118418456Y-77073216D01*
X118486376Y-77237188D01*
X118521000Y-77411259D01*
X118521000Y-77588741D01*
X118486376Y-77762812D01*
X118418456Y-77926784D01*
X118319853Y-78074354D01*
X118194354Y-78199853D01*
X118046784Y-78298456D01*
X117882812Y-78366376D01*
X117733512Y-78396073D01*
X117708742Y-78401000D01*
X117531258Y-78401000D01*
X117506488Y-78396073D01*
X117357188Y-78366376D01*
X117193216Y-78298456D01*
X117045646Y-78199853D01*
X116920147Y-78074354D01*
X116821544Y-77926784D01*
X116753624Y-77762812D01*
X116719000Y-77588741D01*
X116719000Y-77411259D01*
X116753624Y-77237188D01*
X116821544Y-77073216D01*
X116920147Y-76925646D01*
X117045646Y-76800147D01*
X117193216Y-76701544D01*
X117357188Y-76633624D01*
X117506488Y-76603927D01*
X117531258Y-76599000D01*
X117708742Y-76599000D01*
X117733512Y-76603927D01*
G37*
G36*
X115193512Y-76603927D02*
G01*
X115342812Y-76633624D01*
X115506784Y-76701544D01*
X115654354Y-76800147D01*
X115779853Y-76925646D01*
X115878456Y-77073216D01*
X115946376Y-77237188D01*
X115981000Y-77411259D01*
X115981000Y-77588741D01*
X115946376Y-77762812D01*
X115878456Y-77926784D01*
X115779853Y-78074354D01*
X115654354Y-78199853D01*
X115506784Y-78298456D01*
X115342812Y-78366376D01*
X115193512Y-78396073D01*
X115168742Y-78401000D01*
X114991258Y-78401000D01*
X114966488Y-78396073D01*
X114817188Y-78366376D01*
X114653216Y-78298456D01*
X114505646Y-78199853D01*
X114380147Y-78074354D01*
X114281544Y-77926784D01*
X114213624Y-77762812D01*
X114179000Y-77588741D01*
X114179000Y-77411259D01*
X114213624Y-77237188D01*
X114281544Y-77073216D01*
X114380147Y-76925646D01*
X114505646Y-76800147D01*
X114653216Y-76701544D01*
X114817188Y-76633624D01*
X114966488Y-76603927D01*
X114991258Y-76599000D01*
X115168742Y-76599000D01*
X115193512Y-76603927D01*
G37*
G36*
X112653512Y-76603927D02*
G01*
X112802812Y-76633624D01*
X112966784Y-76701544D01*
X113114354Y-76800147D01*
X113239853Y-76925646D01*
X113338456Y-77073216D01*
X113406376Y-77237188D01*
X113441000Y-77411259D01*
X113441000Y-77588741D01*
X113406376Y-77762812D01*
X113338456Y-77926784D01*
X113239853Y-78074354D01*
X113114354Y-78199853D01*
X112966784Y-78298456D01*
X112802812Y-78366376D01*
X112653512Y-78396073D01*
X112628742Y-78401000D01*
X112451258Y-78401000D01*
X112426488Y-78396073D01*
X112277188Y-78366376D01*
X112113216Y-78298456D01*
X111965646Y-78199853D01*
X111840147Y-78074354D01*
X111741544Y-77926784D01*
X111673624Y-77762812D01*
X111639000Y-77588741D01*
X111639000Y-77411259D01*
X111673624Y-77237188D01*
X111741544Y-77073216D01*
X111840147Y-76925646D01*
X111965646Y-76800147D01*
X112113216Y-76701544D01*
X112277188Y-76633624D01*
X112426488Y-76603927D01*
X112451258Y-76599000D01*
X112628742Y-76599000D01*
X112653512Y-76603927D01*
G37*
G36*
X125353512Y-74063927D02*
G01*
X125502812Y-74093624D01*
X125666784Y-74161544D01*
X125814354Y-74260147D01*
X125939853Y-74385646D01*
X126038456Y-74533216D01*
X126106376Y-74697188D01*
X126141000Y-74871259D01*
X126141000Y-75048741D01*
X126106376Y-75222812D01*
X126038456Y-75386784D01*
X125939853Y-75534354D01*
X125814354Y-75659853D01*
X125666784Y-75758456D01*
X125502812Y-75826376D01*
X125353512Y-75856073D01*
X125328742Y-75861000D01*
X125151258Y-75861000D01*
X125126488Y-75856073D01*
X124977188Y-75826376D01*
X124813216Y-75758456D01*
X124665646Y-75659853D01*
X124540147Y-75534354D01*
X124441544Y-75386784D01*
X124373624Y-75222812D01*
X124339000Y-75048741D01*
X124339000Y-74871259D01*
X124373624Y-74697188D01*
X124441544Y-74533216D01*
X124540147Y-74385646D01*
X124665646Y-74260147D01*
X124813216Y-74161544D01*
X124977188Y-74093624D01*
X125126488Y-74063927D01*
X125151258Y-74059000D01*
X125328742Y-74059000D01*
X125353512Y-74063927D01*
G37*
G36*
X122813512Y-74063927D02*
G01*
X122962812Y-74093624D01*
X123126784Y-74161544D01*
X123274354Y-74260147D01*
X123399853Y-74385646D01*
X123498456Y-74533216D01*
X123566376Y-74697188D01*
X123601000Y-74871259D01*
X123601000Y-75048741D01*
X123566376Y-75222812D01*
X123498456Y-75386784D01*
X123399853Y-75534354D01*
X123274354Y-75659853D01*
X123126784Y-75758456D01*
X122962812Y-75826376D01*
X122813512Y-75856073D01*
X122788742Y-75861000D01*
X122611258Y-75861000D01*
X122586488Y-75856073D01*
X122437188Y-75826376D01*
X122273216Y-75758456D01*
X122125646Y-75659853D01*
X122000147Y-75534354D01*
X121901544Y-75386784D01*
X121833624Y-75222812D01*
X121799000Y-75048741D01*
X121799000Y-74871259D01*
X121833624Y-74697188D01*
X121901544Y-74533216D01*
X122000147Y-74385646D01*
X122125646Y-74260147D01*
X122273216Y-74161544D01*
X122437188Y-74093624D01*
X122586488Y-74063927D01*
X122611258Y-74059000D01*
X122788742Y-74059000D01*
X122813512Y-74063927D01*
G37*
G36*
X120273512Y-74063927D02*
G01*
X120422812Y-74093624D01*
X120586784Y-74161544D01*
X120734354Y-74260147D01*
X120859853Y-74385646D01*
X120958456Y-74533216D01*
X121026376Y-74697188D01*
X121061000Y-74871259D01*
X121061000Y-75048741D01*
X121026376Y-75222812D01*
X120958456Y-75386784D01*
X120859853Y-75534354D01*
X120734354Y-75659853D01*
X120586784Y-75758456D01*
X120422812Y-75826376D01*
X120273512Y-75856073D01*
X120248742Y-75861000D01*
X120071258Y-75861000D01*
X120046488Y-75856073D01*
X119897188Y-75826376D01*
X119733216Y-75758456D01*
X119585646Y-75659853D01*
X119460147Y-75534354D01*
X119361544Y-75386784D01*
X119293624Y-75222812D01*
X119259000Y-75048741D01*
X119259000Y-74871259D01*
X119293624Y-74697188D01*
X119361544Y-74533216D01*
X119460147Y-74385646D01*
X119585646Y-74260147D01*
X119733216Y-74161544D01*
X119897188Y-74093624D01*
X120046488Y-74063927D01*
X120071258Y-74059000D01*
X120248742Y-74059000D01*
X120273512Y-74063927D01*
G37*
G36*
X117733512Y-74063927D02*
G01*
X117882812Y-74093624D01*
X118046784Y-74161544D01*
X118194354Y-74260147D01*
X118319853Y-74385646D01*
X118418456Y-74533216D01*
X118486376Y-74697188D01*
X118521000Y-74871259D01*
X118521000Y-75048741D01*
X118486376Y-75222812D01*
X118418456Y-75386784D01*
X118319853Y-75534354D01*
X118194354Y-75659853D01*
X118046784Y-75758456D01*
X117882812Y-75826376D01*
X117733512Y-75856073D01*
X117708742Y-75861000D01*
X117531258Y-75861000D01*
X117506488Y-75856073D01*
X117357188Y-75826376D01*
X117193216Y-75758456D01*
X117045646Y-75659853D01*
X116920147Y-75534354D01*
X116821544Y-75386784D01*
X116753624Y-75222812D01*
X116719000Y-75048741D01*
X116719000Y-74871259D01*
X116753624Y-74697188D01*
X116821544Y-74533216D01*
X116920147Y-74385646D01*
X117045646Y-74260147D01*
X117193216Y-74161544D01*
X117357188Y-74093624D01*
X117506488Y-74063927D01*
X117531258Y-74059000D01*
X117708742Y-74059000D01*
X117733512Y-74063927D01*
G37*
G36*
X115193512Y-74063927D02*
G01*
X115342812Y-74093624D01*
X115506784Y-74161544D01*
X115654354Y-74260147D01*
X115779853Y-74385646D01*
X115878456Y-74533216D01*
X115946376Y-74697188D01*
X115981000Y-74871259D01*
X115981000Y-75048741D01*
X115946376Y-75222812D01*
X115878456Y-75386784D01*
X115779853Y-75534354D01*
X115654354Y-75659853D01*
X115506784Y-75758456D01*
X115342812Y-75826376D01*
X115193512Y-75856073D01*
X115168742Y-75861000D01*
X114991258Y-75861000D01*
X114966488Y-75856073D01*
X114817188Y-75826376D01*
X114653216Y-75758456D01*
X114505646Y-75659853D01*
X114380147Y-75534354D01*
X114281544Y-75386784D01*
X114213624Y-75222812D01*
X114179000Y-75048741D01*
X114179000Y-74871259D01*
X114213624Y-74697188D01*
X114281544Y-74533216D01*
X114380147Y-74385646D01*
X114505646Y-74260147D01*
X114653216Y-74161544D01*
X114817188Y-74093624D01*
X114966488Y-74063927D01*
X114991258Y-74059000D01*
X115168742Y-74059000D01*
X115193512Y-74063927D01*
G37*
G36*
X112653512Y-74063927D02*
G01*
X112802812Y-74093624D01*
X112966784Y-74161544D01*
X113114354Y-74260147D01*
X113239853Y-74385646D01*
X113338456Y-74533216D01*
X113406376Y-74697188D01*
X113441000Y-74871259D01*
X113441000Y-75048741D01*
X113406376Y-75222812D01*
X113338456Y-75386784D01*
X113239853Y-75534354D01*
X113114354Y-75659853D01*
X112966784Y-75758456D01*
X112802812Y-75826376D01*
X112653512Y-75856073D01*
X112628742Y-75861000D01*
X112451258Y-75861000D01*
X112426488Y-75856073D01*
X112277188Y-75826376D01*
X112113216Y-75758456D01*
X111965646Y-75659853D01*
X111840147Y-75534354D01*
X111741544Y-75386784D01*
X111673624Y-75222812D01*
X111639000Y-75048741D01*
X111639000Y-74871259D01*
X111673624Y-74697188D01*
X111741544Y-74533216D01*
X111840147Y-74385646D01*
X111965646Y-74260147D01*
X112113216Y-74161544D01*
X112277188Y-74093624D01*
X112426488Y-74063927D01*
X112451258Y-74059000D01*
X112628742Y-74059000D01*
X112653512Y-74063927D01*
G37*
G36*
X110113512Y-74063927D02*
G01*
X110262812Y-74093624D01*
X110426784Y-74161544D01*
X110574354Y-74260147D01*
X110699853Y-74385646D01*
X110798456Y-74533216D01*
X110866376Y-74697188D01*
X110901000Y-74871259D01*
X110901000Y-75048741D01*
X110866376Y-75222812D01*
X110798456Y-75386784D01*
X110699853Y-75534354D01*
X110574354Y-75659853D01*
X110426784Y-75758456D01*
X110262812Y-75826376D01*
X110113512Y-75856073D01*
X110088742Y-75861000D01*
X109911258Y-75861000D01*
X109886488Y-75856073D01*
X109737188Y-75826376D01*
X109573216Y-75758456D01*
X109425646Y-75659853D01*
X109300147Y-75534354D01*
X109201544Y-75386784D01*
X109133624Y-75222812D01*
X109099000Y-75048741D01*
X109099000Y-74871259D01*
X109133624Y-74697188D01*
X109201544Y-74533216D01*
X109300147Y-74385646D01*
X109425646Y-74260147D01*
X109573216Y-74161544D01*
X109737188Y-74093624D01*
X109886488Y-74063927D01*
X109911258Y-74059000D01*
X110088742Y-74059000D01*
X110113512Y-74063927D01*
G37*
M02*
